<svg xmlns="http://www.w3.org/2000/svg" version="1.1" xmlns:xlink="http://www.w3.org/1999/xlink" xmlns:svgjs="http://svgjs.com/svgjs" width="260" height="260"><svg id="SvgjsSvg1006" data-name="Layer 2" xmlns="http://www.w3.org/2000/svg" xmlns:xlink="http://www.w3.org/1999/xlink" width="260" height="260" viewBox="0 0 260 260"><defs><style>.cls-1,.cls-2,.cls-3,.cls-4{fill:none;}.cls-2,.cls-3,.cls-4{stroke:#773f28;stroke-miterlimit:10;}.cls-2{stroke-width:1.53px;}.cls-3{stroke-width:1.83px;}.cls-4{stroke-width:1.54px;}.cls-5{clip-path:url(#clip-path);}.cls-6{fill:#e39725;}</style><clipPath id="SvgjsClipPath1005"><rect class="cls-1" x="105.9" y="154.53" width="53.23" height="41.89"></rect></clipPath></defs><path class="cls-2" d="M116.92,20.75c5.07,1.75,9.48,2.71,12.67,2.62,2.88-.07,7,.16,9.9-.3a42.62,42.62,0,0,0,8.62-2.32"></path><path class="cls-3" d="M146.63,10.15c.8,2.33,1.48,5.9,1,7.91a30.74,30.74,0,0,0-1,7.93c1.24,21.44,4.81,41.48,6,62.9a43.87,43.87,0,0,0,5.13,19.16c1.6,2.83,3.68,5.84,5.44,8.59,5.57,8.72,5.27,19.11,5,29.47a77.92,77.92,0,0,1-71.17-.3l-.16-.12c-.31-9.89-.41-20.75,4.9-29,1.75-2.75,3.89-5.72,5.5-8.56a43.87,43.87,0,0,0,5.13-19.16c1.17-21.28,3.41-41.84,4.68-63.13a29.83,29.83,0,0,0-1.09-8.5,13.09,13.09,0,0,1,.55-7.07"></path><path class="cls-4" d="M98,248.31c-.39-14.85-.81-37.22-1.22-59.07l.13-.13c2.46,1.66,18.35,9.79,35.62,9.3,17-.48,35.25-7.56,35.52-9.17h0c.19,21.23.41,42.86,0,57.54l-.18-2.57a6.41,6.41,0,0,1,.18,1.5c0,8.11-15.77,14.68-35.22,14.68s-35.21-6.57-35.21-14.68a6.51,6.51,0,0,1,.12-1.24"></path><path class="cls-2" d="M116.55,11.75a10.09,10.09,0,0,1,.54-1.22c.36-.72,1.49-.94,2.33-.89a5.68,5.68,0,0,0,2.5-.06,4.09,4.09,0,0,1,.94-.4,8.2,8.2,0,0,1,2.67.43c1.37.33,2-.82,3.44-.83.91,0,1.76.61,2.65.47.72-.11,2-.67,2.67-.86,1.63-.45,2.56,1.3,4.2.87a18.11,18.11,0,0,1,2.61-.56c1.45-.14,2.08,1.33,3.51,1.1a11.29,11.29,0,0,0,1.23-.44,2.5,2.5,0,0,1,2.57,1.6h0c1.25.81,2.13-2.69.8-5a11.66,11.66,0,0,0-1.29-2.14,8.56,8.56,0,0,0-4-2.47,19.85,19.85,0,0,0-6-.75L133.68.46c-1.32,0-2.65-.06-4,0a37.23,37.23,0,0,0-10.27,1.75A5.68,5.68,0,0,0,117,3.41a4.74,4.74,0,0,0-1,1.63,12.36,12.36,0,0,0-.92,4.47c0,.71,1.07,1.3,1.3,1.63"></path><g id="SvgjsG1004" data-name="Group 3"><g class="cls-5"><g id="SvgjsG1003" data-name="Group 2"><path id="SvgjsPath1002" data-name="Path 8" class="cls-6" d="M149.66,190.57a13.86,13.86,0,0,1-7.31-.35l-3.25,4.19-4,2,5.47-7.27c-2-1.16-2.78-2.59-3.32-5-1.15-5.22,2.7-10,8.46-11.42a12.07,12.07,0,0,1,6.79.21l2.71-3.83,3.93-2.15-4.95,6.76a8.21,8.21,0,0,1,3.92,5.39c1.17,5.24-2.63,10-8.44,11.44m-7.49-3.79,8.67-11.39a8.15,8.15,0,0,0-4.59-.13c-4.05,1-6.62,4.24-5.78,8.18a5.21,5.21,0,0,0,1.7,3.34m12.5-6.82a6.24,6.24,0,0,0-2.21-3.67l-8.6,11.59a10.14,10.14,0,0,0,5.24.21c4.06-1,6.44-4.2,5.57-8.13"></path><path id="SvgjsPath1001" data-name="Path 9" class="cls-6" d="M121.28,193.74l-.56-.34,23.37-36.18.53.38Z"></path><path id="SvgjsPath1000" data-name="Path 10" class="cls-6" d="M124.26,160.18v19.24l-4.51-1.62-10.36-15.64v12.73L105.9,173V154.53l3.49,1.62L120.77,173V159.06Z"></path></g></g></g></svg><style>@media (prefers-color-scheme: light) { :root { filter: none; } }
</style></svg>