<svg xmlns="http://www.w3.org/2000/svg" width="628.431" height="214.927" viewBox="0 0 628.431 214.927">
  <g id="Knap_vores_udvalg" transform="translate(0.033 0.02)">
    <path id="Path_38125" data-name="Path 38125" d="M329.149,66.025a9.632,9.632,0,0,1-1.27,3.546l-1.1,2.443-.154.516a1.773,1.773,0,0,0-.223,1.256,5.319,5.319,0,0,0-.656,1.187,5.4,5.4,0,0,0-1.117,2.15,1.954,1.954,0,0,1-.586.586,6.129,6.129,0,0,1-.516,1.549,6.573,6.573,0,0,1-.67,1.187c0,.154-.14.6-.447.516-.07.307.223.307.084.67-.67.963-.824,2.513-1.7,3.252a3.378,3.378,0,0,1-.447,1.4,5.583,5.583,0,0,0-.377.963c-.14.516-.209,1.173-.363,1.843a4.522,4.522,0,0,0-.586.74c0,.293-.084.586-.084.963-.223.154-.293.447-.586.586a1.675,1.675,0,0,1-.516,1.4c-.084,0-.223.74-.377,1.033a2.289,2.289,0,0,1-.223.81c-.223.307-.363.74-.74.963,0,1.4-.81,1.857-.81,3.113-.223.07-.293.293-.516.447s-.07.363-.223.586-.223.223-.223.223a4.58,4.58,0,0,0-.14.963l-.223.516c-.154.223-.084.447-.154.586s-.516.377-.67.67,0,.377,0,.586l-.74,1.186-.293.824c-.223.656-.447,1.843-.963,2.136a1.954,1.954,0,0,1-2.513-.74c0-.447-.293-.516-.223-.963,0-.223-.223-.293-.447-.293-.07-.223-.07-.363-.223-.447-.14-.363.084-.433.223-.586-.14-.447-.81-.363-1.033-.74.154-.893-.586-.74-.447-1.549,0-.293-.363-.154-.516-.293s0-.307-.223-.447a22.837,22.837,0,0,1-1.1-2.443c-.307-.447-.67-.893-1.047-1.4s-.516-1.033-.949-1.549a8.376,8.376,0,0,0-.67-2.136c-.293-.74-.963-1.27-1.117-2.08-.433-.293-.433-.879-.963-1.1,0-.893-.656-1.4-1.033-2.08-.223-.363-.223-.879-.656-1.186a8.54,8.54,0,0,0-.824-1.689c-.07-.223-.433-.516-.586-.824s-.07-.656-.223-.963c-.223-.656-.74-1.173-.74-1.912a4.606,4.606,0,0,1-.963-1.633,1.578,1.578,0,0,1-.447-.67,5.247,5.247,0,0,1-.656-1.843c-.084-.447,0-1.117-.223-1.4-.084,0-.223-.223-.223-.293a1.826,1.826,0,0,0-.154-.81l-.293-.6-.223-.586c-.447-.893-1.186-1.633-1.256-2.513-.81-.67-.893-1.926-1.773-2.443a4.815,4.815,0,0,0-1.117-1.926c-.07-.154-.07-.293-.14-.363s-.223-.084-.223-.307c-.377-.14-1.117-.07-1.549-.223a3.392,3.392,0,0,1-.67-1.549c.223-.586.963-.67,1.773-.586.377-.084.67-.377,1.117-.447.74-.154,1.843,0,2.792-.223a3.392,3.392,0,0,0,.879-.223,8.167,8.167,0,0,0,.824.154h.586a12.688,12.688,0,0,0,1.633,0,11.852,11.852,0,0,1,1.48-.154c.07,0,.14.154.363,0a2.134,2.134,0,0,1,1.187-.223c.293.07.363.307.586.516s0,.154.223.377l.223.223a2.615,2.615,0,0,0,0,.74c0,.07.223.223.223.223.14.516.07,1.619.223,2.066a6.757,6.757,0,0,0,.67,1.549l.293.824a22.5,22.5,0,0,1,.879,3.615c.084.447.447.6.74.824a19.541,19.541,0,0,0,.893,2.582,1.484,1.484,0,0,1,.223.377c0,.084-.084.293,0,.433.14.447.447.893.656,1.48s.377.963.6,1.563l.293.656a4.386,4.386,0,0,1,.223.893,2.791,2.791,0,0,1,.586.963A3.476,3.476,0,0,1,307,85.19c.377.363.377,1.1.824,1.326-.084.963.656,1.1.656,2.066.53,0,.6-.516.74-.81a31.97,31.97,0,0,0,1.27-3.336c.14-.209.07-.209.14-.363a5.663,5.663,0,0,0,.293-.81c.084-.154.293-.223.377-.377s0-.447.07-.586l.293-.223c.084-.223.084-.67.223-.81.377-.377.377-.74.74-.74-.07-.516.223-.74.154-1.27a2.9,2.9,0,0,0,.656-1.689c.084-.084.154-.084.377-.084a2.931,2.931,0,0,1,.223-1.173c.153-.377.447-.6.516-.893.223-.586,0-1.256.293-1.857,0-.209.154-.363.223-.586l.154-.586c0-.154.14-.293.223-.6a13.319,13.319,0,0,1,.879-1.912c.07-.084.07-.307.154-.447a2.932,2.932,0,0,1,.516-.824c0-.293.363-.516.447-.74l.14-.74c.084-.14.223-.293.223-.433a9.435,9.435,0,0,1,1.186-2.6c.223,0,.363-.223.81-.223a3.866,3.866,0,0,0,1.4,0c.14,0,.293-.14.433-.223.377,0,.74.084,1.186.084s.824-.154,1.256-.154.516.377.893.377c.07.07.67-.084.963-.084a3.7,3.7,0,0,0,.963,0c.433,0,1.033-.363,1.773-.14a1.871,1.871,0,0,1,1.186,1.4C330,65.648,329.4,65.746,329.149,66.025Zm-3.922.14a2.342,2.342,0,0,1-1.4-.14,1.507,1.507,0,0,1-1.48,0c-.14.586-1.256.209-1.7.433-.209.377-.209.893-.363,1.117-.447.363-.293.963-.516,1.48-.293.74-1.117,1.4-1.033,2.289-.307.07-.307.447-.6.447.154.377-.293.74-.363,1.033l-.154.963a8.834,8.834,0,0,0-.363.81c.223.824-.447,1.4-.447,2.3-.293.223-.377.586-.6.81,0,.963-.516,1.256-.516,2.15a7.316,7.316,0,0,0-1.1,1.773c-.223.14-.516.223-.516.586-.293,0,.223.377-.154.6a4.609,4.609,0,0,0-.363.656c-.154.447-.377.824-.447,1.117a1.23,1.23,0,0,1-.154.447c-.084.154-.433.433-.516.74a13.357,13.357,0,0,1-.293,1.619c-.153.516-.67,1.033-.81,1.549a15.757,15.757,0,0,1-.307,1.926,4.52,4.52,0,0,0-.363.6,1.884,1.884,0,0,0-.154,1.4,2.177,2.177,0,0,1,0,.74,1.912,1.912,0,0,1-1.619.893c-.81,0-1.256-1.256-1.633-1.857-.293-.223-.223-.363-.293-.433a11.715,11.715,0,0,1-1.186-1.633,3.252,3.252,0,0,1-.223-.81l-.363-.74v-.447l-.293-.377c-.07-.293-.293-.586-.07-.81a.646.646,0,0,1-.67-.516c0-.81-.377-1.186-.154-1.773-.363-.223-.363-.81-.516-1.117s-.516-.656-.74-1.1a4.062,4.062,0,0,1-.447-1.633c-.516-.223-.363-.81-.516-1.256l-.586-1.186a26.152,26.152,0,0,0-1.033-2.652v-.642a5.583,5.583,0,0,1-1.4-3.476,1.759,1.759,0,0,1-.433-1.48c-.893-.74-1.047-2.666-.893-4.062-.154-.084-.223-.307-.447-.377.084-.363-.14-.516-.223-.656a13.08,13.08,0,0,0-1.912.293,2.275,2.275,0,0,1-1.117.879c-.223-.07-.516-.363-.81-.07a1.075,1.075,0,0,0-1.033-.447,3.922,3.922,0,0,0,.74,1.857c.14.14.293.433.363.433a3.252,3.252,0,0,1,.377.67l.656,1.4a5.669,5.669,0,0,1,.67,1.549,5.709,5.709,0,0,1,1.549,2.3c.377,1.033.517,2.652.824,3.476.14.293.14.586.209.656a1.493,1.493,0,0,1,.377.67,18.066,18.066,0,0,1,.893,1.7l.586,1.4c.447.963.879,1.773,1.256,2.666.223.447.67.893.586,1.48.67.293,1.047,1.256,1.4,1.773.07.154.07.377.223.516l.516.824a13.959,13.959,0,0,0,2.289,3.462c.377.963.67,2.15,1.117,3.113a17.2,17.2,0,0,1,1.4,1.912l.67,1.4.154.363a4.189,4.189,0,0,0,.656,1.186,2.665,2.665,0,0,1,.223.586c.516.67.74,1.186,1.186,1.48a8.5,8.5,0,0,0,.893-3.322,4.088,4.088,0,0,0,.74-.81,3.805,3.805,0,0,1,.74-2.01l.293-.516c.07-.14,0-.363.07-.586s.516-.586.67-.893c.14-.516.07-1.1.223-1.549.223-.74.81-1.4.656-2.15.447,0,.447-.586.6-.81a10.229,10.229,0,0,0,.74-1.549,4.424,4.424,0,0,0,.516-1.033.67.67,0,0,0,0-.377l.293-.223.223-1.4a9.254,9.254,0,0,1,1.186-2.792,7.135,7.135,0,0,0,.586-1.033l.74-1.787a9.77,9.77,0,0,0,1.033-2.513c.67-.293.67-1.4.963-1.843a3.952,3.952,0,0,0,.377-.963h.293a1.609,1.609,0,0,1,.07-.377c.223-.363.223-.893.67-1.1,0-.447.154-.67.154-1.047a2.792,2.792,0,0,0,.726-1.173c.154-.53.084-.824.223-1.4a12.284,12.284,0,0,1,.67-1.256c.223-.363,1.033-1.187.74-1.4-.07,0,.293-.656.223-.74-.349.042-.572-.181-.865-.181Z" transform="translate(112.519 24.163)" fill="#773f28"/>
    <g id="Group_73662" data-name="Group 73662">
      <path id="Path_38118" data-name="Path 38118" d="M98.182,56.53l-.447,1.256c0,.14-.223.293-.223.363a2.026,2.026,0,0,1-.07.6c-.293.363-.293.586-.516.81-.223.67-.377,1.48-.893,1.7,0,.363,0,.879-.154,1.033-.74,1.843-1.4,3.7-2.136,5.332.14.949-.6,1.48-.824,2.136a5.249,5.249,0,0,0-.14,1.033c-.07.307-.516.53-.377.893-.949.893-.879,2.289-1.48,3.406a5.583,5.583,0,0,1-.656.81c-.084.154-.084.377-.223.516a8.654,8.654,0,0,0-1.117,2.443A4.09,4.09,0,0,0,87.894,80.5c-.07,0-.223.14-.223.223s.084.293,0,.363c-.223.447-.586.893-.81,1.4-.154.223,0,.586-.447.74-.14.879-.74,1.186-.81,2.136a4.453,4.453,0,0,0-.516.67c-.223,1.549-1.117,2.443-1.4,3.922-.154.293-.516.447-.67.74a2.792,2.792,0,0,1-1.1,1.926,4.188,4.188,0,0,1-.74,2.289l-.516,1.4c0,.14-.223.14-.223.223v.516c-.223.293-.447.879-.81,1.033-.084,1.48-1.047,2-1.256,3.322-.223.307-.74.223-.893.6s0,.586-.154.879l-.293.6-.363,1.173a1.494,1.494,0,0,1-.154.307c-.293.293-.293.447-.447.586a13.68,13.68,0,0,0-1.4,2.792c-.293.656-.516,1.256-1.4,1.4.084.377-.209.377-.14.824-.516.293-.893.656-1.633.14,0,0,0-.14-.223-.209s-.223,0-.293-.084,0-.293-.14-.363-.377-.223-.377-.377v-.363l-.67-.824a6.533,6.533,0,0,0-.516-1.1l-.516-.893c-.14-.363-.447-.656-.586-.963s-.084-.293-.154-.363l-.516-.447c-.07-.154-.14-.516-.223-.586L67,103.739l-.293-.516a6.616,6.616,0,0,1-.893-1.48l-.461-.977c-.293,0-.293-.447-.293-.6s-.223-.14-.223-.223c-.223-.363-.377-.293-.447-.363s0-.293,0-.377a2.792,2.792,0,0,1-.963-1.549,2.931,2.931,0,0,1-1.117-1.717,9.77,9.77,0,0,0-.53-1.633c-.14-.14-.363-.293-.433-.447l-.181-.935a4.384,4.384,0,0,0-.223-.81,4.188,4.188,0,0,1-.447-1.633c-.363-.293-.363-.67-.516-1.033,0,0,0-.293-.154-.377s-.223-.656-.293-.81l-.516-1.1c-.154-.377,0-.893-.447-1.047,0-.293.084-.586.084-.81a.447.447,0,0,1-.279-.53l-.447-.81c0-1.633-1.033-2.3-1.117-3.992,0-.377-.293-.447-.433-.67a7.16,7.16,0,0,0-.307-1.7c0-.293-.293-.586-.363-.893a1.647,1.647,0,0,1,0-.586,4.956,4.956,0,0,0-.447-.963,4.913,4.913,0,0,1-.14-1.186c0-.223-.154-.223-.223-.363a2.89,2.89,0,0,0-.447-1.033c-.293-.293-.154-.893-.293-1.4a2.875,2.875,0,0,0-.377-.81c.07-.963-.586-1.186-.516-2.066,0-.223-.363-.154-.293-.377A20.6,20.6,0,0,0,52.3,65.7a16.75,16.75,0,0,0-.586-2.15c-.084-.223,0-.223-.084-.363a9.772,9.772,0,0,1-.586-1.773c-.293-.67-.447-1.4-.74-2,.154-.824-.293-1.4-.293-2.219a17.588,17.588,0,0,1,1.033-1.633c.893-.223,2.066-.154,2.792-.74a30.706,30.706,0,0,0,3.336-.586c1.173-.293,1.773-.223,2.359.81a4.327,4.327,0,0,1,0,.963,9.659,9.659,0,0,1,.237,1.843c.084.516.307,1.1.377,1.633s-.154,1.033.223,1.4c.14.223-.154.516-.154.74s.223.154.223.223V62.3l.53,1.535c.223.377,0,.447.223.824a1.8,1.8,0,0,1,.293.74,3.1,3.1,0,0,1,0,.879,4.634,4.634,0,0,0,.893,1.745c.223,1.033.516,1.926.81,2.889l.223.879c0,.084.223.154.223.223a.948.948,0,0,0,0,.447A9.772,9.772,0,0,0,64,73.42a2.443,2.443,0,0,1,.447,1.256c.084.293.377.516.516.893.084.14,0,.293.084.586l.223.293a17.9,17.9,0,0,0,.949,2.6c0,.07.154.223.223.293s-.07.223-.07.293c.223.447.447.74.586,1.117v.433A8.777,8.777,0,0,1,67.4,82c.154.293.154.81.516,1.1,0,.223.223.293.07.67.293.14.377.516.516.74a2.9,2.9,0,0,0,.377,1.033,3.866,3.866,0,0,0,.293,1.033c.223.67.586,1.186.81,1.773.154.377.154.74.307,1.117.07.14.209.14.293.363l.14.447c.223.6.6,1.186.824,1.773.223,0,.223-.293.363-.433a3.867,3.867,0,0,0,.419-1.27l.6-1.619.223-.81a21.525,21.525,0,0,1,1.48-2.889c.14-.293.363-.447.433-.74a9.511,9.511,0,0,1,.6-1.633c0-.223.293-.363.447-.516.363-.74.586-1.549,1.033-2.359a6.2,6.2,0,0,1,.74-1.117s0-.293.14-.363.307.07.223-.223.223-.293.223-.377a4.61,4.61,0,0,1,.154-.656,5.012,5.012,0,0,0,.433-.6,3.058,3.058,0,0,0,.307-.656,18.148,18.148,0,0,0,1.033-2.01l.223-.81.363-.67a9.172,9.172,0,0,1,.824-1.773,9.576,9.576,0,0,0,.74-1.619,1.242,1.242,0,0,0,.433-.516c.154-.223.154-.6.307-.824a6.073,6.073,0,0,0,.656-1.256,1.815,1.815,0,0,1,.516-.516,4.453,4.453,0,0,1,.6-1.633,5.458,5.458,0,0,1,.81-1.326,3.015,3.015,0,0,1,.293-1.4c.084-.14.223-.223.223-.363.223-.516.154-1.186.516-1.7-.14-.963.377-1.926.154-2.792a3.587,3.587,0,0,1,1.773-1.549,12.968,12.968,0,0,1,2.6-.516c.293-.084.516-.307.81-.377a8.878,8.878,0,0,1,1.926,0l.879-.293c.223.14.6.14.67.433.293,0,.447-.433.879-.433.154.14.6,0,.963.293l.516.447c.084.209.377.209.447.516a3.6,3.6,0,0,1-.335,1.424Zm-5.583,0a.325.325,0,0,0-.293.363c-.963.223-1.7.6-2.666.81a13.707,13.707,0,0,1-.67,2.792c0,.363,0,.74,0,1.033l-.223.223c-.223.447-.14,1.033-.586,1.033a5.137,5.137,0,0,1-1.186,3.029,6.086,6.086,0,0,1-.684,1.661l-.377.447-.433,1.033c-.084.223-.307.293-.377.516a2.157,2.157,0,0,0,0,.67l-.447.656-.586.74c-.154.223-.154.67-.307.893a5.429,5.429,0,0,0-.586.74l-.154.516a13.164,13.164,0,0,0-.433,1.773,4.579,4.579,0,0,0-.893,1.4l-.81,1.549-.461.782a7.819,7.819,0,0,0-.377.824c0,.07-.223.07-.293.209l-.14.447-.223.377a.575.575,0,0,0-.307.293c-.14.363-.14.81-.209.963s-.084.223-.154.363a4.508,4.508,0,0,1-.893.893,9.073,9.073,0,0,1-1.619,3.922l-.893,1.843a1.968,1.968,0,0,1-.447.6s.084.293,0,.363a1.871,1.871,0,0,1-.656.67c.14.14.447.14.223.363s-.6,1.117-.447,1.256a7.063,7.063,0,0,0-.377,1.633l-.433,1.033c-.377.893-.67,1.4-1.563,1.4-.14,0-.293-.223-.447-.293a1.4,1.4,0,0,0-.516-.084c-.223-.14-.293-.516-.433-.74s-.53-.14-.67-.516-.293-.433-.377-.656a4.509,4.509,0,0,1-.223-.824,18.315,18.315,0,0,0-.81-2.513s-.14,0-.223-.223,0-.293-.07-.447-.293-.14-.363-.293A1.224,1.224,0,0,1,67.4,89.6a5.863,5.863,0,0,0-.74-1.549,4.564,4.564,0,0,0-.586-2l-.154-.447c0-.447-.293-.447-.363-.81a1.856,1.856,0,0,0-.223-.586,4.523,4.523,0,0,1-.6-1.563c-.07-.223-.14-.223-.209-.363l-.154-.6a7.287,7.287,0,0,1-.586-1.843c-.154-.377-.447-.447-.53-.893s-.516-1.326-.586-1.843V76.3c-.154-.447-.6-.824-.516-1.4-.307-.14-.447-.586-.67-.81a3.9,3.9,0,0,0-.586-1.857,6.5,6.5,0,0,1-.307-1.1,5.85,5.85,0,0,1-.433-.963c-.084-.293-.154-.893-.223-1.033,0-.447-.377-.74-.154-1.256-.447-.154-.363-.516-.447-.81s-.14-.223-.223-.307,0-.516,0-.81L58.664,64.7c0-.154.084-.377.084-.516s-.223-.084-.223-.223a7.217,7.217,0,0,1-.656-2.917c-.53-.293-.377-1.256-.53-2,0-.447.377-.293.307-.81-.154-.154-.6,0-.6-.307s.084-.74-.293-.74a15.048,15.048,0,0,0-1.549.307,7.566,7.566,0,0,0-2.373.516,2.136,2.136,0,0,0,.293,1.549c.223.293.084.67.223.963,0,0,.154,0,.223.223a1.825,1.825,0,0,1,.154.586,1.061,1.061,0,0,0,.14.67.991.991,0,0,1,.307.516c.223.586.293,1.256.516,1.843l1.1,3.657c.07.223,0,.447.07.67s.223.223.223.223v.516a9.67,9.67,0,0,1,.6.963c0,.74.447,1.1.656,1.619.084.307-.14.307-.14.6A4.285,4.285,0,0,1,58.008,75l.223.893a3.29,3.29,0,0,0,.223.293c.07.07,0,.447,0,.67.447.447.293.963.447,1.4a1.94,1.94,0,0,0,.154.67l.516,1.4.447,1.549.516,1.4a7.538,7.538,0,0,0,.293,1.326,8.517,8.517,0,0,0,.363,1.256,11.557,11.557,0,0,0,.74,1.633l.223.74.6,1.773.293.963a9.408,9.408,0,0,0,.963,2c-.084.363.223.586.363.963a18.555,18.555,0,0,1,.977,1.815l.516.824a.5.5,0,0,0,.223.516l.516.81.516.81.293.377a4.021,4.021,0,0,1,.293.74,9.576,9.576,0,0,1,1.117,1.4l.14.447a.447.447,0,0,1,.223.516l.516.824.53.81a3.574,3.574,0,0,0,.586.81,8.449,8.449,0,0,0,.516.893c0,.14.223.14.293.293s.223.81.67.893c0-.824.81-1.186,1.1-1.787a3.39,3.39,0,0,1,.74-1.256c.363-.307.084-.586.154-.81.377-.447.516-.963.67-1.1.363-.74.516-1.186.879-1.4-.07-.447.223-.516.154-.963,1.186-1.4,1.633-3.546,2.792-5.025a2.261,2.261,0,0,1,.363-1.4,16.04,16.04,0,0,1,.963-2.136,1.242,1.242,0,0,0,.307-.461,3.127,3.127,0,0,0,.447-.963c.14-.293.223-.74.363-1.033l.293-.377a9.231,9.231,0,0,1,.377-.879c.14-.307.516-.447.516-.824a6.63,6.63,0,0,1,.74-2,.321.321,0,0,1,.223-.293v-.363a5.821,5.821,0,0,0,.81-1.4c0-.223,0-.377,0-.6a4.383,4.383,0,0,0,.7-1.047c.154-.14.154-.363.223-.586a22.976,22.976,0,0,0,1.4-2.959c.447-.223.447-1.033.963-1.187a3.015,3.015,0,0,1,.516-1.256l.879-1.843c.084-.084.223-.154.223-.223V72.08c0-.07.154-.154.223-.223a6.979,6.979,0,0,0,.377-1.117l.516-1.1c.14-.223.14-.447.293-.74l.293-.516a12.731,12.731,0,0,0,.81-2.959c.67-1.4,1.256-2.792,1.857-4.3l.879-2.136a4.327,4.327,0,0,0,.6-2.373,6.1,6.1,0,0,1-2.387-.084Z" transform="translate(18.974 20.494)" fill="#773f28"/>
      <path id="Path_38119" data-name="Path 38119" d="M127.363,82.783c0,.447.293,1.186,0,1.549.586.53.223,1.186,0,2a6.4,6.4,0,0,1,0,1.27c-.084.307-.293.433-.363.656s-.154.6-.377.6a3.392,3.392,0,0,1-.293,1.7l-.154.586c0,.154-.209.293-.209.447a2.614,2.614,0,0,1,0,.74c-.07.223-.307.447-.377.656l-.893,2.3a10.5,10.5,0,0,1-1.4,2.582,4.439,4.439,0,0,1,0,.963,5.654,5.654,0,0,0-1.256,1.4,4.872,4.872,0,0,1-.74,1.186,15.741,15.741,0,0,1-1.4,1.1c-.516,0-.447.154-.81,0a5.263,5.263,0,0,1-2.513,1.4,1.787,1.787,0,0,0-.377.223c-.223,0-.447-.084-.586,0a7.608,7.608,0,0,1-1.926.516c-.223,0-.516-.154-.74-.154s-.67.293-1.1.377c-.74.14-1.633,0-2.527.14-.14,0-.209.154-.293.154s-.14-.154-.293-.154-.293.223-.447.223h-.475a2.15,2.15,0,0,0-.67,0,5.262,5.262,0,0,1-2.066.293c-.223-.07-.154.223-.363.223-1.186,0-3.043.293-4.006-.447a1.4,1.4,0,0,1-.949.084c-.223,0-.307-.154-.53-.223H98.8a7.482,7.482,0,0,1-2.889-1.117,2.191,2.191,0,0,0-.67,0c-.656-.363-1.033-.893-2-.963,0-.363-.293-.363-.223-.74-.363.223-.516-.223-.74-.363l-.74-.377a3.6,3.6,0,0,0-.516-.516c-.223-.154-.586-.223-.74-.377a3,3,0,0,1-.586-.726c-.154-.154-.6-.307-.447-.67l-.977-.935c0-.363-.293-.516-.223-.963-.223-.223-.377-.223-.586-.516l-.154-.293c-.293,0-.154-.223-.223-.293l-.586-.81a13.186,13.186,0,0,1-.447-1.4c-.07-.223,0-.293-.07-.516a1.633,1.633,0,0,1-.223-1.256c-.154-.293-.516-.447-.6-.74a15.863,15.863,0,0,0-.223-2.066c0-.447-.516-.824-.293-1.4-.293-.293-.363-.81-.67-1.033.154-.586-.209-1.186-.209-1.926a6.979,6.979,0,0,1,.14-1.1V82.825a7.175,7.175,0,0,1,.447-1.563c0-.516,0-1.033.363-1.173-.363-1.27.447-2.219.447-3.476.223-.154.223-.67.447-.824,0-1.033.516-1.549.67-2.359.516-.223.656-.74.963-1.186.14-.154.293-.154.363-.223s.223-.81.74-.74c.154-.377,0-.223,0-.67.586-.223.81-.81,1.4-1.173l.586-.223.447-.377a6.058,6.058,0,0,0,.67-.67,7.175,7.175,0,0,1,1.256-.81A5.584,5.584,0,0,1,93.96,66.4c.14,0,.363-.363.586-.447a1.773,1.773,0,0,1,.6,0c.293-.154.879-.67,1.4-.363a4.327,4.327,0,0,1,3.113-.893c.363,0,.363-.293.586-.293a15.105,15.105,0,0,1,2.666-.223c.363,0,.74.154,1.033.154a7.287,7.287,0,0,0,1.4-.223c.307,0,.53-.084.74-.084a5.1,5.1,0,0,1,1.787,0,2.6,2.6,0,0,0,.74.307c.209,0,.586-.154.81-.154l.81.293a2.987,2.987,0,0,0,.74.223h.963a3.559,3.559,0,0,1,1.186.377,8.2,8.2,0,0,1,1.186.363,15.508,15.508,0,0,1,3.7.447c.209,0,.516.377.81.516h.363c.07,0,.307.377.447.447s.6.154.447.516a9.771,9.771,0,0,1,2.889,1.857,2.4,2.4,0,0,0,.433,1.173l1.047,1.117c.14.154,0,.447.223.81a11.166,11.166,0,0,0,.879,1.633c0,.74,0,.586.377,1.186s.433,1.4,1.1,1.689c-.07.53.377,1.047.447,1.563a19.617,19.617,0,0,1,0,2c0,.223-.14.447,0,.586,0,.377.154.74.154,1.117S127.363,82.56,127.363,82.783Zm-2.219-3.629c-.516-.363-.516-1.256-.656-2.066-.53-.447-.6-1.4-.824-2.15-.223-.363-.74-.516-.516-1.326-.447,0-.293-.447-.586-.447a10.79,10.79,0,0,0-1.563-1.7,3.406,3.406,0,0,0-1.494-1.857c-.81-.67-1.689-.67-2.136-1.4a7.272,7.272,0,0,0-2.15-.154,10.285,10.285,0,0,0-.963.377,5.067,5.067,0,0,0-.963.293c0-.67-.586-.81-.516-1.549a27.613,27.613,0,0,0-3.1-.447,19.109,19.109,0,0,0-3.476-.363c-.447,0-.74.223-1.186.14s-.293-.223-.6-.223-.293.223-.363.223a2.181,2.181,0,0,0-.586-.14c-.293,0-.963.223-1.4.223s-.516-.154-.67-.154-.293.223-.363.223h-.377a9.939,9.939,0,0,0-1.549.363,2.122,2.122,0,0,1-1.4.223,4.188,4.188,0,0,1-2.317.963c-.154.377-.586.6-.74.74-.893.516-1.4,1.256-2.289,1.4a.879.879,0,0,1-.824.74c0,.53-.516.53-.879.67a22.335,22.335,0,0,0-1.4,2.15c-.14.293-.586.293-.74.586.293.447-.433.893-.586,1.256l-.154,1.48c0,.223-.293.307-.363.447s-.07.6-.154.81a11.431,11.431,0,0,0-.363,1.48.782.782,0,0,1-.084.6,5.876,5.876,0,0,1-.363,1.48,4.774,4.774,0,0,0-.154,1.7c0,.433-.14,1.033-.14,1.4,0,.154.223.377.223.6a3.085,3.085,0,0,0,0,.879,14.9,14.9,0,0,0,.656,1.563c.154.586.084,1.256.223,1.912,0,.154.154.307.223.447a15.35,15.35,0,0,1,.516,1.857,12.715,12.715,0,0,0,.81,2.289c.67,1.48,1.787,2.582,2.443,3.853a2.178,2.178,0,0,1,1.48,1.326,8.375,8.375,0,0,1,2.219,1.256.67.67,0,0,0,.377,0c.07,0,.223.223.223.223.223.154.516.154.74.293s.293.293.447.377a3.853,3.853,0,0,1,.879.14c.447.223.74.74,1.256.81a14.767,14.767,0,0,0,1.7.084c.293,0,.516.293.81.363a5.3,5.3,0,0,0,1.186.154c.293,0,.516-.223.824-.223s.656.154.949.154a2.5,2.5,0,0,1,.74-.223,5.4,5.4,0,0,1,1.186-.084c.447-.07.963-.14,1.117-.14a.489.489,0,0,0,.293.14c.363-.07.67-.293.963-.363a4.443,4.443,0,0,1,.963,0c.963-.586,2.443-.293,3.615-.516l.74-.363c.154-.084.377,0,.6,0s.14-.154.363-.223l.963-.223c.293,0,.6-.293.963-.223.293-.377.893-.516,1.4-.81a3.532,3.532,0,0,1,.6-.447c.223-.154.516-.223.81-.377a10.092,10.092,0,0,0,1.759-3.518,4.817,4.817,0,0,0,.6-.586,3.169,3.169,0,0,1,.879-2,8.487,8.487,0,0,1,1.033-2.959c.223-.223.084-.74.154-1.117s.447-.07.377-.433a31.936,31.936,0,0,1,.74-3.49c.293-2.178-.447-4.4-.084-6.393Zm-3.992,3.853c-.07.223,0,.223,0,.363A10.264,10.264,0,0,1,120.928,85c.223.223-.67,2.219-.74,2.792-.223,1.4.07,2.666-.81,3.7a5.583,5.583,0,0,1-.74,2.513c-.154.154-.154.223-.293.293l-.377.6-.586.963c-.154.223-.516.516-.74.81-.377.586-1.033,1.256-1.549,1.926a3.783,3.783,0,0,0-1.4.74l-.879.586a8.373,8.373,0,0,1-.824.6,2.582,2.582,0,0,1-.879.433,3.853,3.853,0,0,1-1.563.447c-.516.084-1.1-.223-1.619.084a3.532,3.532,0,0,0-2.15-.223c-.67-.223-.963-.53-1.7-.223-1.48-.963-3.322-1.117-4.955-2-.447-.084-.447-.516-.74-.74a2.317,2.317,0,0,1-1.619-1.48,7.971,7.971,0,0,1-2.527-2.443c-.14-.377,0-.377-.14-.81s-.6-.53-.824-.893c.154-.293-.14-.377-.209-.67s0-.656-.084-.879l-.321-.586v-.363c0-.14-.223-.084-.307-.084-.07-.223,0-.516-.07-.74s-.223-.14-.223-.209c-.154-.447,0-1.117-.447-1.48.377-.74-.363-1.27,0-1.926,0-.377-.293-.293-.377-.6.154-.293.223-.81,0-.963.447-.433-.14-1.4.377-2,.07-.363-.307-.433-.223-.81.293,0,0-.67.363-.586-.293-.447.084-.824.154-1.186a2.151,2.151,0,0,0,0-.67,4.355,4.355,0,0,1,.447-.879,3.713,3.713,0,0,0,.447-1.48c.363-.084.363-.377.516-.516l.209-.307c.154-.14.223-.363.53-.586s.14-.07.209-.223.377,0,.307-.447c.586-.14.879-.656,1.4-1.033a8.194,8.194,0,0,0,1.117-1.186c1.1-.586,1.773-1.619,3.322-1.843.377-.084.586-.516.893-.67s.433,0,.656-.14c.447-.084,1.117-.6,1.633-.67a4.383,4.383,0,0,0,.963,0h.81c.223,0,.516.293.81.293.824-.084,1.7-.74,2.792-.6s1.4.963,2.373.893a3.015,3.015,0,0,0,1.117.74,2.931,2.931,0,0,1,2.513,0,1.131,1.131,0,0,0,.447.363c.433.223.949.223,1.4.447s.963.67,1.033,1.033c.67,0,.67.74,1.256.893.154.516.6.81.81,1.256.084.14,0,.293.154.447l.223.209V75.3a7.118,7.118,0,0,1,.6,1.7.5.5,0,0,0,0,.363,8.53,8.53,0,0,0,.223,1.187,4.58,4.58,0,0,0,.433.81,11.167,11.167,0,0,1-.4,3.643Zm-2.373-1.926a3.084,3.084,0,0,0,0-.879c-.14-.963-.656-1.787-.879-2.889a8.516,8.516,0,0,0-.154-1.926c-.363-.14-.293-.586-.516-.81s-.74-.516-.81-.963a8.99,8.99,0,0,1-1.4-.74,6.282,6.282,0,0,1-1.4-.154c-.433-.14-.656-.433-1.033-.516-.74,0-.81.377-1.619.223-.516-.223-.67-.81-1.117-1.1a2.066,2.066,0,0,0-.963-.084c-.293,0-.293-.433-.74-.363a4.341,4.341,0,0,1-2.959.293,2.094,2.094,0,0,0-.879.516c0-.293-.6,0-.81-.14-.824.516-2.01.949-2.792,1.4a.624.624,0,0,0-.516.154c-.154.154-.516.586-.74.81a8.851,8.851,0,0,1-.81.81,2.122,2.122,0,0,1-.516.223c-.893.447-1.4,1.4-2.15,1.7,0,.74-.74,1.1-1.033,1.773s-.293,1.4-.516,1.773l-.223.6c-.363,1.1,0,2.289-.586,3.252.293.14.14.586.223.963s.433.963.209,1.549c0,.154-.293,0-.209.377.209,0,.209.363.293.586a1.661,1.661,0,0,1,.363.586c.084.084,0,.223,0,.377s.516.586.307,1.033c.433.154.363.74.726.893-.209.516.53,1.033.307,1.912l.363.223v.516c0,.209.53.447.53.824.516.14.81.74,1.256,1.1.223.223.433.293.656.516.447.307.67.6.963.824.084,0,.154.209.223.209.293.154.67.154.963.307s.516.433.74.516c.74.293,1.7.14,2.373.879.81,0,1.256.377,2.219.307.363,0,.516.363.949.363a6.616,6.616,0,0,1,.963-.223,7.859,7.859,0,0,1,1.4.154,6.212,6.212,0,0,0,1.549-.67,2.052,2.052,0,0,1,1.4-.586c.084-.447.53-.67.824-.963a4.075,4.075,0,0,0,1.1-1.186,10.067,10.067,0,0,1,.74-.893,19.4,19.4,0,0,0,1.633-2.792,7.817,7.817,0,0,0,.74-1.549v-.586c0-.209.363-.516.14-.67a4.481,4.481,0,0,0,.307-1.773c.516-.516.363-1.186.516-2.08,0-.433.363-.81.363-1.173a15.744,15.744,0,0,0,.154-2.527c.084-.154-.14-.154-.14-.307Z" transform="translate(32.338 24.49)" fill="#773f28"/>
      <path id="Path_38120" data-name="Path 38120" d="M145.479,73.127c-.223.223-.223,0-.433.223s-.223.293-.53.363c-.07,0-.209.154-.363.084-.81-.084-.81-1.033-1.633-1.4a7.8,7.8,0,0,1-1.4,0,13.207,13.207,0,0,0-1.4.516,2.5,2.5,0,0,1-.74.223l-1.326.74c-.377.377-.516.74-.963,1.186a11.7,11.7,0,0,0-1.857,1.4c-.209.293-.209.81-.516,1.173-.07.223-.433.307-.586.516l-.154.307c0,.14-.14.223-.209.293s0,.363,0,.586-.53.67-.377,1.256c-.154.223-.447.377-.516.6s.07.433,0,.586-.223.154-.223.223c-.154.293-.154.586-.293.893s-.293.433-.377.656.084.6,0,.963l-.293.6a8.374,8.374,0,0,1,0,1.4c-.07.67-.363,1.256-.516,2a15.2,15.2,0,0,1,0,1.7c0,.293-.223.586-.223.963-.084.74.363,1.48-.293,2.066a2.792,2.792,0,0,1-.084,2.443c.74,2.066-.363,5.179.223,7.468.223.6,1.117.447,1.563.824,0,.293.363.516.433.963a1.87,1.87,0,0,1-.963,1.619c-.363.154-.74,0-1.48,0a10.962,10.962,0,0,0-1.4.6,16.359,16.359,0,0,1-2.959.74l-1.48.223c-.586.14-1.186.516-1.633.433-.949-.14-1.326-1.173-1.326-2.289a8.586,8.586,0,0,0,.154-1.4,8.376,8.376,0,0,0-.293-1.4,32.007,32.007,0,0,1,0-3.839c0-.377.14-.74.14-1.047a6.183,6.183,0,0,1-.223-1.1,13.8,13.8,0,0,1-.363-2.08c0-.293-.084-.74-.084-1.033a12.564,12.564,0,0,1,.307-1.7c0-.223-.154-.293-.154-.586s.223-1.4.223-2a12.923,12.923,0,0,0-.377-1.773c0-.293.084-.824.084-.893-.084-.293-.223-.447-.223-.67a6.936,6.936,0,0,0-.154-1.843v-.586a9.775,9.775,0,0,1,.293-1.186c.154-.963-.07-2,0-2.959,0-.74.447-1.48.447-2.15v-.963c0-.293.14-.656.14-.963a3.5,3.5,0,0,1-.223-.81,10.689,10.689,0,0,1,.154-2.066,9.868,9.868,0,0,0-.223-1.4,3.14,3.14,0,0,0,0-.81c0-.223-.223-.377-.223-.516,0-.447.293-1.047.293-1.563a4.453,4.453,0,0,1,.154-2.219c0-.516-.377-.74-.586-1.1.363-.81-.154-1.633,0-2.373a1.522,1.522,0,0,1,1.186-.447c.74,0,.949.53,1.4.824a9.548,9.548,0,0,0,2.889,0c.516,0,1.1.14,1.549.14.74,0,1.256-.656,2.373-.293.363.223.293.6.586,1.033,0,.084.223.223.223.307s-.154.209-.154.293.154.223.154.363a4.718,4.718,0,0,0-.223,2.513c.586,0,.893-.433,1.256-.81a5.053,5.053,0,0,0,.67-.67s0-.293.14-.363.293,0,.377-.154a3.687,3.687,0,0,1,.74-.656,3.331,3.331,0,0,0,.963-.824c.879-.14,1.7-1.033,2.792-.656.447-.447,1.7-.963,2.289-.447.377,0,.377-.377.586-.447,1.256.447,2.527-.447,3.7-.154.447.084.67.377.963.53a2.4,2.4,0,0,1,.963.363c.67,1.033.154,2.373.07,3.546-.07.307.084.53.084.74,0,.447-.154.893-.154,1.4,0,1.1.154,2.219.154,3.322A1.309,1.309,0,0,0,145.479,73.127Zm-8.054-6.979c-.67.516-2,.447-2.3,1.4a8.375,8.375,0,0,0-2.792,2.792l-.363.223a1.117,1.117,0,0,0-.223.447c-.223.293-.516.447-.74.74-.154,0-.154.293-.307.447l-.363.363-.447.963c-.447-.14-.447.223-.586.293a1.577,1.577,0,0,1-.74.377c-1.633-.447-.824-2.792-1.256-4.188a2.219,2.219,0,0,0,.14-1.549,6.979,6.979,0,0,0,0-2.15,23.73,23.73,0,0,0-3.922.293v1.549c0,.377-.363.516-.363.893a3.42,3.42,0,0,1,.14,1.926,13.344,13.344,0,0,0,.293,2.666,5.709,5.709,0,0,1,0,1.619c0,.893.154,1.773.154,2.666,0,1.4-.447,2.792-.447,4.188a35.148,35.148,0,0,0,.154,5.583c.14.824.223,1.563.293,2.3a17.614,17.614,0,0,1-.07,2.136c0,.447.07,1.117.07,1.4s-.07.447-.07.6a11.167,11.167,0,0,0,.14,2.429l.223,1.633v1.186c0,.377.223.963.223,1.4s-.223.893-.223,1.4c0,1.033.447,2,.516,2.959a4.8,4.8,0,0,0,2.219,0c.154,0,.293-.293.363-.377a3.434,3.434,0,0,1,.67-.223,10.971,10.971,0,0,1-.447-1.619c0-.293.084-.516.084-.893a4.5,4.5,0,0,0-.084-.963c.084-.586.377-1.173.447-1.843,0-.377-.14-.74-.14-1.117a15.913,15.913,0,0,1,.363-4.732c-.447-.586,0-1.843,0-2.359a2.791,2.791,0,0,0-.14-.53c0-.293.223-.586.293-.949s-.154-.74-.154-1.047.307-.74.377-1.1a15.749,15.749,0,0,0,.293-2.6,6.575,6.575,0,0,1,.223-1.4,9.409,9.409,0,0,1,.586-1.186c.084-.14,0-.447,0-.586s.377-.447.516-.67a10.134,10.134,0,0,1,.893-2.359c0-1.48.893-2.08,1.4-2.889l.377-.447a10.189,10.189,0,0,0,1.4-1.619c.656-.307.949-.963,1.549-1.4a12.564,12.564,0,0,0,1.1-.74,2.01,2.01,0,0,1,.963-.67c.377-.14.67-.363,1.033-.293s.377-.223.53-.223c.586-.293.81-.14,1.4-.14A9,9,0,0,1,143.106,70a14.959,14.959,0,0,0,0-1.773c.07-.74.447-1.4.154-2.15-1.926-1.228-4.216.237-5.835.1Z" transform="translate(46.76 24.012)" fill="#773f28"/>
      <path id="Path_38121" data-name="Path 38121" d="M182.88,85.45c.084.656.293.963,0,1.549-.223.363-.963.516-1.1.81a2.792,2.792,0,0,0-1.773.084c-.67-.53-2.219-.154-2.889-.67a2.094,2.094,0,0,1-.81.223A19.543,19.543,0,0,1,171.867,87h-3.183a6.113,6.113,0,0,1-1.117.14c-.74,0-1.4-.516-2.136-.516a16.862,16.862,0,0,0-1.787.154,6.742,6.742,0,0,1-1.173-.154c-.154,0-.377.154-.53.154a1.4,1.4,0,0,0-.586-.154c-.67,0-1.4.293-1.843-.293a1.633,1.633,0,0,1-1.256.363,5.684,5.684,0,0,1-.893-.14c-.154,0-.377.223-.377.223-.293,0-.74-.293-1.1,0-.154-.223-.74,0-.963-.223s-.223.223-.447.223c-.81-.363-1.48,0-2.289,0a13.371,13.371,0,0,0-2.513-.154,3.964,3.964,0,0,0,.293,3.183c0,.516-.154.74-.154,1.117.084.14.307.14.377.209s0,.307,0,.377a9.768,9.768,0,0,1,1.187,1.326c.447.74,1.256,1.4,1.773,2.219a13.187,13.187,0,0,0,.893,1.186,5.583,5.583,0,0,1,1.926,1.033l.433.223a12.66,12.66,0,0,0,1.563,1.117,7.873,7.873,0,0,0,.963.14c.433.154,1.1.893,1.773.963a5.749,5.749,0,0,1,.656,0,5.43,5.43,0,0,1,1.117.14,2.61,2.61,0,0,0,1.773-.433,5.025,5.025,0,0,0,1.117-.084,1.823,1.823,0,0,0,.07-.293c0-.07.223,0,.293,0s.154-.223.223-.223c.293-.07.67.154.963-.07a1.815,1.815,0,0,1,.74-.377,7.5,7.5,0,0,0,1.4-.879l.949-.6c.963-.586,1.563-1.843,2.443-2.652a4.83,4.83,0,0,1,.893-2.513,3.643,3.643,0,0,1,.67-2.15,1.968,1.968,0,0,1,1.326,0l.963.516c.293.14.586.14,1.186.363.14,0,.293.223.433.223a3.267,3.267,0,0,1,.74.07c.293.07.307.223.447.223.377.084,1.033-.14,1.4,0a.977.977,0,0,0,.293.293,1.4,1.4,0,0,1,.67.6,2.792,2.792,0,0,1-.516,1.619c-.084.223-.154.67-.447.6-.07.363.154.447,0,.879s-.293.447-.363.824a10.987,10.987,0,0,1-.516,1.619l-.516.6a2.945,2.945,0,0,1-1.117.963c.223.433-.447.656-.586.879-.223.6-.824.963-1.48,1.4-.74.67-1.7,1.1-2.373,1.619l-.67.447a2.792,2.792,0,0,1-1.173.824c-.223.14-.307,0-.516.14,0,0-.154.223-.223.223a10.553,10.553,0,0,1-1.7.293c0,.084-.293.223-.293.223l-2.219.447a3.155,3.155,0,0,1-1.563.223c-.223,0-.516-.154-.656-.154s-.67.516-1.117.154c-.363-.154-.154.447-.586.293s-1.117.154-1.7.07a3.491,3.491,0,0,1-.893-.223c-.293,0-.363.154-.516.084a.5.5,0,0,1-.223-.223,18.8,18.8,0,0,1-2.959-.447c-.293-.07-.656,0-.81-.363a2.792,2.792,0,0,1-2.289-.893,3.616,3.616,0,0,1-.824-.223c-.586-.293-1.4-.516-1.773-1.256-.74,0-1.033-.516-1.4-.893a2.233,2.233,0,0,1-1.857-1.1,9.308,9.308,0,0,0-1.1-1.117c-.154-.14,0-.516-.223-.656-.824-.377-1.186-1.186-2.08-1.48-.14-.516-.656-.893-.963-1.4a3.267,3.267,0,0,1-.293-.74l-.516-.586c-.223-.67-.293-1.48-.516-2.219a1.55,1.55,0,0,1-.223-.586c0-.447,0-.893,0-1.27s-.293-.586-.377-.879,0-.963-.07-1.549a8.946,8.946,0,0,1-.223-1.4c0-.67.154-1.4.154-2.15,0-.209-.084-.586-.084-.81.084-.516.447-1.033.516-1.549a1.522,1.522,0,0,0-.14-.6c0-.209.223-.516.07-.726.223-.154.293-.6.377-.824a8.936,8.936,0,0,1,.223-1.186l.293-.209a.726.726,0,0,0,0-.377l.293-.223c0-.14-.07-.363,0-.447a2.79,2.79,0,0,1,.377-.586l.223-.74c.14-.223.293-.293.363-.447s-.07-.447,0-.586.223-.084.293-.223l.377-1.48a2.513,2.513,0,0,1,.963-1.4c-.223-.223,0-.447,0-.67a5.821,5.821,0,0,0,1.186-2.066c.879-.586,1.4-1.619,2.289-2.289a3.266,3.266,0,0,1,.74-.377c.07-.07.07-.14.223-.223s.293,0,.363,0a7.705,7.705,0,0,1,1.48-1.1c.6-.223,2.08-.084,2.6-.74a3.741,3.741,0,0,0,1.7-.6,2.9,2.9,0,0,1,1.689-.433,4.774,4.774,0,0,0,2.01-.154,7.077,7.077,0,0,1,1.4-.223c.154,0,.377.154.6.154.81,0,1.48,0,2.513.07.516,0,.963-.223,1.549-.223.084,0,.154.154.307.154a2.387,2.387,0,0,1,1.1,0,3.309,3.309,0,0,1,.74.223c.516,0,.81.293,1.256.516.223.14.6.14.81.293a4.439,4.439,0,0,1,.893.363c.586.223,1.256.293,1.48.963.223.07.363,0,.586.154a6.686,6.686,0,0,1,1.4.963c.363.293.74.963,1.256,1.256.07.293.293.433.363.81.824.447,1.256,1.4,2.219,1.7.307.67.824,1.033.893,1.843l.74,1.117c0,.223.447.516.516.81a4.9,4.9,0,0,0,.74,1.48,4.439,4.439,0,0,1,.81,1.186l.154,1.186.363.963c.154.74,0,1.48.084,2.289l.223,1.773a4.889,4.889,0,0,0,.07.963c0,.293.223.516.223.74S182.88,85.255,182.88,85.45Zm-3.029-3.406a1.983,1.983,0,0,0,.237-.977c0-.293-.223-.74-.223-.963.14-.586.433-.293.14-.67s-.14-1.033-.223-1.173a2.456,2.456,0,0,0-.586-.963c-.07-.223-.07-.377-.223-.516a6.109,6.109,0,0,0-.586-.6c0-.07.07-.293,0-.363-.307-.223-.223-.377-.307-.516a6.2,6.2,0,0,1-.586-1.033c-.223-.223.154-.447,0-.893-.447.14-.447-.377-.586-.6l-.307-.209a1.228,1.228,0,0,1-.209-.516c-1.047-.223-1.48-.963-2.3-1.494,0-.433-.363-.726-.516-1.033a5.766,5.766,0,0,0-.74-.963c-.586-.586-1.7-.74-2-1.619-.74,0-1.1-.447-1.773-.154a14.84,14.84,0,0,0-1.549-.67c-.223,0-.377-.209-.6-.209a9.632,9.632,0,0,1-1.4-.084,7.229,7.229,0,0,0-1.186-.14,5.932,5.932,0,0,1-1.549.223c-.307,0-.53-.154-.824-.154l-1.256.223-2.513.293L157,66.494l-.363.223-.447.154a3.043,3.043,0,0,1-1.926.293c-.447.74-1.4.74-2.066,1.173-.223.307-.377.223-.447.307l-.516.363-.74.447a.476.476,0,0,0-.377.154c-.433.363-.516.949-1.1,1.173,0,.307-.223.447-.223.824-.377,0-.447.447-.6.656a17.059,17.059,0,0,0-1.033,1.787,5.724,5.724,0,0,0-.433.949,6.658,6.658,0,0,0-.154,1.4c-.223.586-.893,1.033-.81,1.773-.67.377-.824,1.4-1.117,2a2.066,2.066,0,0,0-.363.67,14.684,14.684,0,0,1-.489,3.029c.586.6.223,1.4.223,2.3a18.154,18.154,0,0,0,.223,2,4.191,4.191,0,0,0,0,.963,5.863,5.863,0,0,0,.07,1.1c0,.154.223.223.223.377a2.068,2.068,0,0,0,0,.656l.223.516a5.822,5.822,0,0,1,.586,1.926l.893.963a2.513,2.513,0,0,0,.74.81,3.532,3.532,0,0,1,.67.74c.07.154.293.084.517.154a8.376,8.376,0,0,0,1.033,1.1l.223.377a2.359,2.359,0,0,0,.81.586,3.755,3.755,0,0,0,1.256.74,2.973,2.973,0,0,0,.74.893c.377.223.893.223,1.4.516l.656.586c.307.223.74.223.824.6.656,0,1.256.447,1.7.516a2.066,2.066,0,0,0,.656,0c.377.154.6.363.963.363a2.792,2.792,0,0,0,1.186,0s.223.223.223.293a3.155,3.155,0,0,0,1.48-.14c.963.74,2.959.293,4.062.14a.838.838,0,0,1,.447,0c.223,0,.293-.223.516-.223l1.186-.209c.363-.084.893,0,1.256-.084s.81-.447,1.256-.586h.377a5.317,5.317,0,0,0,1.033-.6c.293-.293.516-.223.586-.293.293-.293.447-.586.74-.879l.74-.447.377-.223a19.462,19.462,0,0,1,1.926-1.256c.209-.67.81-.893.879-1.633a3.113,3.113,0,0,0,1.4-2.359c.293-.293.363-.447.223-.963-.223-.223-.824-.154-1.186-.154-.447-.223-.67-.516-1.326-.516a12.2,12.2,0,0,0-.377,1.7c0,.223-.293.293-.377.586a4.185,4.185,0,0,1-.14.824,1.479,1.479,0,0,0-.377.447l-.433.726-.74.893c-.6.586-.893,1.256-1.48,1.633-.154.14-.377.14-.6.293a3.39,3.39,0,0,0-.516.293l-1.186.586c-.14.084-.293,0-.363,0s-.154.154-.223.223l-1.256.6c-.377.14-.6.447-1.186.293-.363.447-.963.363-1.4.586l-.516.223c-.223,0-.447-.14-.74-.14s-.447.223-.656.223a15.019,15.019,0,0,1-4.076-.307c-.963-1.256-3.406-1.1-3.992-2.582a3.029,3.029,0,0,1-1.117-.517c-.14-.293-.363-.223-.433-.293-.6-.223-.824-.67-1.4-.824,0-.879-1.4-1.033-.893-1.843a3.378,3.378,0,0,1-.963-.223,2.289,2.289,0,0,0-.726-.963c-.084-.67-.754-.81-.67-1.633-.893,0-.893-1.033-1.4-1.549,0-.293.377-.363.377-.74a2.5,2.5,0,0,1-.893-1.619c-.07-.307.154-.6.154-.893s-.223-.74-.223-1.186c-.084-1.033.363-2,.14-2.889.67-.656,1.7-.516,3.113-.516.293,0,.447.084.67.084a23.375,23.375,0,0,1,2.429,0c.67,0,1.4.14,1.857.14s.81-.14,1.256-.14.516.223.74.223.963-.223,1.117-.223a8.376,8.376,0,0,0,1.4-.084c.293,0,.74.154,1.033.154.963.07,1.7,0,2.443,0a.977.977,0,0,0,.447.14c.223,0,.447-.14.586-.14s.6.293.824.293c.516,0,.879-.223,1.326-.223s1.256.223,1.926.293c.293,0,.67-.14.963-.14a10.6,10.6,0,0,1,2,.433c.447,0,.447-.363.893-.363a31.421,31.421,0,0,0,4.872.516,7.315,7.315,0,0,0,3.113,0,4.327,4.327,0,0,0-.265-2.848Zm-4.188-1.48c-.07.516,0,1.033-.516,1.4-1.48.209-3.406-.377-4.886.209a4.383,4.383,0,0,0-2.289-.293c-.81.084-1.843-.14-2.792-.14a3.629,3.629,0,0,1-2-.154,1.773,1.773,0,0,1-1.7,0,3.825,3.825,0,0,1-1.843.447c-.223,0-.447-.223-.6-.223a7.609,7.609,0,0,0-1.256.07c-.154,0-.363-.154-.586-.154s-1.047.223-1.4-.14c-.223,0-.377.223-.586.223a2.7,2.7,0,0,0-.824,0,10.6,10.6,0,0,1-1.326.433c-.447.07-1.186,0-1.926.084l-.586.223-.74.14a4.955,4.955,0,0,1-1.4.154c-.516,0-.74-.6-1.033-.963a2.61,2.61,0,0,1,.154-1.4,5.735,5.735,0,0,0,.14-1.27c0-.14.447-.209.154-.586l.447-.74a4.188,4.188,0,0,1,1.033-2.582c.154-.307.07-.67.154-.963,0,0,.209-.154.209-.223V73.6a.433.433,0,0,0,.307-.084,1.047,1.047,0,0,1,.14-.586c.154-.223.516-.447.67-.74a3.77,3.77,0,0,0,.67-.81l.363-.293.81-1.186a12.87,12.87,0,0,1,2.443-.67c.293,0,.447-.363.74-.447a1.573,1.573,0,0,0,.67-.14,7.286,7.286,0,0,1,1.7-.447c.363,0,.74.14,1.186.14h.81c.586,0,1.1.447,1.549.154l.74.363.6.377c.586.14,1.173,0,1.773.14l.586.223a1.4,1.4,0,0,0,.74.154,6.8,6.8,0,0,0,1.187.74,8.375,8.375,0,0,0,1.4.447c1.1,1.033,2.359,2,3.476,3.029a12.115,12.115,0,0,1,1.326,1.256c0,.223.154.154.223.223s.223.447.447.447c0,.586.447,1.033.656,1.619.154.154.084.307.154.447s.447.74.6,1.117a5.416,5.416,0,0,1,.084,1.494Zm-3.406-2.513c-.209-.154,0-.377-.07-.6s-.67,0-.363-.433c-.307-.307-.893-.377-.824-.963-.433,0-.586-.447-.74-.516l-.293-.154c-.363-.293-.447-.81-.81-1.1s-.74.209-.74-.377a3.462,3.462,0,0,1-2.959-1.48,18.594,18.594,0,0,1-2.959,0c-.67-.433-1.256-.223-2.15-.433-.363-.084-.223-.6-.74-.6-.656.293-1.256-.223-2-.293a10.958,10.958,0,0,1-2.513.81c-.447.154-1.186,1.117-1.48,1.4L151.7,75.6c.084.6-.223.81-.14,1.4-.67.516-.824,1.619-1.047,2.582a15.242,15.242,0,0,0,2.527-.154,4.356,4.356,0,0,1,.949,0c.223-.07.377-.223.6-.223.879,0,1.843.07,2.792,0a6.533,6.533,0,0,1,2.666.07,8.543,8.543,0,0,1,3.546-.14c.154,0,.154-.154.377-.154s.14.154.363.154.293.223.586.14c2.219-.363,5.039.223,7.775-.209a.81.81,0,0,0-.377-1.005Z" transform="translate(54.99 24.196)" fill="#773f28"/>
      <path id="Path_38122" data-name="Path 38122" d="M200.3,93.852a8.054,8.054,0,0,1,.07,2c0,.154-.07.377-.07.6a5.151,5.151,0,0,1-.67,1.4,12.187,12.187,0,0,0-1.033,2.792c-.377.154-.516.6-.81.963s-.67.516-.74,1.033c-.516.084-.67.516-.963.824h-.377c-.084,0-.07.293-.14.363a.837.837,0,0,1-.6.223c-.14.447-.586.6-.963.824a10.154,10.154,0,0,1-1.1.74h-.81a4.524,4.524,0,0,0-.6.363l-1.48.154a7.705,7.705,0,0,1-2.359.223c-.223,0-.447-.223-.74-.223a4.746,4.746,0,0,1-1.186-.293l-.447-.154a8.374,8.374,0,0,0-1.4-.516c-.209,0-.293.154-.516.154s-.223-.223-.363-.293l-1.4-.377a3.754,3.754,0,0,0-.963-.223,1.577,1.577,0,0,0-1.284-.6,4.187,4.187,0,0,0-.74-.879c-.223-.223-.74-.154-.81-.6a2.715,2.715,0,0,1-.81-.14c-.377-.307-.53-.824-1.186-.893-.154-.893-.893-.81-1.187-1.4a7.581,7.581,0,0,1-.07-1.256,3.043,3.043,0,0,1,.74-1.48c.363-.447.656-.656,1.033-1.186l.237-.544a9.07,9.07,0,0,0,.74-.656,7.342,7.342,0,0,0,.516-1.4c0-.223.293-.377.363-.6s-.14-.586.154-.81a2,2,0,0,1,1.256-.586c.963,0,1.633,1.033,2.289,1.4-.14.377.223.516.293.74a3.615,3.615,0,0,0,.223.824c.516.879,1.48,1.256,2.15,2a9.032,9.032,0,0,0,3.769.433,5.247,5.247,0,0,1,.963-.07,8.824,8.824,0,0,0,1.549-.963,10.092,10.092,0,0,1,.53-1.7l.14-.81a2.233,2.233,0,0,0,0-1.926,1.926,1.926,0,0,0-.447-.6c-.879-1.173-2-1.843-2.443-2.792-.516-.154-1.186-.293-1.4-.893a15.172,15.172,0,0,1-2.959-.949c-.293-.154-.67-.154-.893-.307s-.447-.586-.879-.516c-.223-.586-.963-.81-1.256-1.4a3.42,3.42,0,0,1-.824-.154c-.07-.363-.516-.154-.74-.293a2.629,2.629,0,0,1-.363-.223A8.92,8.92,0,0,1,178.051,82c-.084-.154,0-.363-.084-.516s-.656-.586-.81-.963,0-1.1-.586-1.48a3.532,3.532,0,0,0-.223-1.4,7.2,7.2,0,0,1-.293-1.173c0-.447.223-1.047.223-1.563s0-1.4.07-2.066c0-.154.14-.154.14-.293s-.14-.154-.14-.293.223-.223.293-.447a6.978,6.978,0,0,1,.223-1.926,7.207,7.207,0,0,1,.67-1.033,5.346,5.346,0,0,1,1.7-2.15c.293-1.1,1.256-1.48,1.689-2.443a2.652,2.652,0,0,0,1.256-.433,3.35,3.35,0,0,1,1.857-.447,2.443,2.443,0,0,0,1.033-.6c.293.293.6-.14.67-.223.293,0,.447.084.74.084.07-.084.07-.223.223-.307s.363.084.516.084a5.248,5.248,0,0,1,2.359-.223,1.2,1.2,0,0,1,.74.223c.154.223.307,0,.67.14l.377.307a2.512,2.512,0,0,1,.81.363c.293.154.447.377.74.447a3.017,3.017,0,0,1,1.033.447,8.4,8.4,0,0,0,1.4,1.033c.084.14.377.223.447.293s.154.377.223.447a3.113,3.113,0,0,1,.6.74c.223.363.293.963.586,1.186.67.223,1.48.293,1.773.879a2.471,2.471,0,0,1-.14.963,3.6,3.6,0,0,1-1.047,1.549l-.363.223v.377a1.745,1.745,0,0,0-.516.586c-.223.154-.53.293-.53.6-.363.586-.963,1.1-1.4,1.7-.223.209-.223.586-.516.586a1.4,1.4,0,0,1-1.633-.74c-.154-.377-.74-.377-.586-.963-.516,0-.824-.516-1.186-.893h-.377c-.084,0,0-.293,0-.363s-.293-.084-.363-.154l-1.117-.516c-.223,0-.447-.293-.67-.377a4.774,4.774,0,0,1-1.7-.516c-.586.447-1.173.377-1.619.67a4.076,4.076,0,0,0-.81,3.629l.209.223c.307.586.154.656.67,1.1l.516.223a27.386,27.386,0,0,0,2.666,1.633c0,.516.586.656.586,1.173.307,0,.377.154.6.293s.586.223.963.447c0,.084.07.223.07.307s.293-.084.363,0c.447.209.67.81,1.047,1.033s.656.223.963.433a6.323,6.323,0,0,1,2,1.7c.363,0,.586.307.81.447a4.187,4.187,0,0,1,1.117.893,2.792,2.792,0,0,0,1.033.74,18.408,18.408,0,0,0,1.7,2.513c0,.363,0,.74-.154.893.67.516.516,1.4.67,2.136s.879,1.256.586,2.3a.74.74,0,0,0-.516.293Zm-2.889-2.219c-.14-.67-.07-1.4-.223-1.926a4.187,4.187,0,0,0-.656-1.1c-.084-.154-.084-.293-.154-.377s-.154-.14-.223-.223a6.347,6.347,0,0,0-.363-.586c-.377-.447-.963-.67-1.117-1.256a1.815,1.815,0,0,1-.963-.154c-.293-.363-.74-.656-.81-1.326a5.988,5.988,0,0,1-3.629-2.289,4.927,4.927,0,0,1-2.513-2c-.516-.223-1.1-.377-1.256-.963-1.186-.154-1.549-.824-2.219-1.4a8.7,8.7,0,0,1-1.117-.963l-.433-.81a5.388,5.388,0,0,1-.447-1.4c-.154-1.619.81-2.792.81-4.648a5.988,5.988,0,0,1,1.857-1.787c.363-.14.293.154.586.084,0-.084.154-.223.223-.307a6.98,6.98,0,0,1,2.066-.293c.307,0,.6.223.963.293s.824,0,1.033.154a3.043,3.043,0,0,0,1.186.223,9.869,9.869,0,0,0,2.373,1.4,2.373,2.373,0,0,0,1.549,1.4,5.025,5.025,0,0,0,1.48-2c-.293-.223-.74-.154-.879-.516-.223-.6-.67-.963-.754-1.7-.516,0-.81-.377-1.173-.6a3.42,3.42,0,0,1-1.117-.726c-.879-.084-1.326-.6-2-.893-.447,0-.81.293-1.4.363a6.38,6.38,0,0,0-1.187-.07c-.154,0-.293.154-.447.223l-.586.154a12.771,12.771,0,0,0-1.857.516l-1.926.963a11.657,11.657,0,0,1-1.4,2l-.67,1.033a9.49,9.49,0,0,0-.74,1.033,4.813,4.813,0,0,1-.07.963l-.293.81-.154,1.787c0,.209-.223.293-.223.363a.544.544,0,0,1-.07.516,3.169,3.169,0,0,0,.6,2.373,3.155,3.155,0,0,0,1.256,2.443c.433.433.963.433,1.033.586s.74.293.81.363a5.416,5.416,0,0,0,.963.74,6.981,6.981,0,0,1,.74.6c.07.14.293.14.447.293s.586.293.81.586a11.879,11.879,0,0,1,3.769,1.4c.223.293.307.223.377.223a.572.572,0,0,0,.14.293c.377.293.824.377,1.117.6s.516.879,1.1.879c.447.893,1.563,1.633,2.219,2.666a.935.935,0,0,0,.223.447,7.2,7.2,0,0,1,.516,1.549,2.625,2.625,0,0,1-.14,1.549l-.154,1.117c0,.14-.293.363-.363.586a2.791,2.791,0,0,0-.154.81,2.512,2.512,0,0,0-.586,1.4,4.341,4.341,0,0,1-.963.447c-.154.223-.07.586-.293.656a4.634,4.634,0,0,1-3.476,1.4,1.871,1.871,0,0,1-1.787.154c-.363-.084-.74-.377-1.173-.447a13.413,13.413,0,0,0-1.563-.154L183.3,98.7a10.262,10.262,0,0,1-1.4-.81l-.363-.14c-.084-.084,0-.377-.377-.223-.363-.516-.447-1.4-1.256-1.48-.293,0-.516.363-.74.586l-.586.67a3.95,3.95,0,0,0-1.117,1.549c.447.81,1.4,1.117,2,1.7a16.746,16.746,0,0,0,2,1.256c.084,0,.154.223.223.223a10.55,10.55,0,0,0,1.7.293c.67.154,1.4.74,2.15.67,1.4,1.1,3.769.223,5.7.586.154-.447.447-.586,1.033-.447a10.581,10.581,0,0,1,1.48-1.549c.223-.154.293-.363.516-.586s.447-.154.6-.293.07-.307.14-.377.293-.154.377-.223c.293-.447.363-.879.81-1.186a.6.6,0,0,1,.293-.74l.6-1.4a4.983,4.983,0,0,0,.516-2,6.671,6.671,0,0,0,.14-1.7c.209-.433-.154-.935-.307-1.452Z" transform="translate(68.279 23.779)" fill="#773f28"/>
      <path id="Path_38123" data-name="Path 38123" d="M260.856,68.771c0,.516.07,1.033.07,1.563,0,.879-.223,2-.293,3.169a8.374,8.374,0,0,1-.293,2.666,11.961,11.961,0,0,1,0,3.183c0,.363.14.74.14,1.117a.9.9,0,0,0-.14.433c0,.223.14.307.07.516a8.8,8.8,0,0,1-.377,1.4,6.74,6.74,0,0,0,0,1.187l-.293,1.186a33.293,33.293,0,0,1-.516,3.839c-.07.154-.223.223-.293.447-.154.516-.223,1.186-.377,1.773l-.516,1.7q-.391,1.267-.656,2.568a10.3,10.3,0,0,1-.377.963,8.8,8.8,0,0,1-.516,1.173l-.377.6c0,.223-.209.14-.209.223a1.361,1.361,0,0,1-.154.363c-.07.154-.154,0-.223.223a19.684,19.684,0,0,0-1.1,1.773l-.223.223a1.522,1.522,0,0,0-.377.586,8.068,8.068,0,0,1-1.605,1.745c-.307.293-.74.516-1.117.824-.07,0,0,.293-.07.363s-.293.07-.377.154c-.363.293-.656.74-1.033.879a2.457,2.457,0,0,1-1.619.377,7.272,7.272,0,0,1-3.783,1.4,1.535,1.535,0,0,1-.81-.74c-.447,0-.586.447-1.033.447s-.74-.223-1.117-.223a15.424,15.424,0,0,1-3.559-.181c-.223,0-.377-.14-.586-.209a3.517,3.517,0,0,0-1.926-.307c-.293-.433-.963-.433-1.4-.74-.154,0-.293-.363-.447-.433s-.586-.223-.516-.516c-.223,0-.363-.223-.586-.377s-.516-.07-.293-.516a1.521,1.521,0,0,1-.963-.223c-.307-.154-.307-.586-.824-.516-.14-.377-.586-.377-.586-.81-.516,0-.67-.447-1.033-.53a5.82,5.82,0,0,0-1.926-1.843,4.581,4.581,0,0,1-.893-.74,6.883,6.883,0,0,1-.81-1.4l-.516-.447c-.154-.223-.154-.447-.293-.586s-.447-.223-.6-.447l-.14-.307a2.708,2.708,0,0,1-.67-1.466,2.792,2.792,0,0,1-.586-.74c.223-.447-.223-.754-.293-1.186-.223-.824-.154-1.787-.307-2.513a4.091,4.091,0,0,0-.586-1.186c0-.377.223-.377.154-.74s-.377-.377-.53-.6a2.192,2.192,0,0,0-.363-1.689c.447-1.047-.516-2.01-.223-2.973a2.5,2.5,0,0,0,.07-1.1,3.783,3.783,0,0,1,.084-1.522c.07-.307-.293-.67-.377-1.033s.307-1.4.307-2.08c0-.363-.154-.67-.084-.963s.307-.516.377-.81c-.223-1.117,0-1.926-.223-2.959,0-.447.447-.223.516-.447.07-.447-.223-.516-.223-.879a7.846,7.846,0,0,0,.67-1.787,5.1,5.1,0,0,1,0-1.033c0-.293.223-.447.223-.74a2.494,2.494,0,0,1,.07-1.033,1.48,1.48,0,0,1,.447-.963,3.029,3.029,0,0,1,0-2.289c.516-.293,1.256-.223,1.689-.516.154.223.824,0,.824.363.14-.363.516-.07.74-.14a3.161,3.161,0,0,1,.963-.223H228.9a1.466,1.466,0,0,1,.307.586,3.266,3.266,0,0,1,.433,1.773,36.674,36.674,0,0,1,0,5.109c0,.377.154.74.154,1.1a15.424,15.424,0,0,0-.154,1.787,5.335,5.335,0,0,0-.14.963,3.8,3.8,0,0,0,.223.74c.07.656.07,1.773.07,2.136-.154.824.223,1.563-.07,2.219.74,1.117.516,2.666.586,4.188a15.586,15.586,0,0,1,.363,2.08c0,.14-.14.363-.14.586s.223.516.223.81a10.944,10.944,0,0,0,0,3.113,7.3,7.3,0,0,0,.447,1.187,5.762,5.762,0,0,0,.447,1.187,2.386,2.386,0,0,0,.586.656,2.233,2.233,0,0,0,.447.6c.293.363.586.879,1.186.963,0,.363.223.586.293.879a11.977,11.977,0,0,1,1.186.223c.223.363.656.516.81.893a1.675,1.675,0,0,1,1.187.433c.586-.209,1.1.307,1.912.307.307,0,.893-.223,1.186-.223a1.145,1.145,0,0,0,.74,0,19.641,19.641,0,0,0,3.043-.893c.14-.14.07-.293.209-.363a1.376,1.376,0,0,0,.6-.377c.154-.223,0-.223.14-.363.377-.447.824-.893,1.186-1.4a2.568,2.568,0,0,0,.67-.81,4.258,4.258,0,0,1,.81-1.187,5.066,5.066,0,0,1,.893-2.219c0-.586,0-1.1.363-1.4-.14-.377.154-.6.084-1.186,0-.293.363-.447.516-.81s-.084-.67.223-.824a6.979,6.979,0,0,1,0-3.908c.07-.447.363-.824.363-1.186s-.14-.516-.07-.74a8.238,8.238,0,0,0,.293-.963,13.691,13.691,0,0,0-.14-1.4c0-.293.14-.656.14-1.033a9.033,9.033,0,0,0-.223-1.48c0-.363.154-.74.154-1.186a12.141,12.141,0,0,0,0-1.549c0-.363.14-.74.14-1.186s-.07-.656-.07-.949.377-.893.154-1.4c0,0-.377-.223-.377-.377s.223-.293.154-.433a2.429,2.429,0,0,1-.377-.67c0-.084-.07-.447-.07-.447,0-.223.14-.223.14-.447a4.021,4.021,0,0,1-.209-.879c-.084-.084,0-.154,0-.377s-.154-.14,0-.293.14-.293.209-.516,0-.293.154-.447c.67-.74,2.666-.293,4.188-.516a2.527,2.527,0,0,1,.67-.223h.963c.586,0,1.256-.516,1.926,0a1.7,1.7,0,0,1,2.359.154c.293.363.223.586.377,1.186a3.574,3.574,0,0,1,.07,1.256,15.355,15.355,0,0,0,.223,1.773A13.507,13.507,0,0,1,260.856,68.771ZM257.8,64.807a45.294,45.294,0,0,0-5.095.74c-.223.81.293,1.633.363,2.513.154,1.256,0,3.183.084,4.369,0,.293-.154.586-.154.81a3.223,3.223,0,0,0,.223.893v1.4a14.6,14.6,0,0,1,0,1.7,10.66,10.66,0,0,1-.516,1.633c0,.223.14.516.14.74s-.14.363-.363.74c.516.67.07,1.7.07,2.792a29.926,29.926,0,0,1-.363,3.7c-.084.293-.377.516-.516.81s.14.223.14.377a1.689,1.689,0,0,1-.516.879c.377.824-.363,1.187-.293,2.08-.67,1.033-1.4,2.289-2.219,3.476a4.692,4.692,0,0,1-.754,1.061c-.223.154-.223.516-.377.67a7.32,7.32,0,0,0-.74.74l-.223.447c-.14.14-.14.223-.363.363s-.893.223-1.4.447-.74.516-1.186.586-.377-.363-.74-.363c-.084.363-.154.81-.6.81-1.48.293-4.285.824-5.472-.293a2.5,2.5,0,0,1-1.7-.223,15.523,15.523,0,0,1-2.289-1.48c-.223-.223-.293-.516-.516-.656a1.745,1.745,0,0,1-1.033-.447c-.223-.154-.377-.223-.447-.377a7.316,7.316,0,0,0-.74-.74,8.959,8.959,0,0,1-.963-.963,27.723,27.723,0,0,1-1.4-2.959c-.154-.516.07-.963,0-1.48a2.3,2.3,0,0,0-.223-.74c.223-.433.07-.586.07-.586v-.893c0-.293-.223-.433-.223-.586s.154-.447.154-.67a2.038,2.038,0,0,1-.223-.656,3.827,3.827,0,0,1,0-.893c-.154-1.4-.293-2.513-.377-3.629a7.734,7.734,0,0,0-.363-1.912c.223-.154.07-.53.293-.67a9.777,9.777,0,0,1-.363-.963,5.948,5.948,0,0,0,0-1.117c0-.363-.084-.74-.084-1.1s.223-.516.307-.81c0-.516-.377-1.117-.377-1.633,0-.293.154-.67.154-.963a5.858,5.858,0,0,1,.07-1.1,2.526,2.526,0,0,1,.223-.67,7.8,7.8,0,0,0-.07-1.843c0-.223.14-.307.14-.447s-.14-.447-.14-.6a11.837,11.837,0,0,0-.154-2.289,6.016,6.016,0,0,0-2.15.293,30.138,30.138,0,0,0-1.1,5.472c-.447.516-.516,1.4-.893,1.926-.07.447.223.447.223.81-.223.223-.07.824-.223,1.117.377.74,0,1.4-.07,2,0,.154.14.223.07.516,0,.74-.293,1.7-.363,2.6.14.293.14.656.293.963-.377.586-.154,1.773-.154,2.513,0,.293-.14.586-.14.963,0,.14.14.293.223.433.363.963.209,2.15.516,3.043a3.811,3.811,0,0,1,.433.963,7.859,7.859,0,0,1,.223,1.4c.154.447.447.893.6,1.4a6.45,6.45,0,0,1,.07,2c.223.447.893.363.67,1.1.433.084.586.516.81.74a3.629,3.629,0,0,1,1.4,2.289,8.947,8.947,0,0,1,2,1.27c.656.516.81.949,1.326,1.173a8.989,8.989,0,0,0,3.029,2.15,5.891,5.891,0,0,0,3.42,1.954s.14-.223.293-.154a.963.963,0,0,0,.67.377,22.25,22.25,0,0,0,4.8.377h1.186a5.583,5.583,0,0,0,2.136-.223l1.4-.447c.447-.154.67-.223.81-.447s.516-.154.6-.293.07-.293.14-.377a4,4,0,0,0,.6-.516,7.425,7.425,0,0,0,1.326-1.326c.293-.377.67-.6.74-.893s.07-.447.293-.586a1.564,1.564,0,0,0,.586-.447,4.481,4.481,0,0,1,.6-1.186,2.01,2.01,0,0,0,.516-.81l.223-.363a10.6,10.6,0,0,0,.81-1.787c.223-.586.293-1.033.516-1.773a2.528,2.528,0,0,1,.223-.67,8.9,8.9,0,0,0,.447-2.066c.223,0,.154-.447.223-.586a.684.684,0,0,0,.223-.67c.07-.223.223-.293.293-.516s-.154-.67-.154-1.033l.307-.824c.07-.433-.084-.879,0-1.173a.726.726,0,0,1,.293-.377c.07-.293-.084-.516,0-.74a5.214,5.214,0,0,0,.363-.963,1.507,1.507,0,0,0,0-1.033,2.121,2.121,0,0,1,.154-.517c0-.81,0-2.08.07-3.183,0-.293.223-.516.223-.81s-.07-.293-.07-.516c0,0,.223-.307.14-.447-.223-.447-.363-.377-.363-.74,0-.6.363-1.633.447-2.513,0-.154-.154-.223-.154-.377s.154-.223.154-.447v-1.1c.07-.6.363-1.4.14-1.857C257.589,68.408,258.329,66.412,257.8,64.807Z" transform="translate(86.158 23.705)" fill="#773f28"/>
      <path id="Path_38124" data-name="Path 38124" d="M296.165,55.135a.838.838,0,0,1,0,.586c-.293.893.223,2.443-.447,3.336.293.516-.07,1.186-.154,1.773-.14,1.033.223,2.289-.223,3.029.154.307.154.74.377.963-.223.963-.07,1.857-.223,2.959a15.042,15.042,0,0,0,0,1.773c0,.223-.154.447-.154.6,0,.363.223.81.223,1.186s-.14.516-.14.74c0,.586.223,1.173.223,1.773s-.084,1.549-.084,2.066a6.382,6.382,0,0,0,.223,1.773c0,.53.084,1.4.084,1.787s-.154.293-.154.516c0,.656.154,1.48.223,2.136,0,.307-.154.516-.154.824a5.109,5.109,0,0,0,.223.74,8.45,8.45,0,0,1,.07,1.4.489.489,0,0,1-.14.293c0,.377.223.447.223.74a25.127,25.127,0,0,1-.223,5.248c0,.377-.154.74-.154,1.047,0,.879.516,2.219.084,3.252-.154.363,0,.586,0,1.186a2.7,2.7,0,0,0-.084,1.1c.154,0,0,.74,0,1.033s.223.74.223,1.117a14.887,14.887,0,0,1-.293,1.549c0,.223.154.377.154.67,0,0-.223.223-.154.363.07.447-.07,2-.07,2.513a20.228,20.228,0,0,1,.07,3.559,2.094,2.094,0,0,1-2.219.363,3.169,3.169,0,0,0-1.4-.516c-.81,0-1.843.377-2.289.293-.223,0-.516-.586-.81-.363.14-.74-.307-.893-.447-1.4s.14-.586.14-.81c-.363-.656.084-1.4-.433-1.926a1.608,1.608,0,0,0-.963.307,7.58,7.58,0,0,0-2.792,1.843c-.6.154-.963,0-1.4.447-.586.14-1.186.14-1.48.447-.879-.084-1.912.516-2.875.447-.307,0-.824,0-1.047-.377-.949.81-2.959.586-4.062,1.186-.447,0-.586-.223-.963-.223s-.363.223-1.1.223a11.336,11.336,0,0,1-1.633-.447,12.912,12.912,0,0,0-1.549-.154c-.377,0-.74.154-1.117.154l-1.4-.293c-.07,0-.209.14-.363,0a6.978,6.978,0,0,1-1.186-.223,3.7,3.7,0,0,1-.656-.516.667.667,0,0,1-.516-.154c-.53-.209-1.187-.726-1.857-.949a4.7,4.7,0,0,0-.586-.74c-.307-.223-.307-.6-.447-.74a16.16,16.16,0,0,1-1.4-1.117.6.6,0,0,0-.209-.447,6.935,6.935,0,0,1-.824-.74,9.619,9.619,0,0,1-.586-.879c-.223-.223-.67-.293-.963-.6a1.633,1.633,0,0,0-.67-.74c-.14-.74-.879-1.173-1.186-1.912-.07-.307,0-.67-.07-1.047-.223-1.173-1.033-2.136-1.1-3.252,0-.516.293-1.186.293-1.549s-.223-.516-.223-.74a8.071,8.071,0,0,1,.154-1.4V88.72l.293-1.4a8.836,8.836,0,0,1,.74-2.6,8.122,8.122,0,0,1,.07-1.926,4.9,4.9,0,0,1,.74-1.549c.154-.293.223-.74.377-1.033.07-.07.209-.07.209-.223a7.816,7.816,0,0,1,1.047-2.373,3.924,3.924,0,0,0,.516-.963,5.206,5.206,0,0,1,1.549-2c0-.293.07-.586.07-.81a2.875,2.875,0,0,0,.963-.74c.154,0,.154-.293.377-.447s.293,0,.447-.223.209-.363.363-.433a11.754,11.754,0,0,0,.893-.824,4.915,4.915,0,0,1,.209-.516h.377l.154-.293c.07-.084.223,0,.363-.084a1.3,1.3,0,0,1,.447-.363c.223-.293.363-.223.516-.293s0-.223,0-.293c.293-.154.67-.084.963-.223s.223-.154.377-.223.363.07.516,0,.293-.223.363-.223h.67a10.888,10.888,0,0,1,2.066-.67c.307-.07.447-.293.74-.377.67-.14,1.4,0,1.926-.516.67-.223,1.117.084,1.549-.223s.307.307.67.223a3.657,3.657,0,0,1,1.256-.14h.447a4.83,4.83,0,0,1,3.1.656,3.336,3.336,0,0,1,1.857,1.117,4.509,4.509,0,0,1,2.513.963c.07.14.223.07.377.14l.656.6c.154.14.223,0,.377.14l.67.6c.293.223.586.74,1.1.656.516-.363.293-.949.377-1.549.07-.293.209-.586.293-.963a4.544,4.544,0,0,1,.07-.963,5.493,5.493,0,0,0,.447-1.033c.07-.586-.447-1.326.14-1.773a5.863,5.863,0,0,1,0-2.513,3.38,3.38,0,0,0,.154-1.186,5.936,5.936,0,0,0-.223-.893,11.655,11.655,0,0,1,.07-1.4c0-.154.223-.223.223-.377s-.14-.447,0-.656a.846.846,0,0,0,.223-.53c.07-.586-.293-1.4.154-1.912a2.206,2.206,0,0,1,.433-2.443,36.559,36.559,0,0,1,4.188-.293,4.411,4.411,0,0,1,2,0,3,3,0,0,1,1.27.963C296.472,54.549,296.165,54.912,296.165,55.135Zm-3.043,30.625c.307-.377,0-.963,0-1.549a1.563,1.563,0,0,1,.154-.6,4.536,4.536,0,0,1-.07-1.4c-.084-1.117-.516-2.219-.084-3.043-.586-.949,0-2.513-.433-3.546a5.263,5.263,0,0,0,.223-2.15c0-.516.14-1.033.14-1.326,0-.07-.223-.293-.223-.377s.154-.293.084-.433c0-.377-.377-.74-.223-1.117-.154-.447.586,0,.363-.447-.516.154-.223-.516-.447-.586.223-.447,0-.963.084-1.48s.293-.81.363-1.256-.293-1.4-.293-1.926a4.488,4.488,0,0,1,.07-.963,4.88,4.88,0,0,0-.07-1.1,10.609,10.609,0,0,1,.293-2.792c.07-1.326.74-2.289.447-3.322-.07-.293-.293-.447-.447-.67-.74.154-1.256.447-1.926.6a15.635,15.635,0,0,1-.81,3.322,10.292,10.292,0,0,1,.293,2.792,8.261,8.261,0,0,1,.084,1.926c0,.363-.223.67-.223,1.033-.084.74,0,1.48-.084,2.15,0,.223-.223.516-.223.74-.14.586-.14,1.186-.293,1.619s-.223.516-.293.74.154.223.154.447l-.154,1.7c-.07.293-.223.586-.293.963a12.746,12.746,0,0,1-.377,2.219,3.434,3.434,0,0,1-2.066.81,1.061,1.061,0,0,1-.586-1.187,4.37,4.37,0,0,1-1.256-1.1c-.223-.223-.154-.377-.377-.516a2.708,2.708,0,0,1-.81-.81,2.415,2.415,0,0,1-1.186-.893,6.042,6.042,0,0,1-1.4-.586,10.605,10.605,0,0,0-1.4-.67,11.165,11.165,0,0,0-2.959-1.117,2.669,2.669,0,0,0-.377.084c-.363,0-.893-.223-1.4-.223a5.918,5.918,0,0,0-1.187.07c-.223,0-.223-.223-.447-.293s-.516.447-.363,0c-.447.209-.824.586-1.4.81h-.81c-.293,0-.447.293-.74.377s-.223-.223-.447-.154a12.393,12.393,0,0,1-2.792.893s-.154.223-.223.223h-.377c-.447.14-.963.81-1.4.433a8.124,8.124,0,0,1-3,3.155,13.489,13.489,0,0,1-1.186,2.08c-.14.209-.363.433-.363.516l-1.033,1.591c-.223.447-.307,1.117-.893,1.4a14.939,14.939,0,0,1-.893,2.959,14.24,14.24,0,0,1-.14,1.7,2.273,2.273,0,0,1-.223.656,8.372,8.372,0,0,1-.447,1.48,5.861,5.861,0,0,0-.363,1.4,5.249,5.249,0,0,0,0,1.926c0,.363-.154.74-.154,1.187s.293.81,0,1.186a7.369,7.369,0,0,1,.656,2.136,1.033,1.033,0,0,1,.223.516,15.814,15.814,0,0,0,.6,1.787,5.724,5.724,0,0,0,.81.949l.223.377a4.634,4.634,0,0,0,.586.586,4.846,4.846,0,0,0,.824.963l.963,1.033a8.626,8.626,0,0,1,1.843,2.15c.67.293,1.633.293,1.773,1.1,1.033.084,1.926.447,2.959.6.516,0,1.117.154,1.633.154.293,0,.586-.154.879-.154l.824.293a5.192,5.192,0,0,0,1.549,0c.223,0,.363.154.586.154,1.4,0,2.792-.67,4.439-.74h1.773a11.529,11.529,0,0,0,1.926-.586,9.771,9.771,0,0,1,2.15-.447,6.983,6.983,0,0,1,1.1-1.033c.154-.084.307-.084.447-.223a4.4,4.4,0,0,1,1.633-.824,5.682,5.682,0,0,1,1.326-1.256,2.974,2.974,0,0,1,1.4-.363l.656.363a8.923,8.923,0,0,1,.824,1.633c.14.223.293.293.363.447.154.516,0,1.256.293,1.843.154.293-.07.6.223.824s.447,0,.963.14a1.87,1.87,0,0,0,.154-1.549c.586-1.186-.084-2.6.433-3.853l-.209-.963c.209-.14.209-.516.363-.656-.447-.824.07-1.926-.293-2.666a3.085,3.085,0,0,0,.14-2c0-.81.153-1.7.223-2.513a19.616,19.616,0,0,1,.084-3.7c.07-.307-.154-.963.14-1.4-.419-.042-.419-.461-.572-.684Zm-4.062,4.188-.154,1.256c-.07.377-.293.74-.363,1.117a5.541,5.541,0,0,1-.293,1.173,9.606,9.606,0,0,1-.74,1.047c-.223.433-.307.963-.516,1.4s-.307.154-.447.363-.154.447-.293.6a4.315,4.315,0,0,1-.963.67,4.188,4.188,0,0,1-.6,1.256c-.586.14-.963.656-1.48,1.1a12.972,12.972,0,0,0-1.4.893l-.74.447c-.223.293-.307.209-.377.209l-.14.307c-.74.293-1.117.74-1.7.879a7.663,7.663,0,0,1-1.4.084c-.223,0-.223-.154-.447-.154s-.363.223-.516.223a1.633,1.633,0,0,1-.586,0c-.377,0-.67.293-.963.363s-.963,0-1.4.084a8.026,8.026,0,0,1-2.666,0,5.653,5.653,0,0,1-2-.447c-.14,0-.223-.223-.223-.223a.335.335,0,0,0-.363.154c-.293,0-.516-.223-.74-.293l-.74-.154c-.223-.293-.447-.223-.67-.363s-.154-.307-.223-.377-.293,0-.363,0a3.672,3.672,0,0,1-1.187-.893,3.364,3.364,0,0,1-1.187-.363,2.443,2.443,0,0,1-.447-.293l-.363-.307c-.154-.14-.447-.14-.6-.293s-.209-.223-.363-.363a8,8,0,0,1-1.48-2.792c-.07-.293-.293-.433-.377-.656a4.249,4.249,0,0,1,0-1.033c0-.293-.293-.6-.293-.824a8.38,8.38,0,0,1,0-1.4c0-.447-.223-.81-.223-1.186a20.937,20.937,0,0,1,.223-3.029,2.526,2.526,0,0,1,.223-.67,3.711,3.711,0,0,0,0-.879c.07-.447.447-.893.293-1.4.516-.293.377-1.4.893-1.633a4.482,4.482,0,0,1,.14-1.4c.084-.223.307-.307.377-.516.223-.447.293-1.27.516-1.633s.14-.293.223-.377c.293-.363.81-.74,1.186-1.173.223-.223.363-.516.516-.67a3.88,3.88,0,0,1,1.7-1.186,2.276,2.276,0,0,1,.586-1.186c.293-.223.893-.293,1.48-.586l.586-.293.377-.154a13.965,13.965,0,0,1,1.549-.879,3.309,3.309,0,0,1,.74-.223,3.558,3.558,0,0,0,.586-.377,27.691,27.691,0,0,1,3.629-.14,7.481,7.481,0,0,1,1.4,0,6.5,6.5,0,0,1,1.033.433l1.187.223a18.355,18.355,0,0,1,3.992,1.815,8,8,0,0,0,1.4.754c.516.14.74.516,1.186.879s.656.377.656.74a2.094,2.094,0,0,1,1.857,2.066c.223.53.74.893.963,1.4a4.938,4.938,0,0,0,.223.963,4.187,4.187,0,0,1,.293.893,7.771,7.771,0,0,1,.223,1.549,13.569,13.569,0,0,1,.14,4.285,10.7,10.7,0,0,1-.349,1.214Zm-2.6-6.882c-.433-.293-.516-.963-.656-1.326a.461.461,0,0,1-.293-.154c-.084,0,0-.293-.084-.447l-.363-.209a2.108,2.108,0,0,1-.293-.893c-.74-.293-1.047-1.117-1.563-1.549-.656.07-.963-.516-1.4-.74s-1.256-.223-1.563-.74c-1.326-.223-2.066-.963-3.546-1.033-.293-.154-.516-.53-.67-.307a3.35,3.35,0,0,0-1.912,0h-1.187l-.67.223a1.079,1.079,0,0,0-.67.154,4.688,4.688,0,0,0-.879.433h-.447a1.717,1.717,0,0,0-.586.447,10.456,10.456,0,0,1-2.3,1.033c-.293.6-.963.74-1.1,1.48-.67.223-.893.963-1.7,1.033a18.036,18.036,0,0,1-1.033,2.08c-.084.14,0,.363-.084.586a4.342,4.342,0,0,0-.516,1.773c-.14,0-.223.154-.293.223a.792.792,0,0,0-.223.377c-.223.447-.14,1.033-.516,1.256.377.67,0,1.033,0,1.7a1.536,1.536,0,0,0-.154.447,8.779,8.779,0,0,0,.084,1.912,7.343,7.343,0,0,0-.084,1.7c.084.293.307.377.53.6-.447.586.209,1.1.07,1.912a1.759,1.759,0,0,1,.516,1.4,3.183,3.183,0,0,1,1.187,1.033c.81.154,1.1.81,2,.893a1.675,1.675,0,0,1,.586.74,3.629,3.629,0,0,1,1.549.656c.154.084.307.307.447.377s.377,0,.516,0,.154.223.223.223.447-.154.6-.084a4.676,4.676,0,0,0,2,.223,19,19,0,0,0,2.066.223,10.468,10.468,0,0,0,1.4-.363,2.233,2.233,0,0,0,.74-.084,2.944,2.944,0,0,1,.74-.209,10.933,10.933,0,0,0,1.549-.084c.447-.14.586-.516.963-.74a2.234,2.234,0,0,0,.586-.223c.223-.293.377-.223.447-.293.293-.223.516-.516.67-.586s.447-.154.586-.223,0-.293.154-.377a2.521,2.521,0,0,0,.67-.586,8.885,8.885,0,0,1,.74-.963,3.7,3.7,0,0,0,.656-.81,11.3,11.3,0,0,0,1.7-2.666,2.344,2.344,0,0,1,.293-.74c.154-.516.447-.893.6-1.4.07-.154-.154-.307-.084-.6l.223-.293a2.611,2.611,0,0,0,.154-1.117v-.363c0-1.033.07-2.066.07-2.792,0-.447.154-.516,0-.81a2.638,2.638,0,0,1-.419-1.312Z" transform="translate(99.439 20.256)" fill="#773f28"/>
      <path id="Path_38126" data-name="Path 38126" d="M362.279,66.4c0,.14.154.209.154.363a1.215,1.215,0,0,0-.154.516c0,.154.07.223.07.377s-.14.223-.07.447a.81.81,0,0,1,.07.363c0,.154-.223.447-.223.67s.084.586.084.879-.223.447-.223.67a3.263,3.263,0,0,1,0,.74,11.551,11.551,0,0,0,0,1.7c0,.223.209.516.209.81.084,1.033-.14,2.219-.07,3.336a7.357,7.357,0,0,1,.07,1.4c0,.586-.293,1.1-.363,1.926a1.827,1.827,0,0,1,.07.293c0,.293-.223,1.1.084,1.549a3.45,3.45,0,0,1-.377.893,33.767,33.767,0,0,1-.307,3.8,8.771,8.771,0,0,1,.223,1.326c0,.223-.153.516-.153.81s.154.53.154.74-.223.447-.293.67a5.584,5.584,0,0,1-.377,2.289c-.293.53.223,1.7-.293,2.373a4.577,4.577,0,0,1,.084,1.773c0,.223.14.516.07.74,0,.516-.223.963-.223,1.4a21.24,21.24,0,0,0,.293,3.1c.07.223.07.447.447.377-.81.586.07,1.186.07,1.926a1.173,1.173,0,0,1-.14.447s-.084.433-.084.516h-.363a2.066,2.066,0,0,1-.893.516c-.293,0-.586-.154-.963-.154a12.422,12.422,0,0,0-1.4.154,11.7,11.7,0,0,0-1.7.154c-.6.07-1.033.433-1.563.433s-.209.447-.586.447c-.07.223-.586,0-.81.084-.6-.53-1.117-1.787-.6-2.373-.433-1.256.154-2.889-.14-4.439a5.667,5.667,0,0,0-1.926,1.4c-.293.223-.447.586-.81.81h-.293c-.084.154-.6.293-.824.6a11.793,11.793,0,0,0-1.549.209,11.174,11.174,0,0,1-2.15.53,6.686,6.686,0,0,1-2.666.433c-.209,0-.363-.14-.433-.14-.307,0-.447.223-.74.223a1.745,1.745,0,0,1-1.186-.154c-.223.377-1.187.07-1.549-.14-.74.293-1.4-.084-2.15-.154-.447,0-.377-.447-.74-.516a14.056,14.056,0,0,1-3.406-.293c-.14-.377-.67-.447-.74-.963-.516,0-.516-.377-.879-.377a5.36,5.36,0,0,0-.824-.963c-.517,0-.586-.293-1.1-.293-.154-.14-.223-.447-.447-.586s-.447-.447-.586-.516-.307,0-.377,0l-1.033-1.117a1.173,1.173,0,0,1-.586-.363c0-.447-.447-.447-.377-1.047a2.024,2.024,0,0,1-.586-.363,3.838,3.838,0,0,1-.516-.67c-.154,0-.154-.223-.307-.293s-.07-.74-.433-.963c0-.293-.307-.293-.6-.293a1.619,1.619,0,0,0-1.033-1.549c.154-.447-.154-.447-.07-.824-1.48-1.4-1.4-4.062-2.15-6.058a14.878,14.878,0,0,1,.447-4.188l.14-.363c.154-.223.084-.67.154-1.186l.223-1.4a2.793,2.793,0,0,0,.14-.74,4.774,4.774,0,0,1,.824-2c-.377-1.4.879-1.843.963-3.113a7.4,7.4,0,0,0,1.033-1.4l.81-1.4c.223-.293.586-.516.516-.963.293-.14.447-.447.893-.586v-.67c.81-.516,1.186-1.4,1.843-2.15a6.881,6.881,0,0,1,1.033-.879c.223-.447.963-.516,1.047-.963a7.705,7.705,0,0,0,2.792-.893,3.113,3.113,0,0,0,1.7-.433,2.485,2.485,0,0,0,2-.67h4.439a19.287,19.287,0,0,1,2.136,0c.447,0,.824-.084,1.117.209a1.535,1.535,0,0,1,1.256.084,8.264,8.264,0,0,1,.963.14c.223,0,.447.223.586.223a2.178,2.178,0,0,0,.74,0l.377.293a1.577,1.577,0,0,1,.879.377.726.726,0,0,1,.377.07l.14.307a12.3,12.3,0,0,1,2,1.1c.153,0,.153.293.377.447s.293.14.447.293a3.421,3.421,0,0,1,.586.74c.154.293.67.586,1.033.963.223.14.307.516.6.74s.81.586.81,1.033a7.412,7.412,0,0,0-.293-4.062c-.293-.6-.74-.74-.447-1.633a2.959,2.959,0,0,1,.74-1.117,3.867,3.867,0,0,0,1.326.154,8.14,8.14,0,0,0,1.187.154,14.461,14.461,0,0,1,3.922.433c.67-.209,1.117.154,1.7.307.07.363,0,.586.07.963s.154.433.084.74A8.487,8.487,0,0,0,362.279,66.4Zm-2.513-.516c-.293-.307-1.033-.154-1.256-.53a1.313,1.313,0,0,0-.74-.209c-.293,0-.447.209-.74.209a10.666,10.666,0,0,0,.223,2.6c0,.516-.154,1.186-.154,1.843,0,.377.154.824.07,1.047a1.689,1.689,0,0,1-1.549,1.173c-.67,0-.74-.74-1.4-.963-.209.223-.74.154-.949.307a6.98,6.98,0,0,1-1.047-1.7c-.516,0-.74-.293-1.1-.516l-.447-1.033c-.516-.223-1.033-.447-1.186-1.047-.963-.07-1.4-.74-2-1.173-1.033-.154-1.48-.53-2.359-.67l-.963-.154c-1.773-.293-3.406-.14-5.109-.447-.363.307-1.033.223-1.7.307l-1.256.223a7.552,7.552,0,0,1-2.443.293c-.293.14-.74.586-.963.07-.293.67-1.033.893-1.912.963a3.379,3.379,0,0,1-1.187.81c-.223.6-.893,1.033-1.256,1.4a7.914,7.914,0,0,0-.74,1.033c-.084.154-.377.293-.447.447a2.1,2.1,0,0,1-.293.586l-.223.223a3.854,3.854,0,0,1-.377.516l-.14.293c-.307.084-.223.223-.223.307s-.223.14-.223.223a8.754,8.754,0,0,0-.67,1.173,1.759,1.759,0,0,1-.363.447c-.084.154,0,.223-.084.377s-.223.14-.293.223l-.223.586a3.585,3.585,0,0,1-.363.586c-.154.377-.154.893-.293,1.4a10.17,10.17,0,0,1-.516,1.033c-.154.74-.084,1.7-.307,2.582a16.437,16.437,0,0,0-.586,2.3,8.548,8.548,0,0,0-.154,1.4,7.291,7.291,0,0,0-.07,1.7c.07.377.377.67.447,1.033.14.6.07,1.4.223,1.926a1.732,1.732,0,0,0,.363.6c.223.516.516,1.033.67,1.48s.07.656.223.81a3.321,3.321,0,0,0,.656.74c.6.586,1.186,1.033,1.27,1.843a8.766,8.766,0,0,1,2,2.08,1.758,1.758,0,0,1,.517.586l.293.154a4.187,4.187,0,0,1,.81.74l1.4.81.433.516c.154,0,.307,0,.377.154l.223.363.74.377a8.069,8.069,0,0,0,1.773.879c1.1.293,2.15.447,3.406.67a16.167,16.167,0,0,1,2.136.377c.307,0,.6-.084.893-.084a23.506,23.506,0,0,0,2.792-.293l1.633-.377a3.741,3.741,0,0,0,.879-.07c.223,0,.377-.293.6-.363a10.049,10.049,0,0,0,1.549-.447c.363-.377.586-.293.74-.447s.154-.223.223-.223c.447-.293.74-.81,1.1-1.033.67-.447,1.117-.963,1.7-1.4.154-.293.154-.81.377-1.033.656-.293.81-.879,1.7-.74a1.605,1.605,0,0,1,.963.893,16.876,16.876,0,0,1,.14,2.289l.223,2.15c0,.223-.154.293-.154.586a19.182,19.182,0,0,0,.154,2.15,11.25,11.25,0,0,0,2.289-.293c.307-.084.6.14.824,0a5.193,5.193,0,0,0-.154-1.926c.447-.67,0-1.633,0-2.513a5.589,5.589,0,0,1,.223-1.047c0-.14-.14-.209-.07-.516s.154-.223.223-.433a8.472,8.472,0,0,1-.07-2.373c.14-.154,0-.223,0-.293a4.439,4.439,0,0,1,.07-2c0-.447.293-.824.363-1.4a22.559,22.559,0,0,0,.084-3.183c0-.433.14-.74.14-1.1s-.223-.516-.223-.81a3.6,3.6,0,0,0,.153-.6,8.989,8.989,0,0,0,.14-2.792c.307-.14.084-.81.377-.81V75.4c0-.223.14-.447.14-.656s-.223-.67-.223-.963c0-.963.154-2.3.084-3.043a.71.71,0,0,1,0-.433v-.53a.894.894,0,0,0,.14-.433c0-.307-.14-.67-.14-.963a14.205,14.205,0,0,0,.447-1.633c-.14-.279-.363-.558-.293-.865Zm-5.583,18.858c0,.14-.209.293-.209.447l-.154,1.256c-.07.363-.377.74-.516,1.186s-.07.879-.223,1.256l-.293.14c-.084.154,0,.293-.084.6a3.073,3.073,0,0,0-.363.656c-.154.293-.154.6-.293.893a4.248,4.248,0,0,1-.377.67,5.179,5.179,0,0,1-.963.949c-.293,1.4-1.48,2.01-2,3.183-.14.154-.447.084-.74.084-.07.223,0,.586-.223.74-.586.363-1.173.656-1.912,1.033h-.377a12.284,12.284,0,0,1-3.406,1.033c-.433-.223-.879-.363-1.173.084-.963-.447-2.959-.084-3.7-.824-.154.154-.516.154-.824.154a2.582,2.582,0,0,0-1.619-.516,11.768,11.768,0,0,0-1.773-.447,9.226,9.226,0,0,0-1.4-1.1c-.223-.154-.363-.447-.586-.6l-1.256-1.1-.377-.223a1.507,1.507,0,0,0-.586-.6,8.783,8.783,0,0,1-.893-.879,4.521,4.521,0,0,1-.363-.963c-.293-.377-.893-.447-1.256-.74-.223-.893-1.047-1.633-1.186-2.792a10.486,10.486,0,0,1,.223-2.6c0-.14-.223-.516.07-.586a3.615,3.615,0,0,0-.223-.824c0-.223.153-.586.153-.879s-.084-.447-.084-.67a5.584,5.584,0,0,1,.307-1.48l.209-1.4c.084-.14.307-.223.377-.363s0-.223,0-.293l.293-.154v-.363c0-.07.447-.223.447-.447a11.558,11.558,0,0,1,1.033-2.959c.293,0,.293-.516.74-.447-.14-.586.154-.74.223-1.1a6.3,6.3,0,0,0,1.48-1.633,3.224,3.224,0,0,1,.893-.223c.223,0,0-.447.223-.586s.656-.307.586-.67c.893-.154,1.186-.893,2.066-.963l.963-.81c.154-.084.293,0,.377-.084.223-.363.363-.293.516-.363a2.582,2.582,0,0,1,1.033-.586c.223,0,.293.14.517.14.447.084,1.186,0,1.773.084a9.422,9.422,0,0,0,1.4.209c1.549.154,2.959,0,3.922.67a4.481,4.481,0,0,0,.963,0l2.959,1.48c.447.893,1.4,1.256,2,1.926.223.223.656.154.963.293.223.6,1.173,1.047,1.326,1.7.154.377-.07.893,0,1.4a6.35,6.35,0,0,0,.377,1.173l.14,1.186a15.48,15.48,0,0,1,.893,3.043c.07.209-.084.363-.084.656a3.755,3.755,0,0,0,.223.963,5.5,5.5,0,0,1-.14,1.982Zm-2.289-3.629c-.07-.293-.447-.363-.586-.586a7.212,7.212,0,0,0-.447-1.7c.153-.67-.223-.963-.293-1.4a10.018,10.018,0,0,1-.223-1.633c-.447-.223-.447-.516-.67-.74l-.363-.363-1.047-1.117a3.462,3.462,0,0,0-1.4-.963c-.824-.363-1.4-.74-2-1.033a7.859,7.859,0,0,0-1.926-.377c-.377-.14-.67-.363-.963-.433a5.053,5.053,0,0,1-1.033,0c-.293,0-.67-.223-.893-.223s-.363.433-.586.223-.74-.516-.963-.307c-.963.084-1.117.447-1.773.824l-.6.223-.516.363c-.07,0-.223-.07-.363,0l-.223.223c-.377.223-.67.516-.963.67s-.516.14-.586.223a9.292,9.292,0,0,0-.74.949c-.307,0-.307.223-.6.084a1.4,1.4,0,0,1-.586.963,3.016,3.016,0,0,1-1.033.656c-.084,1.047-.893,1.4-.893,2.373a4.956,4.956,0,0,0-.74,1.4,12.775,12.775,0,0,0-.363,2,12.349,12.349,0,0,0-.53,1.4c0-.084.084.363.154.447a11.774,11.774,0,0,1-.447,2.066c0,.377.223.81.223,1.256a.549.549,0,0,0-.14.293,2.137,2.137,0,0,1,0,.963c.07.6.656,1.186.433,1.926a14.49,14.49,0,0,0,2,1.4,9.771,9.771,0,0,0,2.6,2.582,4.382,4.382,0,0,0,1.4.963l.293.293a7.118,7.118,0,0,0,1.549.377,3.94,3.94,0,0,1,.963.363c.223.07.223.293.447.293a27.164,27.164,0,0,1,3.615.377,2.666,2.666,0,0,0,1.047,0,4.606,4.606,0,0,0,1.1-.084,4.526,4.526,0,0,1,.6-.363c.14,0,.293.07.433,0s.74-.447,1.117-.084c.516-1.256,2.219-1.256,2.443-2.792.293,0,.223-.223.516-.223,0-.516.363-.81.586-1.186l.516-.963c.084,0,.307.084.223-.209a4.047,4.047,0,0,1,.893-1.563c-.154-.516.223-.879.363-1.256a11.922,11.922,0,0,0,.67-4.062,4.187,4.187,0,0,0,.516-1.033,2.443,2.443,0,0,1-.2-1.466Z" transform="translate(125.453 23.716)" fill="#773f28"/>
      <path id="Path_38127" data-name="Path 38127" d="M368.91,110.9c-.154.223.07.74-.293.963a2.792,2.792,0,0,1-2.373-.377c-2.289-.433-4.886.223-7.245,0-.447.154-.223-.363-.223-.586-.447-.084-.154.433-.6.363a1.843,1.843,0,0,1-.586-1.7v-1.4c.07-.74.07-1.4.07-2.289,0-1.633-.516-4.188.377-5.7-.447-.6,0-1.563,0-2.373,0-.516-.363-1.256.154-1.7-.447-.516-.154-1.186-.084-1.926,0-.363-.223-.74.154-1.033-.07-.81-.516-1.4-.293-2.373a4.257,4.257,0,0,0,0-.949c-.084-.223-.223-.377-.223-.516s.14-.447.14-.6c0-.447-.14-.893-.14-1.549a4.064,4.064,0,0,0,.14-.824,7.816,7.816,0,0,0-.293-1.4c-.07-.223.154-.447.154-.74-.07-.81-.293-1.619-.447-2.792a14.672,14.672,0,0,1-.154-2.582c0-.223.154-.516.084-.74a8.169,8.169,0,0,1-.307-1.4,9.539,9.539,0,0,1-.07-1.4c0-.209-.14-.516-.14-.74s.14-.363.14-.586c0-.516-.223-1.186-.293-1.926a20.489,20.489,0,0,1-.154-3.1l-.14-1.033c0-.223.14-.307.14-.516s-.223-.223-.223-.377.154-.223.154-.447-.154-.293-.154-.516.154-.447.154-.67-.223-.586-.223-.879a4.734,4.734,0,0,0-.07-1.773c.517-.377.14-1.117.14-1.633s.447-1.033.154-1.549c.293-.223.293-.67.516-.963-.223-.81.377-2,.67-2.959.07-.516-.293-.516-.447-.74.223-.74.293-1.633.963-1.926a45.213,45.213,0,0,0,5.109.377c.516-.154.74-.53,1.256-.6s1.326.6,1.843.81a8.559,8.559,0,0,1,.6,1.4c0,.516-.6.377-.74.74v.963c0,.154-.154.447-.154.67s.293.656.293.963a14.692,14.692,0,0,1-.14,1.912,4.717,4.717,0,0,0,.223.963,1.4,1.4,0,0,0,.14.824c0,.963-.223,1.843-.223,2.792a3.509,3.509,0,0,0,.154.74c0,.223-.223.516-.154.74s.154.14.223.223-.07.363,0,.433c.07.307.223.6.223.74s-.154.447-.154.6l.307,1.549a19.894,19.894,0,0,0,.517,3.853c-.377.81.07,1.549.07,2.513,0,.586-.154,1.186-.154,1.926.154.363-.223.81-.293,1.256,0,1.173.293,2.359.293,3.476s-.14,2.792-.07,4.062c0,.293-.154.293-.154.516s.154.516.154.824a18.159,18.159,0,0,0-.293,1.912,12.249,12.249,0,0,0,.07,1.563c0,.586-.07,1.173-.07,1.773.07,1.4.293,2.582.293,3.922a20.943,20.943,0,0,0-.056,3.183c0,.6.223,1.4.293,2.15a6.181,6.181,0,0,1,.223,1.1c0,1.633-.67,3.266-.07,4.886.363.516,1.326.447,1.843.893-.07.293.293.447.223.656S369.426,110.967,368.91,110.9Zm-4.551-8.291c0-.516.084-.963.084-1.173s-.154-.223-.154-.377.154-.586.154-.879a8.374,8.374,0,0,0-.223-1.187c0-.377.07-.824.07-1.186a12.414,12.414,0,0,1,0-2.289,2.568,2.568,0,0,1-.07-1.27,4.382,4.382,0,0,1,.14-1.689c-.293-.307-.14-.824-.209-1.186a9.369,9.369,0,0,1-.084-1.4,6.633,6.633,0,0,1,.293-1.256c0-.223-.14-.516-.14-.81,0-.6.14-1.4.14-1.633a4.4,4.4,0,0,1,.307-.879,9.115,9.115,0,0,1-.307-3.559c0-.74,0-1.773,0-2.289s.154-1.1.154-1.549c.07-.67.293-1.4.293-2a2.107,2.107,0,0,0-.223-.74,5.753,5.753,0,0,1,.07-2c-.363-.447-.223-1.117-.363-1.787L364,69.412c-.084-1.256.14-2.289-.377-2.889a6.184,6.184,0,0,0,0-2.582c0-1.033.154-1.857.07-2.513a10.3,10.3,0,0,0-.209-1.787c-.377-.879,0-2.359-.223-3.392a4.062,4.062,0,0,0-2.666,0,35.754,35.754,0,0,0-1.4,5.7,20.3,20.3,0,0,0,.07,2.066c-.07.67-.293,1.27-.293,1.857,0,.293.084.67.084.963.14,1.033.363,1.843.433,2.792,0,.223-.14.363-.14.516s.223.893.223,1.186-.154.363-.154.586a12.732,12.732,0,0,0,.223,1.48c.154.963.223,1.926.293,2.792a9.566,9.566,0,0,0,0,2,22.787,22.787,0,0,1,.154,2.3c.07.433.293.949.377,1.4v2.889c0,.293.07.586.07.81,0,.67.07,1.186.07,1.7,0,1.117,0,2.15.084,3.252l.293,2.792c.07,3.769-.67,6.979-.516,10.5.07,1.633,0,3.029.14,4.662.963.586,2.527-.07,3.629.293a3.463,3.463,0,0,0-.14-1.186c.516-.363.363-1.256.433-2a1.968,1.968,0,0,1,.223-.963,10.038,10.038,0,0,1-.391-2.024Z" transform="translate(140.123 20.049)" fill="#773f28"/>
      <path id="Path_38128" data-name="Path 38128" d="M415.37,67.423c0,.293-.084.516-.084.74l-.14.74-.307.6a10.713,10.713,0,0,1,0,2.219c-.07,0,.154.293.084.586a7.554,7.554,0,0,1-.293,1.1,14.618,14.618,0,0,1-.893,2.792,5.388,5.388,0,0,1,0,2.219c0,.363-.293.74-.377,1.1s0,.516-.07.81-.223.377-.223.6.084.656.084.963a.357.357,0,0,0-.084.363.852.852,0,0,1,.084.377c-.084.81-.307,1.549-.447,2.359a8.529,8.529,0,0,1-.516,2.219c0,.377.293.67.363.963a1,1,0,0,1-.14.81,1.633,1.633,0,0,1,.293,1.4c-.084.14,0,.14,0,.293,0,.447-.223,1.033-.223,1.48a6.441,6.441,0,0,0,.293,1.1,4.09,4.09,0,0,1-.154,2.373,15.62,15.62,0,0,1,.154,5.025c0,.223,0,.377-.154.447a15.832,15.832,0,0,0-.07,1.926,3.993,3.993,0,0,1-.14.963c0,.363.14.74.14,1.1a7.111,7.111,0,0,1-.447,1.256c-.07.447-.363.824-.433,1.187-.154.6-.154,1.4-.307,2.08-.209.223-.293.586-.586.656a4.066,4.066,0,0,1-.154,1.117,5.987,5.987,0,0,1-1.842,1.48c0,.447-.516.516-.74.81s-.154.516-.377.74-.363.586-.586.81a22.181,22.181,0,0,0-4.955,2.889,1.94,1.94,0,0,0-1.1.223,4.536,4.536,0,0,0-1.4.293,1.983,1.983,0,0,1-.6,0c-.293.084-.74.307-.949.377a13.455,13.455,0,0,1-1.7,0h-1.563c-.293,0-.586-.14-.81-.14a3.649,3.649,0,0,1-.586.223c-.963.07-1.926,0-3.043.07-.293,0-.656.223-.949.223s-.6-.154-.824-.154h-.963l-.81-.293c-.447,0-.963.154-1.48.154a3.922,3.922,0,0,0-1.033-.154,2.156,2.156,0,0,1-.963-.14l-1.033-.67a5.122,5.122,0,0,1-1.117-.154,5.583,5.583,0,0,1-1.773-.74,9.616,9.616,0,0,1-1.48-.963c-.223-.14-.363-.433-.586-.586s-.307,0-.377-.154a1.494,1.494,0,0,0-.586-.586l-.377-.516c-.07-.07-.223,0-.293-.154a3.683,3.683,0,0,1-.81-1.173c-.084-.084-.223-.223-.293-.223s.07-.307.07-.377c-.223-.363-.67-.516-.81-.879a2.793,2.793,0,0,1-.223-.67,22.71,22.71,0,0,1-.67-5.4c.586-.74,1.549-.67,2.582-.893.447-.14.893-.516,1.4-.363a5.04,5.04,0,0,1,1.117-.447,6.978,6.978,0,0,1,1.173-.223c.6,0,.824.447,1.186.893.223.14.154.293.223.363l.81,1.186.447.516a3.989,3.989,0,0,0,.6.6c0,.07.293.07.363.14a3.211,3.211,0,0,0,1.186.81c.07.084.07.223.223.307l.586.223a3.839,3.839,0,0,0,2.373,1.1c.293.447.74.586,1.256.893a6.546,6.546,0,0,0,.963.363,2.236,2.236,0,0,0,.363.377l.447.223a4.648,4.648,0,0,0,2.889.656c.223,0,.447-.223.656-.223s.74.223.963.154a6.519,6.519,0,0,0,2.08-.447,1.828,1.828,0,0,0,.963-.447c.223-.293.433-.14.586-.223a1.549,1.549,0,0,1,.74-.433c.74-.447,1.187-1.117,1.857-1.48.209-.824.81-1.256,1.173-1.926.154-.154.154-.377.293-.6s.154-.363.223-.433.377-.223.53-.377a6.7,6.7,0,0,0,.517-1.619l.586-.74a3.755,3.755,0,0,1,.46-2.261c-.154-.154-.07-.586-.07-.963-.6-.14-.963.516-1.4.81a11.044,11.044,0,0,1-1.326.893c-.223.154-.377,0-.517.154a5.707,5.707,0,0,1-1.117.656,7.5,7.5,0,0,1-.81.377,5.11,5.11,0,0,1-1.326.656c-.447.154-.963.223-1.563.377a9.894,9.894,0,0,1-1.912.293H393.58c-1.117,0-2,.223-2.792-.516-.516-.084-.223.67-.81.447a10.972,10.972,0,0,1-4.076-.893,4.524,4.524,0,0,0-.963-.363c-.363-.154-.74-.154-1.033-.307s-1.187-.363-1.033-.963c-.377,0-.377.223-.74.084,0-.447-.447-.447-.824-.6-.14,0-.14-.14-.223-.223l-1.1-.74-.893-.879c-.293-.293-.516-.74-.949-.81,0-.447-.377-.6-.377-.963-.363-.307-.67-.67-1.033-1.033-.223-.154-.154-.307-.223-.377l-.586-.377c-.084,0-.307,0-.377-.07s0-.293-.07-.363a4.94,4.94,0,0,1-.6-.516c-.14-.223-.07-.447-.223-.67s-.363-.377-.433-.516l-.74-1.186c-.084-.154,0-.293-.084-.363l-.363-.6a4.048,4.048,0,0,1-.67-1.619,3.811,3.811,0,0,1-.586-.824l-.223-.223c-.154-.363-.154-.879-.377-1.4a7.366,7.366,0,0,0-.433-1.117c-.084-.293,0-.656-.084-1.033,0-.14-.223-.223-.223-.363s.154-.223.154-.377a3.239,3.239,0,0,1-.223-.879c-.07-.154,0-.377,0-.6s-.293-.14,0-.586a12.564,12.564,0,0,0,.293-2.15c.084-.293.377-.516.516-.879s.084-.893.223-1.186.307-.223.377-.377l.14-.516a2.444,2.444,0,0,1,.516-.656,4.369,4.369,0,0,1,.754-2.6v-.893a4.829,4.829,0,0,0,.656-1.033,20.716,20.716,0,0,1,1.4-2.582c.07-.154.14-.377.293-.447s.223,0,.293-.154.07-.293.154-.363.293,0,.363-.07c.293-.223.74-1.047,1.117-1.4s.74-.293,1.1-.516.447-.74.963-.74a3.9,3.9,0,0,1,1.186-1.256,7.607,7.607,0,0,1,1.549-.67l.377-.293.949-.14.279-.209a9.408,9.408,0,0,0,3.029-.963,11.348,11.348,0,0,0,3.183-.81c.293,0,.517.084.893.084.656-.084,1.326-.307,1.843.363.223-.363.67-.363.963-.586,1.117.14,2.219,0,3.113.223a10.664,10.664,0,0,0,2.513.726,8.377,8.377,0,0,0,2,1.117,15.186,15.186,0,0,1,1.633,1.1c0,.084.293.084.363.154s0,.293.154.377a.838.838,0,0,0,.586.209,3.517,3.517,0,0,0,1.256,1.633c.223-.377.154-1.033.377-1.48a1.759,1.759,0,0,1-.293-1.256c0-2.219,1.912-.893,4.188-.67a19.319,19.319,0,0,0,3.113,0,5.346,5.346,0,0,1,1.326-.223c.67.084,1.117.67,1.4.74A7.914,7.914,0,0,1,415.37,67.423Zm-4.523-.81a16.443,16.443,0,0,0-2.582-.293,11.57,11.57,0,0,0-.223,2.876,3.994,3.994,0,0,1,.223,1.186s-.223.154-.223.223a1.275,1.275,0,0,1,0,.516c-.377.81-1.117.447-1.926.293-.363-.223-.447-.656-.656-.949a7.272,7.272,0,0,1-2.792-2.959,14.36,14.36,0,0,1-1.926-1.186l-1.773-.893-.67-.363a2.093,2.093,0,0,0-.963-.377,10.162,10.162,0,0,0-3.322-.363,5.961,5.961,0,0,1-1.1.14c-.447,0-.893-.223-1.27-.14a4.508,4.508,0,0,0-.879.223,8.989,8.989,0,0,0-1.773.293c-.307,0-.447.293-.74.363l-1.4.154-1.1.516a6.588,6.588,0,0,0-1.117.293c-.74.293-1.48.963-2.219.893a4.842,4.842,0,0,1-1.256,1.186,5.276,5.276,0,0,1-2.512,1.689,5.417,5.417,0,0,1-1.4,1.7c0,.824-.67,1.4-.963,2-.14.223-.14.6-.293.963a29.31,29.31,0,0,1-1.256,3.043c0,.14-.154.209-.223.363a10.916,10.916,0,0,0-1.033,3.922c-.154.447-.447.67-.516,1.186.447,1.1.516,2.219.879,3.252l.893,2.289a4.7,4.7,0,0,1,.223.81c.07.084.293.223.363.377a2.667,2.667,0,0,1,.223.586c.293.223.293.447.377.516a4.19,4.19,0,0,0,.586.963,6.47,6.47,0,0,1,.516,1.033c.153.223.447.307.223.67.293.084.586.084.74.223s.223.6.377.74l1.033.963a25.777,25.777,0,0,0,2.219,2.443,1.228,1.228,0,0,0,.586.363,2.525,2.525,0,0,0,.6.516,5.737,5.737,0,0,1,1.48,1.117c.74.154,1.549.516,2.289.74a8.67,8.67,0,0,1,2.219.879c1.7,0,3.546.53,5.318.447a12.452,12.452,0,0,0,2.443-.293,1.478,1.478,0,0,1,.377-.223,8.584,8.584,0,0,0,2.359-1.033c.516-.293,1.186-.447,1.48-.893a4.481,4.481,0,0,0,1.773-1.033l.893-.586c.293-.223.516-.6.963-.447-.07-.516.447-.447.586-.586s.154-.377.307-.6a.391.391,0,0,0,.223-.363,1.633,1.633,0,0,1,2.289.447,24.983,24.983,0,0,0,0,3.392,4.8,4.8,0,0,1-.516,1.857c-.084.07-.154.07-.223.223a2.053,2.053,0,0,0-.293.81,6.143,6.143,0,0,1,.139,1.186l-.293.447c0,.14.07.293,0,.363a4.48,4.48,0,0,0-.586,1.4,10.289,10.289,0,0,0-.516.963,6.027,6.027,0,0,1-.67,1.4,4.581,4.581,0,0,1-.74.893c-.084.14,0,.293-.084.363-.209.377-.656.6-.879.81s0,.307-.154.377a.885.885,0,0,0-.293.223,7.62,7.62,0,0,1-2.08,1.787c-.223.154-.293.377-.447.516s-.363,0-.516.084-.293.363-.447.516a3.392,3.392,0,0,0-.879.223,7.37,7.37,0,0,1-3.476.74c-.154-.084-.307,0-.377,0a17.462,17.462,0,0,1-4.509-.223c-.377-.14-.447-.516-.81-.74-.74,0-1.187-.586-1.787-.963-.14,0-.363,0-.433-.14a.893.893,0,0,0-.377-.377c-.154-.07-.74-.223-1.033-.363a16.387,16.387,0,0,0-3.853-1.857c-.07-.363-.447-.586-.656-.879l-.377-.447c-.293-.223-.363-.377-.447-.377-.223-.363-.293-.81-.81-.879-.293-.223-.363-.74-.67-.963a7.677,7.677,0,0,0-2.792.516,5.443,5.443,0,0,0,.516,3.406c.154.14.154.363.223.433.516.74,1.48,1.047,1.633,1.926.949.447,1.4,1.117,2.136,1.48l.6.377a13.613,13.613,0,0,0,2.136.656c.084.084.084.223.223.223a2.625,2.625,0,0,1,1.033.154l.74.293,1.926.154a17.875,17.875,0,0,0,1.926.14,17.67,17.67,0,0,1,1.843,0h.531a35.184,35.184,0,0,0,3.839,0c.516,0,1.186-.223,1.549-.223s.154.154.447.154.293-.223.516-.223h.67c.223,0,.293-.223.516-.223l.586-.154a9.082,9.082,0,0,0,.963-.433c.447-.154.893-.154,1.187-.307a8.267,8.267,0,0,1,.893-.586l1.926-1.033.586-.447c.07,0,.293,0,.377-.154a6.715,6.715,0,0,1,.726-.879l.824-.963a2.554,2.554,0,0,1,1.256-.67c-.154-.516.586-.963.74-1.326s.07-.893.14-.74a5.44,5.44,0,0,1,.084-1.187,6.589,6.589,0,0,0,.293-.893c.07-.223.223-.223.223-.363a2.469,2.469,0,0,0,0-.963,4.67,4.67,0,0,0,.07-.516c0-.377-.07-.74-.07-1.186,0-.223.223-.447.293-.67s-.14-.209-.14-.363c-.084-.81.363-1.4.363-2a1.269,1.269,0,0,0,0-.516c0-.14.14-.223.14-.447a7.406,7.406,0,0,1,0-1.256,8.374,8.374,0,0,1,.084-2c0-.377-.223-.67-.223-1.117-.223-1.549,0-3.1-.154-4.578a21.856,21.856,0,0,1-.07-3.783c.07-.209-.07-.363-.07-.586s.293-.293.14-.447a1.061,1.061,0,0,0,0-.74,2.232,2.232,0,0,1,.154-.656,9.128,9.128,0,0,0,.223-1.186c.14-.74.07-1.48.223-2.15,0-.363.223-.67.223-.963s-.084-.293-.084-.516a3.792,3.792,0,0,1,.223-1.033,19.647,19.647,0,0,0,.6-2.792,20.314,20.314,0,0,1,.363-2.15.265.265,0,0,0,0-.363c.07-.293.223-.293.223-.447.154-.67.154-1.4.223-1.549a4.311,4.311,0,0,0,0-.963c0-1.047.363-2.373.293-3.336C412.187,66.334,411.517,66.683,410.847,66.613ZM408.056,86.3a8.376,8.376,0,0,1-1.48,2.652,4.732,4.732,0,0,1-1.033,2.792l-.223.447a11.025,11.025,0,0,1-1.4,1.4s0,.293-.14.363a6.389,6.389,0,0,0-.81.516c-.447.447-.824.963-1.27,1.4h-.363c-.154,0-.293.447-.447.516s-.656,0-.963.223-.293.154-.363.223a7.524,7.524,0,0,1-2.513.963c-.307.07-.377-.084-.516-.084a3.292,3.292,0,0,0-.6.223,2.625,2.625,0,0,0-.74,0,2.025,2.025,0,0,0-.586.223l-2,.154c-.223,0-.293-.084-.516,0s-.307.223-.447.223a5.457,5.457,0,0,1-.963-.154c-.516,0-1.256-.154-1.549-.154s-.6.154-.824.154a9.031,9.031,0,0,0-2.443-.586,7.58,7.58,0,0,0-1.843-1.186c-.377-.377-.893-.377-1.256-.74-.154-.154-.223-.516-.74-.377a8.04,8.04,0,0,0-1.633-1.843c.084-.293-.223-.516-.363-.74l-.293-.74a3.112,3.112,0,0,1-.74-1.4l-.824-1.173c0-.084.084-.293.084-.377s-.223.084-.307,0,0-.223-.07-.363a2.177,2.177,0,0,1-.447-1.033c0-.223.153-.307.084-.377a1.566,1.566,0,0,1-.307-.586,11.765,11.765,0,0,1,0-3.629c0-.516.586-1.256,0-1.773.084-1.033.447-1.7.516-2.792a3.713,3.713,0,0,0,.893-1.633,3.741,3.741,0,0,0,.893-1.7,6.562,6.562,0,0,0,1.549-2.275c.656-.363.879-1.256,1.549-1.7a3.712,3.712,0,0,1,1.1-.293c.447-.223.53-.81,1.186-.67.377-.07.293-.586.6-.74s.74-.14.879-.447c.67.154,1.48-.293,2.15-.293.14,0,.363.154.586.154a9.35,9.35,0,0,1,1.7-.154c.223.154.293,0,.447,0a3.5,3.5,0,0,1,.81.223c1.186.223,2.513.084,3.476.307.307,0,.67.293.963.363a11.685,11.685,0,0,1,2.666,1.256,2.429,2.429,0,0,1,.74,0c.447.6,1.4.67,1.549,1.563A8.376,8.376,0,0,1,404.8,76.37c.223.223.586.154.81.377s.07.293.154.363a2.081,2.081,0,0,1,.433.67l.74.67c.084.223,0,.586.084.879s.293.307.363.447a12.757,12.757,0,0,0,.223,1.563c.07.363.377.656.447.949.07.6,0,1.48.07,2.15a7.23,7.23,0,0,1-.084,1.856Zm-2.527-3.211a2.89,2.89,0,0,1-.154-1.117c-.363-.293-.363-1.1-.516-1.4a1.621,1.621,0,0,1-.223-.754c-.07,0-.07-.293-.14-.363-.307-.447-.893-.516-.893-1.1a3.364,3.364,0,0,1-1.4-1.187l-.293-.516a10.147,10.147,0,0,0-1.843-1.7c-.154,0-.223-.293-.377-.377a12.967,12.967,0,0,0-1.4-.516,4.509,4.509,0,0,1-.656-1.4,15.477,15.477,0,0,1-2.373-.74c-.363-.084-.293,0-.516,0l-1.033-.293a9.505,9.505,0,0,1-1.4,0l-1.48-.209c-.14,0-.223.154-.447.154a15.049,15.049,0,0,0-1.912,0c-.67,0-1.256.656-1.926.656a2.108,2.108,0,0,1-.963.824c-.81.516-1.48.656-1.857,1.4-.07.223-.433.377-.586.447a.7.7,0,0,0-.363.293c-.07.14,0,.307-.154.447a5.8,5.8,0,0,1-.67.6c.154.516-.516.949-.67,1.173s.084.223,0,.377l-.209.81h-.307l-.363,1.117c-.07.223-.293.293-.377.447a14.027,14.027,0,0,0-.07,3.546c0,.223-.14.447-.14.586s.14.447.14.67a4.313,4.313,0,0,0,.07,2.15,5.473,5.473,0,0,0,.447,1.033l.084.293a12.4,12.4,0,0,1,.81,1.033,10.707,10.707,0,0,1,.81,1.857,3.546,3.546,0,0,1,.963,1.326,2.093,2.093,0,0,1,.67.377,8.74,8.74,0,0,1,1.326.879c.154.084.447.084.6.223a13.359,13.359,0,0,0,1.48.963,6.979,6.979,0,0,0,2.513.516,2.625,2.625,0,0,0,.81,0c.293,0,.516.154.74.154a15.731,15.731,0,0,0,3.922-.307,7.831,7.831,0,0,0,2.666-.656l.516-.223c.363-.377.656-.293.963-.447l.656-.293c.223-.154.377-.447.67-.6.586-.433,1.256-.656,1.4-1.4a2.429,2.429,0,0,0,.879-.586l.154-.307.223-.223a4.715,4.715,0,0,1,.14-.879c.154-.293.447-.516.6-.81a4.193,4.193,0,0,0,.363-.824c.084-.293-.07-.223,0-.433s.6-.447.516-.893c.154-.74.53-1.4.67-2.066a6.644,6.644,0,0,0-.1-1.731Z" transform="translate(145.743 23.574)" fill="#773f28"/>
    </g>
    <path id="Path_38129" data-name="Path 38129" d="M355.361,13.554c2.792,1.4,5.583,3.043,8.64,2.792,3.559-.237,6.365-2.917,9.157-5.123A42.016,42.016,0,0,1,439.8,33.389C453.114,20.826,470.507,11.376,488.9,11.8s36.963,12.563,40.969,30.5c11.837-14.419,33.7-19.542,50.7-11.879s27.68,27.415,24.735,45.84c18.858,3.755,26.424,30.011,16.276,46.329s-31.63,22.585-50.726,20.366a59.339,59.339,0,0,1-95.687,42.616c-7.566,16.108-25.126,26.354-42.937,27.192s-35.344-6.979-48.423-19c-2.164-2-4.383-4.188-7.272-4.8-4.746-1.005-9.073,2.624-12.856,5.681-33.5,26.968-88.819,19.975-114.462-14.461a65.285,65.285,0,0,1-102.541-2.038,57.775,57.775,0,0,1-91.723-1.4c-3.867-5.207-6.91-11.376-6.644-17.839s4.69-13.051,11.069-14.1c-12.563-3.615-25.126-7.97-35.734-15.522s-19.263-18.719-21.2-31.63,4.02-27.289,15.773-32.984,28.336.181,31.979,12.716c-4.858-21.12,5.793-44.835,24.791-55.221s44.668-6.561,59.869,8.92c3.908-17.393,21.859-30.43,39.629-28.881s33.138,17.532,34.073,35.344c5.025-18.886,23.73-33.194,43.272-33.082s32.105,24.512,47.823,22.069c8.654-1.4,16.541-12.06,25.5-14.8a41.793,41.793,0,0,1,30.207,1.815Z" transform="translate(0 0)" fill="none" stroke="#e39725" stroke-miterlimit="10" stroke-width="4.17"/>
  </g>
</svg>
