<svg xmlns="http://www.w3.org/2000/svg" width="93.003" height="61.733" viewBox="0 0 93.003 61.733">
  <g id="Group_73654" data-name="Group 73654" transform="translate(0.645 0.565)">
    <path id="Path_1" data-name="Path 1" d="M.858,16.264H76.452L68.067,50.737H9.708ZM0,15.6,9.193,51.4h59.4L77.3,15.6Z" transform="translate(0 9.13)" fill="#161615" stroke="#000" stroke-width="1"/>
    <path id="Path_2" data-name="Path 2" d="M51.612,17.5l.217.629,13.641-4.7-8.34,29.345-14.148,9.9.382.545L57.706,43.186l8.754-30.8Z" transform="translate(25.155 7.249)" fill="#161615" stroke="#000" stroke-width="1"/>
    <path id="Path_3" data-name="Path 3" d="M21.191,12.506.223,17.42l.152.647,20.854-4.9H90.991v-.664Z" transform="translate(0.13 7.319)" fill="#161615" stroke="#000" stroke-width="1"/>
    <path id="Path_4" data-name="Path 4" d="M67.709,36.5H4.464v-.666h63.06L81.7,27.275l.344.569Z" transform="translate(2.612 15.962)" fill="#161615" stroke="#000" stroke-width="1"/>
    <path id="Path_5" data-name="Path 5" d="M70.861,30.116H3.116V29.45H70.7l14.2-7.5.309.59Z" transform="translate(1.824 12.847)" fill="#161615" stroke="#000" stroke-width="1"/>
    <path id="Path_6" data-name="Path 6" d="M36.684,0l-17.7,2.7L25.005,31.28l.653-.14L19.782,3.248,36.164.752l4.123,19.473.652-.136Z" transform="translate(11.112)" fill="#161615" stroke="#000" stroke-width="1"/>
    <path id="Path_7" data-name="Path 7" d="M73.4,24.973H1.9v-.666H73.254l14.215-6.444.274.606Z" transform="translate(1.109 10.454)" fill="#161615" stroke="#000" stroke-width="1"/>
    <rect id="Rectangle_6" data-name="Rectangle 6" width="22.197" height="0.665" transform="translate(79.398 52.151) rotate(-77.619)" fill="#161615" stroke="#000" stroke-width="1"/>
    <rect id="Rectangle_7" data-name="Rectangle 7" width="22.778" height="0.666" transform="matrix(0.169, -0.986, 0.986, 0.169, 74.714, 55.459)" fill="#161615" stroke="#000" stroke-width="1"/>
    <rect id="Rectangle_8" data-name="Rectangle 8" width="0.664" height="25.707" transform="translate(10.255 35.166) rotate(-12.435)" fill="#161615" stroke="#000" stroke-width="1"/>
    <rect id="Rectangle_9" data-name="Rectangle 9" width="25.355" height="0.666" transform="translate(59.087 60.152) rotate(-81.928)" fill="#161615" stroke="#000" stroke-width="1"/>
    <rect id="Rectangle_10" data-name="Rectangle 10" width="0.666" height="25.414" transform="translate(22.114 35.146) rotate(-8.953)" fill="#161615" stroke="#000" stroke-width="1"/>
    <rect id="Rectangle_11" data-name="Rectangle 11" width="25.219" height="0.666" transform="translate(48.996 60.168) rotate(-84.534)" fill="#161615" stroke="#000" stroke-width="1"/>
    <rect id="Rectangle_12" data-name="Rectangle 12" width="0.666" height="25.104" transform="translate(38.319 35.095)" fill="#161615" stroke="#000" stroke-width="1"/>
  </g>
</svg>
