<?xml version="1.0" standalone="no"?>
<!DOCTYPE svg PUBLIC "-//W3C//DTD SVG 20010904//EN"
 "http://www.w3.org/TR/2001/REC-SVG-20010904/DTD/svg10.dtd">
<svg version="1.0" xmlns="http://www.w3.org/2000/svg"
 width="700.000000pt" height="700.000000pt" viewBox="0 0 700.000000 700.000000"
 preserveAspectRatio="xMidYMid meet">
<metadata>
Created by potrace 1.14, written by Peter Selinger 2001-2017
</metadata>
<g transform="translate(0.000000,700.000000) scale(0.100000,-0.100000)"
fill="#000000" stroke="none">
<path d="M3266 6976 c-100 -27 -132 -47 -158 -98 -22 -41 -34 -129 -22 -155 4
-10 8 -56 8 -103 1 -47 9 -124 18 -171 16 -82 17 -155 4 -319 -3 -36 -8 -103
-11 -150 -3 -47 -8 -110 -10 -140 -3 -30 -7 -84 -10 -120 -3 -36 -7 -91 -10
-123 -3 -31 -7 -85 -10 -120 -3 -34 -7 -87 -10 -117 -3 -30 -8 -89 -11 -130
-3 -41 -7 -95 -9 -120 -2 -25 -6 -88 -10 -140 -4 -52 -8 -115 -10 -140 -2 -25
-6 -94 -10 -155 -9 -158 -14 -200 -35 -291 -36 -155 -80 -252 -189 -417 -111
-168 -161 -282 -177 -405 -3 -26 -9 -66 -14 -89 -4 -23 -8 -124 -8 -226 l-2
-184 83 -40 c145 -72 381 -150 502 -168 22 -3 47 -7 55 -10 110 -33 482 -38
665 -9 71 11 192 35 220 43 147 44 278 91 356 130 l94 46 0 160 c-2 336 -36
492 -149 670 -162 256 -199 329 -235 477 -24 98 -29 133 -36 230 -13 197 -16
236 -20 278 -2 25 -7 74 -10 110 -3 36 -8 81 -10 100 -2 19 -7 64 -10 100 -3
36 -8 76 -10 90 -2 14 -6 52 -10 85 -3 33 -10 94 -15 135 -5 41 -11 98 -14
125 -15 138 -19 172 -22 190 -2 11 -6 54 -9 96 -3 42 -7 85 -9 96 -5 22 -17
206 -21 298 -1 34 4 97 12 140 17 98 19 147 9 203 -6 33 -5 42 7 42 28 0 50
39 50 88 0 83 -57 166 -143 206 -42 19 -65 21 -300 23 -241 3 -260 2 -344 -21z
m569 -26 c83 -19 122 -47 154 -111 18 -36 27 -67 24 -83 l-5 -26 -26 21 c-20
15 -35 19 -63 14 -24 -4 -50 -1 -75 10 -32 13 -47 14 -84 5 -34 -8 -54 -8 -75
0 -49 19 -63 20 -107 4 -28 -10 -51 -11 -73 -5 -22 6 -44 4 -71 -5 -25 -8 -51
-10 -74 -5 -19 4 -46 4 -60 0 -14 -4 -48 -7 -75 -8 -28 -1 -60 -8 -72 -16 -27
-19 -36 -7 -29 40 9 55 32 102 58 118 28 18 142 47 213 54 27 3 51 7 53 8 9 8
344 -5 387 -15z m-86 -214 c31 4 58 7 61 6 3 -1 23 -8 45 -16 25 -9 47 -11 62
-5 17 6 21 5 16 -6 -3 -8 0 -36 6 -62 18 -76 18 -92 6 -152 l-11 -55 -56 -17
c-86 -27 -112 -30 -277 -35 -163 -5 -261 7 -372 44 -65 22 -79 44 -85 140 -4
54 -2 74 14 102 16 30 25 35 58 38 45 3 188 11 289 16 39 2 84 8 100 13 22 8
37 6 59 -4 21 -11 43 -13 85 -7z m-434 -363 c100 -23 125 -24 280 -20 94 2
184 8 200 11 77 18 101 24 115 30 13 6 16 -5 16 -71 0 -76 12 -281 19 -326 2
-12 6 -53 10 -92 3 -38 8 -83 10 -100 2 -16 7 -61 10 -98 4 -37 8 -77 10 -87
2 -10 6 -47 9 -82 4 -35 8 -72 10 -83 2 -11 7 -58 11 -105 4 -47 8 -87 10 -90
2 -3 6 -36 10 -75 6 -67 10 -105 20 -197 2 -24 7 -79 10 -123 3 -44 8 -105 10
-135 2 -30 7 -91 10 -135 19 -266 78 -431 240 -675 141 -213 176 -346 180
-669 1 -133 -1 -157 -16 -172 -20 -20 -200 -92 -314 -126 -211 -63 -384 -87
-610 -87 -292 1 -586 65 -848 187 l-88 41 2 160 c3 180 18 307 50 411 27 90
54 141 141 273 165 249 214 404 233 732 3 58 8 130 10 160 2 30 7 88 10 128 9
125 16 215 20 262 2 25 7 83 10 130 3 47 8 101 10 120 2 19 6 76 10 125 3 50
8 104 10 120 2 17 7 73 10 125 4 52 8 111 10 130 9 87 20 292 20 363 -1 65 2
76 15 71 8 -3 65 -17 125 -31z"/>
<path d="M2855 2832 c-3 -3 -5 -114 -5 -246 l0 -241 45 -27 c24 -15 46 -24 48
-20 2 4 3 78 3 164 -1 87 1 158 4 158 3 0 66 -92 140 -204 146 -222 124 -200
245 -243 7 -2 11 82 11 256 l0 259 -46 15 -45 14 -5 -183 -5 -183 -40 62 c-22
34 -42 64 -45 67 -3 3 -52 75 -110 162 -90 134 -111 159 -147 176 -23 10 -45
17 -48 14z"/>
<path d="M3821 2678 c-29 -46 -99 -155 -156 -243 -57 -88 -123 -189 -145 -225
-23 -36 -77 -119 -121 -185 -43 -66 -88 -136 -99 -155 -11 -19 -28 -46 -37
-59 -14 -19 -14 -23 -3 -19 8 2 44 50 80 106 73 113 325 504 461 715 49 76 89
140 89 142 0 21 -25 -8 -69 -77z"/>
<path d="M4225 2472 c-31 -17 -62 -46 -85 -78 -32 -46 -38 -50 -60 -42 -14 6
-57 8 -96 5 -152 -11 -274 -110 -291 -238 -8 -59 15 -137 53 -179 l34 -37 -66
-87 c-36 -48 -64 -90 -61 -92 12 -13 96 48 134 97 l44 57 41 -10 c142 -31 304
37 362 154 48 96 28 209 -48 276 l-33 29 44 59 c63 84 85 114 81 114 -2 0 -25
-13 -53 -28z m-181 -188 c12 -4 -11 -40 -97 -155 -62 -82 -116 -147 -122 -146
-19 6 -45 72 -45 115 0 53 30 113 71 142 53 39 150 60 193 44z m115 -113 c16
-54 14 -86 -8 -129 -37 -72 -97 -105 -193 -106 -36 -1 -69 2 -73 5 -3 4 44 75
106 159 l112 151 22 -21 c12 -11 27 -38 34 -59z"/>
<path d="M2593 1920 c-5 -8 -8 -53 -7 -100 1 -47 5 -256 9 -465 4 -209 9 -427
10 -485 2 -58 4 -202 5 -320 2 -251 7 -269 95 -348 72 -64 237 -144 345 -167
8 -2 44 -10 80 -19 90 -22 779 -23 885 -2 257 51 451 161 511 291 l24 50 -3
775 c-2 720 -3 775 -19 778 -9 2 -50 -12 -90 -31 -157 -75 -384 -137 -669
-182 -84 -14 -376 -13 -464 1 -216 34 -413 95 -587 181 -98 49 -118 56 -125
43z m102 -81 c83 -48 331 -132 480 -163 165 -34 401 -48 515 -31 19 2 62 7 95
10 33 3 67 8 75 10 8 2 31 7 50 10 158 26 433 108 540 159 29 14 54 26 55 26
1 0 1 -339 1 -752 -1 -672 -3 -757 -17 -788 -49 -107 -240 -212 -479 -264
-252 -56 -606 -57 -849 -5 -31 7 -62 14 -70 15 -44 8 -186 61 -243 91 -78 40
-152 102 -173 144 -17 32 -22 176 -40 1207 -8 405 -14 373 60 331z"/>
</g>
</svg>
