<?xml version="1.0" standalone="no"?>
<!DOCTYPE svg PUBLIC "-//W3C//DTD SVG 20010904//EN"
 "http://www.w3.org/TR/2001/REC-SVG-20010904/DTD/svg10.dtd">
<svg version="1.0" xmlns="http://www.w3.org/2000/svg"
 width="700.000000pt" height="700.000000pt" viewBox="0 0 700.000000 700.000000"
 preserveAspectRatio="xMidYMid meet">
<metadata>
Created by potrace 1.14, written by Peter Selinger 2001-2017
</metadata>
<g transform="translate(0.000000,700.000000) scale(0.100000,-0.100000)"
fill="#000000" stroke="none">
<path d="M3375 6944 c-141 -19 -221 -40 -257 -68 -24 -18 -57 -94 -64 -150 -6
-40 -4 -50 16 -71 13 -14 29 -25 35 -25 6 0 12 -15 12 -32 1 -18 9 -76 18
-128 14 -76 16 -124 11 -240 -4 -80 -9 -161 -11 -180 -2 -19 -6 -78 -10 -130
-4 -52 -8 -111 -10 -130 -2 -19 -6 -75 -9 -125 -4 -49 -8 -106 -11 -125 -2
-19 -6 -71 -10 -115 -3 -44 -8 -100 -10 -125 -2 -25 -7 -85 -10 -135 -4 -49
-8 -108 -10 -130 -2 -22 -6 -80 -10 -130 -3 -49 -8 -119 -10 -155 -2 -36 -7
-107 -10 -158 -4 -51 -8 -103 -11 -115 -2 -12 -7 -38 -10 -57 -9 -60 -54 -201
-87 -269 -17 -36 -69 -127 -117 -201 -48 -74 -94 -152 -104 -173 -18 -38 -53
-135 -54 -150 0 -4 -5 -31 -11 -60 -21 -103 -29 -258 -22 -463 1 -29 7 -34 90
-72 183 -84 433 -155 631 -179 149 -18 478 -8 615 19 28 5 61 12 75 14 139 27
451 137 498 176 21 18 14 360 -10 487 -28 154 -57 221 -165 388 -168 261 -221
421 -238 723 -3 58 -8 128 -10 155 -3 28 -7 79 -10 114 -3 35 -7 85 -10 110
-3 25 -7 64 -10 86 -3 22 -7 67 -10 100 -3 33 -8 76 -10 95 -5 38 -8 65 -25
215 -6 55 -13 114 -15 132 -3 18 -7 63 -10 100 -3 37 -8 75 -10 83 -2 8 -7 58
-10 110 -4 52 -9 104 -11 115 -2 11 -7 90 -10 175 -4 120 -2 167 9 210 8 30
14 80 14 112 -2 47 1 58 15 62 40 10 48 88 17 156 -39 86 -99 130 -204 149
-88 16 -327 19 -430 5z"/>
<path d="M2851 2587 l-1 -244 48 -26 48 -26 -1 165 c0 90 2 164 5 164 3 0 66
-92 140 -204 146 -222 125 -200 245 -243 7 -2 10 86 10 256 l0 259 -47 15 -48
15 -2 -184 -3 -184 -150 224 c-136 203 -154 226 -190 240 -23 9 -43 16 -47 16
-3 0 -6 -110 -7 -243z"/>
<path d="M3866 2753 c-3 -10 -32 -57 -63 -106 -32 -48 -112 -171 -178 -274
-66 -103 -157 -244 -202 -313 -46 -69 -96 -147 -113 -175 -17 -27 -38 -60 -46
-72 -10 -15 -12 -23 -5 -23 6 0 28 26 48 58 20 31 86 134 146 227 61 94 130
202 155 240 107 167 177 274 213 328 22 32 39 61 39 64 0 4 8 15 17 25 11 13
13 22 6 29 -7 7 -12 5 -17 -8z"/>
<path d="M4228 2475 c-30 -16 -59 -43 -84 -78 l-37 -53 -54 10 c-114 20 -246
-31 -316 -125 -62 -83 -58 -214 10 -290 l35 -38 -67 -86 c-37 -48 -65 -88 -63
-90 2 -2 23 6 47 18 28 13 60 41 88 78 l44 57 42 -10 c106 -24 241 15 315 92
55 56 76 114 69 188 -6 68 -26 111 -71 150 l-33 29 44 59 c62 83 85 114 81
114 -2 -1 -24 -12 -50 -25z m-181 -193 c13 -8 -204 -301 -224 -302 -6 0 -19
20 -28 45 -44 115 17 226 140 256 41 10 97 10 112 1z m96 -72 c58 -98 12 -219
-103 -267 -30 -12 -132 -14 -150 -3 -10 6 5 33 57 102 38 51 88 119 111 150
45 62 58 64 85 18z"/>
<path d="M2606 1847 c1 -34 5 -213 8 -397 4 -184 9 -447 12 -585 3 -137 7
-315 8 -395 2 -166 9 -186 92 -258 68 -61 239 -138 369 -167 17 -4 31 -7 32
-7 1 -1 44 -9 95 -19 75 -14 144 -17 363 -17 240 0 283 3 383 23 306 62 494
167 544 304 16 42 17 114 16 807 l-1 760 -66 -33 c-87 -44 -311 -116 -458
-147 -155 -33 -167 -35 -243 -42 -36 -3 -81 -8 -100 -10 -43 -5 -246 -5 -280
0 -14 2 -48 7 -75 10 -44 6 -160 29 -205 41 -151 39 -298 94 -420 155 l-77 39
3 -62z"/>
</g>
</svg>
