<svg id="Layer_1" data-name="Layer 1" xmlns="http://www.w3.org/2000/svg" width="788.05" height="434.94" viewBox="0 0 788.05 434.94"><defs><style>.cls-1,.cls-2{fill:none;stroke:#000;stroke-miterlimit:10;}.cls-1{stroke-width:2px;}.cls-2{stroke-width:0.75px;}</style></defs><path class="cls-1" d="M403.94,267.85c-.69,3.06.8,4.47,2.66,6,3.17,2.62,7.34,3.63,11.37,4.47,13.16,2.74,25,6.07,38,3.53"/><path class="cls-1" d="M476.94,332.85c4.25-3.61,4.88-8.32,5.71-14a216.75,216.75,0,0,0,1.11-54.34c-.8,1.54-5,3.78-5.82,5.32"/><path class="cls-1" d="M437.94,341.85c1.13,2.31,1,2.86.27,5.32-1.36,4.84-6.58,7.53-11.52,8.49s-10.13.8-14.81,2.65-8.78,6.76-7.38,11.59c1.08,3.74,5.1,6,9,6.31s7.7-.86,11.47-1.84a120.91,120.91,0,0,1,39-3.58c3.39.25,6.9.62,10.09-.55s5.91-4.45,5.18-7.77c-.88-3.92-5.72-5.46-9.73-5.3s-8.21,1.26-11.93-.25c-3.36-1.36-5.54-3.5-5.59-7.07"/><path class="cls-1" d="M404.63,269.75c-7.36,20.7.85,45.87,19,58.26,2.49,1.7,2.9,2.06,5.32,3.84"/><path class="cls-1" d="M579.94,171.85c3.52-3.74,5.8-5.71,9.09-9.65,23.28-27.86,24.49-67.44,24.58-103.75a159.37,159.37,0,0,1-94.35-3.55"/><path class="cls-1" d="M518.94,54.85c-11.73,26.48-12.09,59.85-3.51,87.52,4.93,15.9,13.26,32,9.91,48.3-2.61,12.73-11.75,23-21.23,32.17a4.94,4.94,0,0,0-.26,6.86c13.91,15.14,46.54,14.63,67.73,8.64a11.28,11.28,0,0,0,7.25-5.88c3.95-8.35-8.15-11.78-12.89-17.61-3.88-4.78-4.08-12.85-3-19"/><path class="cls-1" d="M306.94,124.85c5.08,8.31,19.82,11.84,29.51,10.83,21.29-2.22,42.18-7.19,63-12.16,8.28-2,16.78-4,23.71-9,5.15-3.66,9.28-11.13,5.25-16-2-2.36-.43-3.17-3.46-3.69"/><path class="cls-1" d="M437.94,121.85c-2.68-7.94-5.32-14.07-8.41-21.86"/><path class="cls-1" d="M308.94,127.85c2.41,11.07,3.91,19.09,6.32,30.17-10.57,3.09-22,6.82-28.07,16-7.24,11-3.56,26.9,6.19,35.75s24,11.39,37,9.45l6.22,29.06c10.95,4.57,23.36,3.54,35.1,1.79A326.59,326.59,0,0,0,455.12,226c1.81-.8,3.77-1.77,4.54-3.59a8,8,0,0,0,.22-4.12c-.81-6.44-.87-12-1.94-18.43"/><path class="cls-1" d="M317.94,175.85c-.46-2.64-.59-3.36-1-6"/><path class="cls-1" d="M316.94,170.85c-2.87,1.31-5.77,2.49-8.65,3.8-4.85,2.21-10.17,4.91-12,9.94-2.47,7,3.38,14.24,9.69,18.17a48.19,48.19,0,0,0,19.18,6.87c-.47-1.83.18-1.95-.27-3.78"/><path class="cls-1" d="M357.45,168a52.44,52.44,0,0,0-7.79-13.34c-9.94-13.1-18.89-5.08-18.15,7.82.24,4.06.68,8.15,1.27,12.26"/><path class="cls-1" d="M336.69,195.28c1.23,5.42,2.55,10.78,3.83,16s2.67,10.4,5.5,14.91,7.33,8.25,12.6,8.91a7.26,7.26,0,0,0,5-.91c2.94-2,2.79-6.32,2.33-9.85-1.72-13.08-3.31-24.42-5-37.5"/><path class="cls-1" d="M371.94,182.85a122.55,122.55,0,0,0,4.57,25.65c1.48,5.19,3.32,10.42,6.78,14.56s8.82,7,14.16,6.26a8.35,8.35,0,0,0,6.48-4.25,12.07,12.07,0,0,0,.89-4.13,158.1,158.1,0,0,0-7.51-63.9c-5.16-15.48-18.53-21.1-23.69-3.13a49.63,49.63,0,0,0-1.68,9.94"/><path class="cls-1" d="M423.94,133.85a17.38,17.38,0,0,0-3.51-2.48c-11.68-7.18-10.28,24.74-10,30.8a99.32,99.32,0,0,0,14.78,48.57c1.42,2.27,3.07,4.6,5.55,5.6,3.85,1.56,8.43-.82,10.61-4.37s2.47-7.91,2.42-12.07c0-.67.22-.39.19-1.05"/><path class="cls-1" d="M438.94,166.85c-.56-2.19-.39-.82-1-3"/><path class="cls-1" d="M442.94,187.85c-.26-2.24.39.22,0-2"/><path class="cls-1" d="M332.94,173.85c9.13-2.56,19.69-5.36,28.82-7.91,4.65-1.31,9.4-2.63,14.23-2.49s9.86,2,12.73,5.85a2.81,2.81,0,0,1,.71,2.4,3.13,3.13,0,0,1-1.11,1.32c-10.44,8.3-23.69,12-36.19,16.64s-23.5,8.64-30.19,20.19"/><line class="cls-1" x1="332.6" y1="174.11" x2="332.6" y2="174.11"/><path class="cls-1" d="M307.94,174.85a49.67,49.67,0,0,0,24.66-.74"/><path class="cls-1" d="M436.84,123.38A27.79,27.79,0,0,0,422.23,136a7,7,0,0,0-1.14,4.11c.45,4,5.77,4.92,9.77,4.72,6.64-.32,13.71-1,18.91-5.16s7.15-13,2.18-17.36-11.38-3.26-16,1.56"/><path class="cls-1" d="M430.94,144.85c-2.5,1.63-5.84,5.15-6.45,8.08-.89,4.25,2.55,8.45,6.63,9.94s8.59,1,12.9.44l9.52-1.18c2.73-.34,5.64-.76,7.68-2.61s2.74-4.6,2.94-7.28c.32-4.38-.76-9.14-4.05-12s-9.11-3-11.67.54"/><path class="cls-1" d="M462.94,165.85c-5.75-4-14.19-2.68-20.81-.37-3.25,1.13-6.6,2.33-9.11,4.69s-4,6.21-2.51,9.33c1.76,3.77,6.57,4.76,10.7,5.27,4.53.57,9.15,1.13,13.64.3s8.91-3.31,10.94-7.4.89-9.83-3.14-12"/><path class="cls-1" d="M455.94,185.85c-9-1-6,0-9.41.29-3.92.33-7,4.15-7.81,8-.31,1.54-.15,3.4,1.15,4.3a4.84,4.84,0,0,0,2.22.67q6.12.82,12.29,1.09c4.44.19,10-.55,11.44-4.74,1-2.74-.52-5.93-2.92-7.56a11.43,11.43,0,0,0-8-2.06"/><path class="cls-1" d="M312.94,149.85c-9.51,4.46-21.24,9.88-27.92,18-3.77,4.58-6.34,10-10,14.69-5.95,7.51-14.43,12.5-22.73,17.27-82,47-166.94,88.54-251.83,130.05"/><path class="cls-1" d="M333.94,234.85c-34.31.68-63.81,26.11-92.4,45.09-20.94,13.89-43.44,25.23-65.33,37.56A818.43,818.43,0,0,0,58.46,398.08"/><path class="cls-1" d="M502.16,327.9c-4.51-1-8.64,2.4-12.94,4.07-7.25,2.8-15.37.73-22.85-1.36l-22.6-6.32c-2.9-.81-5.91-1.63-8.89-1.2s-5.95,2.48-6.47,5.45c-.61,3.48,2.16,6.55,4.74,9,4.55,4.29,9.29,8.58,15,11.05,4.08,1.75,8.5,2.51,12.8,3.63,14.16,3.7,28.09,12.83,37.95,23.65"/><path class="cls-1" d="M485.48,275.62a83.25,83.25,0,0,1,60,42.09c5.22,9.69,8.48,20.38,14.26,29.74,5.44,8.81,12.93,16.13,20.43,23.27q27.18,25.89,55.81,50.19"/><path class="cls-1" d="M497.94,374.85c3.11,8.32,8,13.49,16.66,15.38,4.07.89,8.4.84,12.2,2.56,3.54,1.59,6.24,4.55,8.85,7.42l30.78,34.05"/><path class="cls-1" d="M484.54,301.84A21.85,21.85,0,0,1,503.7,315.2"/><path class="cls-1" d="M401.94,282.85c-3.78,1.42-10,4-12.51,7.16s-3.08,8.27-.11,11c3.22,3,6.47,3.25,10.62,1.83-4.24-.26-6.51,1.61-7.12,5.82a8.9,8.9,0,0,0,6.53,9.6c3.65.86,3.17,1.13,6.59-.42-1.86,1.66-3,0-1.37,3.14,2.54,5.75,10.27,8.51,15.87,5.65"/><path class="cls-1" d="M577.91,171.19c-9.18-7.82-15.87-18.93-26.86-23.88a12.9,12.9,0,0,0-7.73-1.34c-2.6.51-5,2.6-5.22,5.25-.34,4.65,5.29,6.94,9.31,9.29,5.74,3.35,9.64,9.26,11.86,15.53s3,15.19,3.67,21.81"/><path class="cls-1" d="M579.69,172a4.05,4.05,0,0,1-1.78-.82"/><path class="cls-1" d="M581.58,171c0,1-.88,1.19-1.89,1"/><path class="cls-1" d="M604.07,134.43c10.64,3.2,16.28,13.78,19,24.55s3.5,22.32,9.12,31.91c3.7,6.32,9.25,11.31,14.7,16.2C692,247.49,737.26,288,787.5,321.84"/><path class="cls-1" d="M562.94,195.85c-2.7,12.76,5.63,25.15,17.6,30.32,4.45,1.93,9.35,2.7,13.69,4.86,5.35,2.66,9.47,7.23,13.44,11.7C658,299.62,705.41,360,765.11,407"/><path class="cls-1" d="M511.94,124.85c-1.85,1.44-7.95,1.24-10,2.39-3.49,2-2.13,7.85,1.42,9.7s6.69.84,10.57-.09"/><path class="cls-1" d="M513.94,139.85c-4.41-1.14-8.75,5.06-6.51,9s7.26,5.37,11.8,5.68"/><path class="cls-1" d="M307.28,125.5a15.51,15.51,0,0,1,12.94-24.68c-4.54-8.75,2.7-21.08,12.55-21.39,2.61-.08,5.39.51,7.71-.68,2.89-1.46,4-5.11,6.56-7,4.13-3.1,10-.8,14.55,1.58-.16-5.77,7.12-9,12.79-8s10.53,4.73,16.06,6.37c4.35,1.29,9.75,1.81,11.75,5.88.92,1.89,1,4.38,2.7,5.57,2.15,1.5,5.15-.18,7.7.44s4,3.33,5.64,5.38c2.78,3.39,7,5.38,9.86,8.67s3.92,9.14.29,11.59"/><path class="cls-1" d="M518.11,56.16l5-8c1.44-2.29,1.41-2.14,3.9-4.42s6-3.7,9.3-2.81c-.82-6.73,5.52-13.37,12.27-12.88,4.42.32,9.88,2.77,12.58-.74a7.89,7.89,0,0,1,14,6.2c3-.56,6.08-1.11,9-.34s5.64,3.29,5.59,6.32c0,2.73,4,2.63,6.75,2.51a11.25,11.25,0,0,1,11.06,8.24c4.88.08,8.43,6.35,6,10.58"/><path class="cls-1" d="M404.85,270.52c-1.84-4.12-3.72-9.27.09-11.67s7.85-9.76,12-8c-.76-9.57,10.77-10.55,17.73-6.36,1.83,1.11,4.33.74,6.36.1,2.5-.79,4-3.25,6-4.91a11,11,0,0,1,11.13-1.61c1.44.62,2.79,1.56,4.35,1.76,3.58.46,6.39-3,9.86-4.06,5.32-1.57,10.35,2.87,14.12,6.93,2,2.14,4.07,4.47,4.45,7.36.72,5.42-4.19,9.76-8,13.63-8.54,8.57-8,13.92-5.54,19.74a10.94,10.94,0,0,1,.52,5.59c-.52,3.89-4,6.56-6.76,9.34s-5.14,7.11-3.05,10.43c2.85,10.06-5.15,8.06-7.53.22-.37-3.79,1-7.5,2.13-11.14s2-7.63.64-11.19-5.74-6.19-9.08-4.36"/><path class="cls-2" d="M483.44,223.35c-.25.16-1.33,1.17-1.34,1.48-.06,1.32.06,3,1.28,3.51a2.06,2.06,0,0,0,2.64-1.85c.07-1.26-1.41-2.65-2.58-3.14"/><path class="cls-2" d="M476.63,211.48a4,4,0,0,0-2.8,3.89,3,3,0,0,0,3.65,2.62,3.15,3.15,0,0,0,1.09-.67,3.49,3.49,0,0,0,1.14-3.35,2.52,2.52,0,0,0-2.8-1.86"/><path class="cls-2" d="M487,214a3.26,3.26,0,0,0-.29,2.63,1.85,1.85,0,0,0,2.19,1.15,1.72,1.72,0,0,0,1.05-1.66,2.49,2.49,0,0,0-.95-1.81c-.63-.52-1.74-.7-2.16,0"/><path class="cls-2" d="M333.41,70.57c-.26.17-1.33,1.17-1.35,1.48-.06,1.33.07,3,1.28,3.51A2.06,2.06,0,0,0,336,73.71c.08-1.26-1.41-2.65-2.57-3.14"/><path class="cls-2" d="M328.6,39.71a4,4,0,0,0-2.81,3.88,3,3,0,0,0,3.66,2.62,3.25,3.25,0,0,0,1.09-.67,3.47,3.47,0,0,0,1.14-3.34,2.53,2.53,0,0,0-2.8-1.87"/><path class="cls-2" d="M338,48.23a3.25,3.25,0,0,0-.29,2.63A1.84,1.84,0,0,0,339.85,52a1.73,1.73,0,0,0,1.06-1.66,2.48,2.48,0,0,0-1-1.8c-.63-.53-1.74-.7-2.16,0"/><path class="cls-2" d="M339.1,65.58c-.11-.28-.89-1.53-1.19-1.6-1.29-.31-2.93-.5-3.69.58a2.06,2.06,0,0,0,1.31,3c1.22.31,2.87-.88,3.57-1.93"/><path class="cls-2" d="M352.05,61.16a4,4,0,0,0-3.28-3.49,3,3,0,0,0-3.27,3.08A3.24,3.24,0,0,0,346,62,3.45,3.45,0,0,0,349,63.71a2.52,2.52,0,0,0,2.37-2.39"/><path class="cls-2" d="M347.6,70.85a3.22,3.22,0,0,0-2.53-.78A1.83,1.83,0,0,0,343.53,72,1.73,1.73,0,0,0,345,73.34a2.46,2.46,0,0,0,2-.59c.63-.52,1-1.57.41-2.12"/><path class="cls-2" d="M574.64.36a4,4,0,0,0-2.81,3.88,3,3,0,0,0,3.66,2.62,3.25,3.25,0,0,0,1.09-.67,3.47,3.47,0,0,0,1.14-3.34A2.53,2.53,0,0,0,574.92,1"/><path class="cls-2" d="M584,8.88a3.25,3.25,0,0,0-.29,2.63,1.84,1.84,0,0,0,2.18,1.14A1.73,1.73,0,0,0,587,11a2.48,2.48,0,0,0-1-1.8c-.63-.53-1.74-.7-2.16,0"/><path class="cls-2" d="M585.14,26.23c-.11-.28-.89-1.53-1.19-1.6-1.29-.31-2.93-.5-3.69.58a2.06,2.06,0,0,0,1.31,2.95c1.22.31,2.87-.88,3.57-1.93"/><path class="cls-2" d="M598.09,21.81a4,4,0,0,0-3.28-3.49,3,3,0,0,0-3.27,3.08,3.24,3.24,0,0,0,.45,1.2,3.46,3.46,0,0,0,3.06,1.76A2.52,2.52,0,0,0,597.42,22"/></svg>