<svg id="Layer_1" data-name="Layer 1" xmlns="http://www.w3.org/2000/svg" width="882.31" height="649.36" viewBox="0 0 882.31 649.36"><defs><style>.cls-1,.cls-2{fill:none;stroke:#000;stroke-miterlimit:10;}.cls-1{stroke-width:2px;}.cls-2{stroke-width:1.74px;}</style></defs><path class="cls-1" d="M536.81,527.4c-6,1-4.65,1.87-12,5-1.88,3.66-4.11,10.93-.94,13.55s7.35,3.63,11.37,4.46c19.2,4,40.44,5.48,57.27-4.59,5.92-3.54,11.39-11.41,7-16.77-1.79-2.21-4.71-3.11-7.47-3.77a102,102,0,0,0-55.23,2.26"/><path class="cls-1" d="M521.9,541.85c-7.35,20.7.86,45.87,19,58.26,3.57,2.43,7.48,4.44,10.55,7.48s5.2,7.51,4,11.67c-1.36,4.84-6.59,7.53-11.52,8.49s-10.14.81-14.81,2.66-8.78,6.75-7.39,11.58c1.08,3.75,5.11,6,9,6.31s7.71-.85,11.48-1.83a120.57,120.57,0,0,1,39-3.58c3.39.24,6.91.61,10.1-.56s5.91-4.44,5.17-7.76c-.87-3.92-5.71-5.46-9.72-5.3s-8.21,1.26-11.94-.25c-5.36-2.18-7.18-10.17-3.27-14.45,5-5.44,14.3-3.19,20.52-7.12,5.31-3.37,7-10.26,7.88-16.49A216.67,216.67,0,0,0,601,536.63l-2.39,4.61"/><path class="cls-1" d="M636.26,273.86a104.69,104.69,0,0,0,81.48,19.47c9.46-1.76,20.34-6.75,21.33-16.32.58-5.67-2.82-11.18-7.41-14.56s-10.23-5-15.78-6.28a193.12,193.12,0,0,0-37-4.9c-15.38-.54-33.71,2.62-40.2,16.58-2.61,5.63-2.73,12.06-3,18.26a351.42,351.42,0,0,1-7.47,60.12c-.48,2.26-1,4.7,0,6.8a9.15,9.15,0,0,0,2.9,3.26c8.51,6.56,19.78,8,30.46,9.14l58.25,6.44L726,353.15c8.78,3.94,19.19,4.76,28,1s15.67-12.61,15.87-22.23-7.09-19.21-16.63-20.46c-4-.52-8.81,0-11.28-3.18-1.32-1.7-1.5-4-1.64-6.14q-.69-11.25-1.39-22.51"/><path class="cls-2" d="M740.4,317c-2.49,8.66-6.65,21.67-9.14,30.33,9.9,1.68,21.11-4.18,23.35-12.19s-4.91-16.67-14.9-18"/><path class="cls-1" d="M778.14,384.76c9,21.65,10.85,45.46,13.13,68.78.4,4.16,1,8.73,4.21,11.44a16.38,16.38,0,0,0,6.46,2.85c20.46,5.66,42.65,10.93,62.46,3.29a11.79,11.79,0,0,0,4.77-2.89c1.48-1.65,2-3.91,2.52-6.08a367.46,367.46,0,0,0,9-82.56"/><path class="cls-1" d="M824.81,364.4a105.36,105.36,0,0,0-17,2,97.39,97.39,0,0,0-14.42,4.13,65.57,65.57,0,0,0-7.16,3.14c-2.42,1.23-4.89,2.57-6.53,4.73s-2.24,5.35-.69,7.58,4.48,2.75,7.13,3.06a154.81,154.81,0,0,0,28.72.54c6.71-.48,13.38-1.35,20-2.22l17.24-2.24c9.2-1.2,18.41-2.4,27.49-4.35.77-.16.66-.76,1.17-1.37a2.49,2.49,0,0,0,0-3c-.85-1.17-1.24-1.37-1.74-1.55C846.15,363.5,824.81,364.4,824.81,364.4Z"/><path class="cls-1" d="M88.76,1c-13.15,3.49-45.13,18-55.62,26.62C15.41,42.23,8.31,65.78,2.1,87.91c-.84,3-1.67,6.21-.59,9.11,1,2.69,3.45,4.54,5.79,6.22,52.23,37.5,109.59,67.45,161.59,105.27,18.75,13.62,38,28.79,61,31.55,12.42,1.5,24.94-.8,37.44-1.39,34.12-1.63,67.88,9.55,97.69,26.23s56.22,38.73,82.44,60.64c-2.15-20.17,11.42-40.92,30.76-47,2.29-.73,4.93-1.22,7,0,2.52,1.56,2.95,5,2.81,8-1,20.92-18.9,39.74-39.75,41.74"/><path class="cls-1" d="M431.58,311.23c-.71-6.71,3.88-12.69,8.22-17.86l8.08-9.64c3.43-4.09,6.94-8.25,11.47-11.08s10.32-4.17,15.27-2.18c4.06,1.63,9.45,4.18,10.14,8.5"/><path class="cls-1" d="M87.31,1.4h1c76.31,29.12,135.46,81,201.13,114,12.39,6.23,27.28,7.33,38.07,16,9.58,7.75,15.61,18.91,22.42,29.19,31.11,46.92,80.64,77.63,126.09,110.84"/><path class="cls-1" d="M172.06,46.48c-10.61.64-20.5,6-28.37,13.18s-14,16-19.89,24.83C108.76,107,94,131.9,95.11,158.94"/><path class="cls-1" d="M227,80.4c-7.27-1.14-14.69,2-20.28,6.84s-9.66,11.07-13.65,17.25l-17.88,27.69c-12.54,19.43-25.49,40.07-26.56,63.17"/><path class="cls-1" d="M406.52,441.56a18.48,18.48,0,0,0-7.71,3,4.07,4.07,0,0,0-1.7,2.38,3.92,3.92,0,0,0,.16,1.73,11.15,11.15,0,0,0,4.29,5.72,24.27,24.27,0,0,0,6.55,3.14c11.07,3.76,23.1,4.29,34.64,2.46a59.17,59.17,0,0,0,8.53-1.94,3.77,3.77,0,0,0,2-1.21,3.14,3.14,0,0,0,.46-1.5,8.75,8.75,0,0,0-3.18-7.56,16.48,16.48,0,0,0-4.12-2.2A88.72,88.72,0,0,0,431,440.36c-4.71-1-10.08-.52-14.88-.14A79.61,79.61,0,0,0,406.52,441.56Z"/><path class="cls-1" d="M396.87,447.56a54.66,54.66,0,0,0,.14,10.31l3.75,49a133.59,133.59,0,0,0,20.18,2.68,47.38,47.38,0,0,0,20-3.23,1.72,1.72,0,0,0,.54-.32,1.61,1.61,0,0,0,.31-.92c2-16.44,8.15-32.1,11.42-48.35"/><path class="cls-1" d="M749.25,503.05c5.14.77,4,1.44,10.27,3.84,1.61,2.81,3.52,8.39.81,10.4s-6.29,2.78-9.74,3.43c-16.43,3.07-34.61,4.2-49-3.53-5.07-2.72-9.75-8.75-6-12.87,1.53-1.7,4-2.39,6.4-2.89a96.91,96.91,0,0,1,47.28,1.73"/><path class="cls-1" d="M762,514.14c6.3,15.89-.73,35.21-16.26,44.72-3,1.87-6.41,3.41-9,5.75s-4.46,5.76-3.46,9c1.17,3.71,5.64,5.78,9.86,6.52s8.68.61,12.68,2,7.52,5.19,6.33,8.9c-.93,2.87-4.38,4.59-7.7,4.84s-6.6-.66-9.83-1.41a114.83,114.83,0,0,0-33.34-2.75c-2.9.19-5.91.47-8.64-.42s-5.07-3.42-4.43-6c.74-3,4.88-4.2,8.32-4.07s7,1,10.22-.19c4.59-1.67,6.14-7.81,2.8-11.09-4.24-4.18-12.24-2.45-17.56-5.47-4.56-2.59-6-7.88-6.75-12.66a149,149,0,0,1-1-41.7l2.05,3.53"/><path class="cls-1" d="M468.31,282.9c9.68,11,32.72,13.12,45.15,5.39s21.27-20,32.18-29.71c15.53-13.87,35-22.5,54.78-29.11,14.46-4.85,30.05-8.75,44.84-5,14.15,3.55,26,14,33.28,26.59s15.12,29.3,15.77,43.87"/><path class="cls-1" d="M457.31,292.9c20.79,12.53,48.67,35.21,68.36,49.41,21,15.13,40.72,32,62.93,45.27s47.58,22.77,73.39,21.25c13-.77,25.74-4.32,38.22-8.15,17.3-5.31,34.85-11.43,48.76-23,11.09-9.23,19.36-21.54,30.7-30.46s28-13.89,40.07-6.06c12.77,8.25,15.2,30.55,15.57,45.74"/><path class="cls-1" d="M454.31,297.9c-4.88,10.34-1.09,45.71,7.34,53.44q35.69,32.71,65.82,78.1C548.55,461.3,557,515.72,558.31,553.9"/><path class="cls-1" d="M728.31,522.9c-1.54-12.94-.24-37.51-4.81-49.72s-12.51-23.64-24-29.81c-13.45-7.23-29.56-6.37-44.79-7.48-49.66-3.63-95.14-30-132.93-62.37-21.63-18.55-50-53.13-67.48-75.62"/><path class="cls-1" d="M452.31,304.9c-2.15,9.86-3,30.91-2.16,41s3,20.66-.69,30.07c-3.89,9.83-13.43,16.19-19.12,25.09-10,15.71-5.83,41.63-2,59.88"/><path d="M653.68,289.52c1.69,0,3.42,1.15,5.13,3.41,2.55,3.37,2.58,8.19,2.32,12-.94,13.83-5.3,27.16-9.68,39.63-1,2.83-2.06,5.49-4.22,6.87a5.7,5.7,0,0,1-3.13.88,6.68,6.68,0,0,1-4.71-1.93c-2-2.08-2.59-5.21-2.89-8.29a80,80,0,0,1,4.86-36c4.06-10.71,8.44-16.61,12.32-16.61m0-1c-6.34,0-11.43,12.43-13.25,17.25a80.83,80.83,0,0,0-4.92,36.44c.31,3.19.92,6.59,3.16,8.89a7.67,7.67,0,0,0,5.43,2.23,6.71,6.71,0,0,0,3.67-1c2.49-1.6,3.65-4.59,4.63-7.38,4.55-13,8.8-26.2,9.72-39.89.3-4.41.14-9.18-2.52-12.7-2.05-2.71-4-3.8-5.92-3.8Z"/><path d="M687.45,299.6c1.51,0,3.07,1,4.62,2.95,2,2.57,2.29,6.26,2.25,9.85-.13,13.13-2.46,24.73-6.92,34.5-2.59,5.65-5.45,9.05-9,10.68a9.38,9.38,0,0,1-3.91.83c-3.53,0-6.42-1.72-7.34-4.39-.82-2.33-.13-5.11.42-7.34L671,332.81l2.29-9.28c1.92-7.81,7.92-23.93,14.15-23.93m0-1c-7.83,0-14,20-15.12,24.69q-2.87,11.58-5.71,23.15c-.64,2.6-1.28,5.38-.4,7.91,1.16,3.32,4.71,5.06,8.29,5.06a10.3,10.3,0,0,0,4.33-.92c4.53-2.09,7.39-6.64,9.46-11.18,5-10.87,6.91-22.94,7-34.9,0-3.66-.19-7.61-2.47-10.48-1.86-2.35-3.67-3.33-5.4-3.33Z"/><path d="M724,300.21a7.34,7.34,0,0,1,1.88.26c3.17.89,4.21,5.1,4.12,8.75A76.51,76.51,0,0,1,727.62,324c-2.39,10.57-4.85,21.51-9.89,31.28a19.15,19.15,0,0,1-4.56,6.22,8.11,8.11,0,0,1-4.93,1.87,5.53,5.53,0,0,1-1.78-.29c-2.58-.87-4-3.52-4.46-5.71a21.88,21.88,0,0,1,.32-8.17A159.61,159.61,0,0,1,710.41,320c.3-.77.62-1.69,1-2.67,2.24-6.39,6-17.09,12.58-17.09m0-1c-8.36,0-12.25,14.57-14.48,20.4a159.22,159.22,0,0,0-8.14,29.46,22.61,22.61,0,0,0-.32,8.55c.6,2.81,2.4,5.53,5.12,6.45a6.55,6.55,0,0,0,2.1.34,9.08,9.08,0,0,0,5.55-2.09,19.72,19.72,0,0,0,4.83-6.54c5.06-9.83,7.54-20.74,10-31.52a77.4,77.4,0,0,0,2.36-15c.1-3.92-1.08-8.69-4.85-9.74a7.9,7.9,0,0,0-2.15-.3Z"/></svg>