<svg id="Layer_1" data-name="Layer 1" xmlns="http://www.w3.org/2000/svg" width="475.79" height="318.19" viewBox="0 0 475.79 318.19"><defs><style>.cls-1,.cls-2,.cls-4,.cls-6,.cls-7,.cls-8,.cls-9{fill:none;}.cls-1,.cls-2,.cls-3,.cls-4,.cls-5,.cls-6,.cls-7,.cls-8,.cls-9{stroke:#000;stroke-miterlimit:10;}.cls-1,.cls-3{stroke-width:1.74px;}.cls-2{stroke-width:3px;}.cls-4,.cls-5{stroke-width:2px;}.cls-6{stroke-width:1.05px;}.cls-8{stroke-linecap:round;}.cls-9{stroke-width:0.25px;}</style></defs><path class="cls-1" d="M3.37,310.8c1.74,2,4.56,2.66,7.19,3.05,19.88,3,40-2,60.11-2.62,16.16-.53,32.25,1.72,48.35,3.25,44.36,4.2,89,2.86,133.58,1.52,11.1-.33,22.42-.71,32.84-4.55,9.45-3.5,17.68-9.68,26.95-13.63,15.5-6.6,32.89-6.58,49.73-6.46l99.87.75a5.75,5.75,0,0,0,3.31-.65c1.21-.81,1.6-2.39,1.87-3.83a98.1,98.1,0,0,0,.93-30.06c-.21-1.76-.58-3.7-2-4.78s-3-1-4.62-.9l-82.25,3c-19.57.72-40.16,1.22-57.56-7.78-13.06-6.75-23.07-18.27-35.76-25.69-20.79-12.15-46.25-12.09-70.33-11.68-23.26.4-77.44,1.45-100.7,1.85"/><path class="cls-1" d="M25.89,212.57c-1.73,0-2.53.42-4.26.45-8.25.16-12.18,0-14.44,3.14"/><path class="cls-1" d="M114.89,211.57c-18.61.31-35.86.47-54.47.79-1.53,0-1,.18-2.53.21"/><path class="cls-1" d="M157.14,51.8c-2.4,6.25-5.15,13.16-3.21,19.56s5,18,13,21.21a19,19,0,0,0,12,2c2.49-.42,9.49-1.77,12-2,3.58-.33,10.21-.73,13-3C215.65,80,223.42,65.2,227.77,47.79c2.3-9.17.9-20.07-5.79-26.76-3.49-3.48-8.25-5.33-12.92-6.92C177.08,3.14,167.18,25.69,157.14,51.8Z"/><path class="cls-1" d="M188.89,92.57c-7.92,6.5-3.34,22.55,3.3,30.36s15.32,16.21,13.71,26.34c-.8,5-4.08,9.22-7.27,13.17q-13.81,17.1-28.11,33.77c-3,3.47-6,7-10,9.19-5.09,2.81-11.12,3.2-16.92,3.52L58,213.67l-.26-16.17c0-1.74,0-3.64,1.13-5,1.31-1.53,3.59-1.68,5.6-1.72l47.28-.84c6.77-.12,13.8-.3,19.87-3.33,5.46-2.72,9.57-7.48,13.54-12.12l20.15-23.59"/><path class="cls-1" d="M41.89,79.57c-1.49,14.37-3.1,27.2-4.6,41.57-.93,8.94-1.83,18.13.58,26.78s9,16.76,17.81,18.3S73,162.6,80.54,157.67l28.27-18.54"/><path class="cls-1" d="M135.89,98.57c-6.77-.92-12.22-5.61-19.34-6-9.52-.58-17.84,6.39-23.64,14s-10.39,16.33-18,22.11a9.26,9.26,0,0,1-4.74,2.18c-5.67.42-7.92-7.15-8-12.83a266.73,266.73,0,0,1,5.36-58.24L48.25,62.44"/><path class="cls-1" d="M156.89,79.57c-2.26,6-4.25,15-10,18"/><path class="cls-1" d="M39.89,154.57c-7.71,3.45-17.65,6.08-26.09,6.22a9.53,9.53,0,0,0-4.35.7"/><path class="cls-1" d="M190.45,45.63c-.56,4.21-4.59,6.89-7.89,9.56a42.68,42.68,0,0,0-7.61,8c.23,2.09,2.7,3,4.74,3.49L185.4,68"/><path class="cls-2" d="M179.61,73.93a9,9,0,0,1,9.9,1.16c1.79,1.57,2.89,3.83,4.76,5.3a7.92,7.92,0,0,0,10.83-1.51"/><path class="cls-2" d="M173.6,73.34a3.75,3.75,0,0,0-1.95-4.08,10.39,10.39,0,0,0-4.72-1.05c-1.68-.09-3.47-.19-4.84-1.17s-2-3.2-.74-4.34"/><path class="cls-1" d="M204.35,53.38c2.14.91,4.39,1.85,6.71,1.62s3.63-2.27,4.55-4.41c.6-1.4-1.05-4-4.14-4.69-2.88-.67-8.46-1.54-10.88-.21C196.55,47.9,201.47,52.15,204.35,53.38Z"/><path class="cls-1" d="M183.89,40.57c-1.68-2.27-6-4.72-8.63-6.08-1.66-.87-3.92.9-4.59,2.65s.39,4,1.91,5.27a9.07,9.07,0,0,0,7.74,1.9,4.77,4.77,0,0,0,2.79-1.54,2.53,2.53,0,0,0,.19-3"/><path class="cls-2" d="M199.39,41.07c3.87.1,7.8-.64,11.67-.81,4.33-.19,9.43,3.43,11.33,6.81"/><path class="cls-2" d="M188.39,40.07c-1.68-3.39-4.62-7.32-8-9-3.13-1.56-8.22-3.11-11-1"/><path class="cls-3" d="M209,46.58a2.67,2.67,0,0,0-2.34.06,3.83,3.83,0,0,0-2.11,4A3.51,3.51,0,0,0,208,53.46a3.23,3.23,0,0,0,3-3.22c-.07-1.57-1.3-2.8-2.46-3.85"/><path class="cls-3" d="M176.89,36.57c-.16,1.66-.12-.12,0,0-1.22,1-2.18.76-2.83,2.23a3.8,3.8,0,0,0,.76,4.44c1.72,1.33,4.53,0,5.1-2.13S178.55,38,176.89,36.57Z"/><path class="cls-4" d="M165.43,73.39c2.71,2.58,5.49,5.21,8.92,6.71s9.51.66,12.54-1.53"/><path class="cls-4" d="M225.81,57.22l3.48,0a2.11,2.11,0,0,1,1.83.63,1.82,1.82,0,0,1,.24.89C231.72,63,229.23,67,226.28,70c-1.23,1.26-2.74,2.5-4.51,2.48s-2.79-.22-1.84-1.71"/><path class="cls-5" d="M164.85,29.24a63.3,63.3,0,0,1,6.2-11.53,63.66,63.66,0,0,1,9-9.31,36.66,36.66,0,0,1,6.46-5c7.34-4.12,17-2.61,23.84,2.23a26.4,26.4,0,0,0,5.12,3.29c2.81,1.13,6,.82,8.89,1.75C228.59,12,231.62,16,233,20.23s1.47,8.81,1.51,13.29c.08,8.24,0,17-4.45,24-.54.85-1.44,1.76-2.39,1.43s-1.08-1.67-1-2.69c.44-4.15,1.51-8.21,1.77-12.36s-.4-8.59-3-11.83c-4.37-5.44-12.63-5.94-17.82-10.59a6.63,6.63,0,0,0-1.74-1.31,5.28,5.28,0,0,0-2-.28l-13.52-.24c-3.65-.06-7.41-.1-10.8,1.23-5.22,2.05-8.7,7-11.47,11.84-1.15,2-5.1,11.61-7.7,9.68C158.11,40.6,163.92,31.29,164.85,29.24Z"/><path class="cls-4" d="M57.89,40.57c2.48-6,4.29-11.64,6.77-17.62"/><path class="cls-4" d="M17.89,54.57c-.21.46-.05-.4-.26.09-1.95,4.49-4,9.15-7.46,12.57a1,1,0,0,0,.48,1.71A136.8,136.8,0,0,1,43.53,80.52a4.18,4.18,0,0,0,4.61-.44c1.82-1.59.9-3.81.33-5.76-2-6.93.8-14.25,3.56-20.92,1-2.44,1.85-4.4,2.86-6.83"/><path class="cls-4" d="M25.58,36.2c-.36.84-.33.53-.69,1.37"/><path class="cls-4" d="M34.89,14.57c-2.54,5.86-5.2,12.05-7.87,18.28"/><path class="cls-1" d="M62.68,59.82v-.35a19.48,19.48,0,0,1,.82-4.89,31.51,31.51,0,0,0,.86-3.41c.53-3.87-1.74-7.69-4.83-10.08s-6.9-3.61-10.62-4.79c-1.29-.41-2.87-.75-3.85.18a2.48,2.48,0,0,0-.43,2.69,5.59,5.59,0,0,0,1.86,2.18c2.78,2.13,6.52,3.45,8,6.64"/><path class="cls-1" d="M27,31.74c-1.73-.67-4.27,0-4.44,1.86-.13,1.45,1.26,2.56,2.54,3.27a34.16,34.16,0,0,0,5.65,2.55,4.42,4.42,0,0,0-.26-4.08,13.24,13.24,0,0,0-2.78-3.2"/><path class="cls-1" d="M22.89,35.57c-1.58-.14-3.57,1.86-3.65,3.44-.09,1.8,1.41,3.25,2.81,4.38a9.73,9.73,0,0,0,3.48,2.06,3.52,3.52,0,0,0,3.71-1,3.57,3.57,0,0,0-.34-4.19,8.5,8.5,0,0,0-3-2.68"/><path class="cls-1" d="M19.89,41.57c-1.13-.4-3.22,1.4-3.59,2.54a3.45,3.45,0,0,0,1.13,3.25,10.59,10.59,0,0,0,3,1.93c1,.48,2.24,1,3.14.3,1.22-.9.08-3.73-.7-5"/><path class="cls-1" d="M18.89,49.57a6.31,6.31,0,0,0-3.29.11A1.81,1.81,0,0,0,15,51c-.1,2.17,2.29,3.65,4.45,3.91,1.3.16,3.05-.34,3.05-1.65a2.66,2.66,0,0,0-.89-1.64c-1.05-1.16-1.7-.9-2.75-2"/><path class="cls-1" d="M58.89,192.57c-7.5-.45-17,2.7-23.54,6.34a20.14,20.14,0,0,0-5.15,3.7,20.55,20.55,0,0,0-4,7.6,79,79,0,0,0-4.2,23c2.17.65,4.47-1,5.52-3s1.22-4.35,1.72-6.56a15.31,15.31,0,0,1,3.68-7.35,9.3,9.3,0,0,1,7.47-3c2,.22,3.87,1.24,5.82,1.8a13.64,13.64,0,0,0,11.72-2.09"/><path class="cls-1" d="M141.89,97.33a20,20,0,0,0-7.19,1.6,58.68,58.68,0,0,1,13.08,19.12c2.38-1.11,4.74-.37,7.11-1.48-1.3-5.11-3.06-11.93-5.28-16.71C147.77,95.9,146,96.93,141.89,97.33Z"/><path class="cls-1" d="M167.33,116.65a47.57,47.57,0,0,0-7.92,1.29,32.92,32.92,0,0,0-2.13,8.57c3.1.87,6.4,0,9.51-.8l15.36-4.11c3.38-.9,10.14-1.55,6.35-6.51C184.42,109.74,172.36,116,167.33,116.65Z"/><path class="cls-3" d="M163.72,120.85c1.3.33,2.85,1,3,2.29a3.22,3.22,0,0,1-1.22,2.36c-.85.87-1.71,1.72-2.61,2.54a9.75,9.75,0,0,1-2.93,2.05,3.7,3.7,0,0,1-3.44-.25c-2.5-1.79-.72-6.22-2.77-8.51-1.61-1.79-4.46-1.22-6.87-1.25a11.34,11.34,0,0,1-5.64-1.61,16.46,16.46,0,0,1,5.59-6.77c1.58-1.1,3.75-1.9,5.35-.84,2.53,1.65,1.13,5.28,2.95,7.28S161.42,120.25,163.72,120.85Z"/><path class="cls-3" d="M159.17,117.68c-.47,1.72-4.23,1.9-6,1.74a3.29,3.29,0,0,1,1.68-2.62"/><path class="cls-1" d="M135.89,99.57A101.43,101.43,0,0,0,130.94,123c-1.08,10.55-.78,21.76-6.08,31q32.27-17.74,65.58-33.48"/><path class="cls-1" d="M130.89,120.57c-1.62-2-6.09-2.42-7.65-.33a8.35,8.35,0,0,0-1.26,4.23,280.51,280.51,0,0,0-1.72,31.87,1.42,1.42,0,0,0,.12.68c.33.59,1.24.39,1.81,0a12.45,12.45,0,0,0,2.87-2.79"/><path class="cls-1" d="M155.89,137.57c2.61,1.08,4.37,5.27,2.94,7.71s-4.1,3.82-6.69,4.95c-5.2,2.27-10.6,4.05-16,5.81-5.21,1.71-10.81,3.43-16.06,1.88"/><path class="cls-1" d="M119.89,156.57c.64,1.56-1,5.31-2.26,6.42-14.56,12.76-33,20.55-51.89,24.7S27.33,192.55,8,192.48l2.38,0"/><path class="cls-1" d="M7.89,203.57a9.24,9.24,0,0,0,3-.75c3.41-1.47,6.54-3.53,9.82-5.28a58.33,58.33,0,0,1,17.05-5.91"/><path class="cls-1" d="M458.13,252.39a20.31,20.31,0,0,0-5.7,12,48.67,48.67,0,0,0,.45,13.52c.77,5.38,1.86,11.11,6,14.63"/><path class="cls-3" d="M465,263.73c-.3,1.57-1,3.21-.41,4.69.29.73.87,1.32,1.17,2,1.05,2.57-1.7,5.12-1.93,7.88-.18,2.19,1.26,4.36.71,6.49s-2.73,3.61-2.28,5.63c.38,1.74,2.64,3.39,1.55,4.8,1.36,1.66,4.12,1.5,5.82.18a10.44,10.44,0,0,0,3.17-5.49c2.55-8.55,2.21-17.66,1.84-26.57-.12-3-.26-6.09-1.42-8.87-1.67-4-7.34-8.29-10.42-3C460.39,255.61,465.92,258.86,465,263.73Z"/><path class="cls-6" d="M33.87,10.72a6.39,6.39,0,0,1,2-3.25,4.76,4.76,0,0,1,2.46-1.32,2.53,2.53,0,0,1,2.48,1,10.81,10.81,0,0,1,6.36-5.27,5.27,5.27,0,0,1,3.42,0,2.85,2.85,0,0,1,1.85,2.75,6.19,6.19,0,0,1,5-1A3.91,3.91,0,0,1,59,4.32c1.2,1,1.43,2.74,1.57,4.32a4.86,4.86,0,0,1,5.26,1.43,3.83,3.83,0,0,1-.58,5.27c.64,1.41,2.3,2.25,2.56,3.78a3.83,3.83,0,0,1-.77,2.67,3.29,3.29,0,0,1-.92,1c-.87.57-2,.34-3,.43a4.83,4.83,0,0,0-4,3.2c-.35,1-.36,2.13-.69,3.15s-1.14,2-2.18,2a.94.94,0,0,1-.73-.32,1.22,1.22,0,0,1-.22-.62c-.25-1.56-.05-3.17-.43-4.7a6.15,6.15,0,0,0-5.62-4.61c-1.16,0-2.37.29-3.46-.15a7,7,0,0,1-1.91-1.46,11,11,0,0,0-4.67-2.43,13.12,13.12,0,0,1-3-.84C34.39,15.52,33.44,12.63,33.87,10.72Z"/><path class="cls-7" d="M75.43,258.83A169.55,169.55,0,0,1,77.18,284a12.23,12.23,0,0,1-.84,5.28c-1.49,3.15-5.25,4.57-7.25,7.43a3.07,3.07,0,0,0-.65,2.58c.49,1.52,2.52,1.74,4.11,1.66,6-.29,11.92-.85,17.83-1.67,3.52-.48,7.9-2,8.05-5.53-1.23-3.27-6.13-3.27-8.35-6a9.39,9.39,0,0,1-1.59-4.44,150.12,150.12,0,0,1-2-28.72c.18-6.59,1-13.75,5.7-18.42,1.13-1.13,2.52-2.2,2.83-3.76.4-2-1.3-4-3.25-4.59a12.69,12.69,0,0,0-6.09.08L73.35,230.1c-7.48,1.32-9.78,4.58-5.58,10C72.27,245.94,74.35,251.42,75.43,258.83Z"/><path class="cls-7" d="M158.32,233.85c-2.91-7.74-12.2-10.81-20.42-11.62a81.77,81.77,0,0,0-12.42-.29c-13.81.74-8.21,14.83-7.22,24.47l3.93,38.28c.44,4.26.8,8.87-1.44,12.52a6.67,6.67,0,0,0-1.36,2.87c-.16,2.49,3,3.6,5.51,3.9,3,.38,6.24.71,8.93-.69s4.25-5.32,2.23-7.58a28.1,28.1,0,0,0-2.83-2.11c-1.8-1.53-2.33-4.05-2.69-6.39a117,117,0,0,1-1.11-25.37c.16-2.45.45-5,1.93-7,3.81-5,11.71-2.43,17.83-3.87C156.31,249.31,160.9,240.7,158.32,233.85Zm-10.45,5.61a8.91,8.91,0,0,1-2.83,1.69c-4.62,2-9.62,2.82-14.58,3.67a52.41,52.41,0,0,0-3.07-15.75c2.08-.81,4.7-.45,6.93-.25a28.17,28.17,0,0,1,6.51,1.54,23.94,23.94,0,0,1,6,2.91,4.88,4.88,0,0,1,2.32,3.23A3.74,3.74,0,0,1,147.87,239.46Z"/><path class="cls-7" d="M159.34,299.13a639.68,639.68,0,0,1,33.6-69.38c.78-1.4,2-3,3.58-2.66,1.37.31,1.92,1.92,2.24,3.28l12.34,52.5c1.41,6,3.09,12.47,7.86,16.41,1.4,1.15,3.24,2.64,2.62,4.34a3.91,3.91,0,0,1-2.31,1.9c-4.39,2-9.32,4-13.87,2.4a3.21,3.21,0,0,1-2.35-2.18c-.2-1.13.63-2.14,1.2-3.13,2.33-4,.71-9.12-.95-13.47l-5.53-14.52c-.72-1.89-1.52-3.9-3.18-5.07-2.13-1.53-5.18-1.19-7.44.13a20.29,20.29,0,0,0-5.53,5.55c-7,9.26-14.1,20.43-11.37,31.75.36,1.5-7.89.49-8.93-.22C158.56,304.86,158.07,302.22,159.34,299.13Z"/><path class="cls-8" d="M193.39,243.07c-2.56,5-5.8,10.28-7.3,15.67a1.84,1.84,0,0,0-.06,1.2c.27.65,1.12.77,1.82.8l8,.33a2,2,0,0,0,1.09-.15c.78-.43.69-1.56.49-2.43l-3.14-13.67c-.13-.6-.39-1.48-.94-1.75"/><circle class="cls-9" cx="37.39" cy="32.07" r="1"/><circle class="cls-9" cx="38.39" cy="38.07" r="1"/><circle class="cls-9" cx="43.89" cy="28.57" r="1.5"/></svg>