<svg id="Layer_1" data-name="Layer 1" xmlns="http://www.w3.org/2000/svg" width="133.24" height="319.96" viewBox="0 0 133.24 319.96"><defs><style>.cls-1,.cls-11,.cls-12,.cls-13,.cls-2,.cls-4,.cls-5,.cls-6,.cls-7,.cls-9{fill:none;}.cls-1,.cls-10,.cls-11,.cls-12,.cls-13,.cls-2,.cls-3,.cls-4,.cls-5,.cls-6,.cls-7,.cls-8,.cls-9{stroke:#000;stroke-miterlimit:10;}.cls-1{stroke-width:0.87px;}.cls-2{stroke-width:0.92px;}.cls-3{stroke-width:1.06px;}.cls-4{stroke-width:0.87px;}.cls-5{stroke-width:0.81px;}.cls-12,.cls-7{stroke-width:0.75px;}.cls-8{stroke-width:0.38px;}.cls-10,.cls-11,.cls-12,.cls-9{stroke-linecap:round;}.cls-10,.cls-9{stroke-width:0.25px;}.cls-11{stroke-width:0.96px;}.cls-13{stroke-width:0.89px;}</style></defs><path class="cls-1" d="M105.83,206a278.81,278.81,0,0,0,0-32.34c-1.54-23.85-4.35-36.28-11.5-51.61-3-6.48-8.83-11.6-12.66-17.72-17.35-27.73-7.84-62-8.59-93.81C73,9,50,9.36,47.68,9.75c-8.19,1.42-8.12.84-9.58,7.4-3,13.22-.32,30.94-1.1,44.78-.66,11.74-1.34,23.61-5.07,34.89-5.58,16.9-17.67,31.52-24,48.2s-6.81,34.89-7,52.65Q.37,256.86,2,316a304.5,304.5,0,0,0,101.42-1.61c-.37-14.39-.45-26.54-.44-35.74,0-12.93,0-22.26.59-34.95.62-13.77.59-14.55,1.23-26.71"/><path class="cls-2" d="M37.51,19.42a8.79,8.79,0,0,0,4.36,3.52,29.36,29.36,0,0,0,31-4.91"/><path class="cls-3" d="M46.06,13.47c.69-.38,1-1.54,1.73-1.84,1.38-.57,2.1,2.28,3.43,3,2.1,1.15,4.23-3.43,6.31-2.22.85.5,1.33,1.87,2.24,2.15,1.17.36,2.13-1.29,3.31-1.67,2-.66,3.71,2.35,5.74,2.17a6.9,6.9,0,0,0,1.67-.58,5.27,5.27,0,0,1,3.21-.21c1,.25,1.84-.85,1.59-2.1a13.88,13.88,0,0,0-6.27-9C64.49.49,59.24.49,54.4.54a37.3,37.3,0,0,0-12.29,2.6A8,8,0,0,0,38.47,5.4c-1.53,1.82-2.39,6.14-.29,7.25.72.39,2.62-1.12,3.56-1C43.09,11.81,44.72,14.21,46.06,13.47Z"/><path class="cls-4" d="M76.07,202.92c11.55-2.72,23.33-8,30.26-18.52"/><path class="cls-4" d="M1.31,186.34c5.55,8.55,15,12.9,24.26,15.49C39.1,205.63,52,207,65.83,205"/><path class="cls-5" d="M.33,238.27c5.44,7.68,14.72,11.59,23.8,13.92a108.17,108.17,0,0,0,49.52,1C85,250.72,97,244.48,103.83,235"/><path class="cls-6" d="M118.34,165.74c-1.15,1-1.93,2.49-3.3,3.2a11.63,11.63,0,0,1-2.48.74,3.51,3.51,0,0,0-2.15,1.34,1.57,1.57,0,0,0,.5,2.23c.36.16.79.12,1.14.31a1.78,1.78,0,0,1,.61,1.95c-.33,1.78-1.52,3.42-1.36,5.22.21,2.19.53,3.3,4.24,4.7a5.42,5.42,0,0,0,2.29.6,12.06,12.06,0,0,0,5.71-2.38c1.21-.86,2.25-1.93,3.37-2.9,2.29-2,4.74-4.24,5-7.24.21-2.49-1.23-4.86-3.09-6.53C126,164.5,121.48,163,118.34,165.74Z"/><path class="cls-6" d="M105.83,205c.71-8.57,3-13.71,6.35-21.61"/><path class="cls-6" d="M118.83,186c.06,3.06,2,5.71,3.59,8.3,1.84,3.11,2.54,6.83,3,10.49a80.86,80.86,0,0,1-.51,22.19,65.7,65.7,0,0,0-1.28,9.66c0,2.18.24,4.36.15,6.54-.14,3.39-1.14,6.66-1.81,10-3.24,16.23,1.74,32.84,4.31,49.2a13.75,13.75,0,0,1,.15,5.07,8.93,8.93,0,0,1-4.43,5.69,20.75,20.75,0,0,1-6.83,2.13,7.34,7.34,0,0,1-4.64-.24c-1.41-.73-2.32-2.81-1.39-4.16.8-1.17,2.38-1.19,3.73-1.31s3-.78,3.08-2.22a3.61,3.61,0,0,0-.24-1.3c-2.56-8.25-4.32-16.75-6.08-25.23a122.3,122.3,0,0,1-2.94-19.21c-.43-9.39,1.28-18.79.6-28.16-.43-5.86-1.86-10.59-2.42-16.41"/><path class="cls-6" d="M113,197.05c.85-1.42,1.92-3,3.53-3.35,2.44-.6,4.7,2.06,4.65,4.57s-1.63,4.7-3.25,6.62a67.82,67.82,0,0,1-12.81,11.71,11.43,11.43,0,0,1-3.62,1.9,12.55,12.55,0,0,1-5.28-.14c-8.77-1.5-18.12-3.29-24.43-9.54l3.11-3.74A3.57,3.57,0,0,1,76.16,204c1-.43,2.17.14,3.14.67a56.5,56.5,0,0,0,19.51,6.31,5.24,5.24,0,0,0,2.67-.13,4.64,4.64,0,0,0,2.14-2A141.59,141.59,0,0,1,113,197.05Z"/><path class="cls-7" d="M76.62,203.81c0,.13.25.12.21,0-.35-1.41-1.5-2.67-1.65-4.11a5.49,5.49,0,0,0-.42-2.22c-.37-.67-1.34-1.08-1.91-.57l.75,4-4.55-4.14c-.75-.68-4.22-2.77-2.68-.93l4.51,5c-2.12-1.77-4.28-3.51-6.46-5.21-2.59-.68.65,2.54,1.64,3.41a27.31,27.31,0,0,0,2.9,2.67l-3.19-2.7c-.67-.57-1.79-1.09-2.28-.36s.18,1.39.72,1.88L67,203.2a6.5,6.5,0,0,1-2.24-1.55,2.3,2.3,0,0,0-2.52-.53c.38,1.72,2.06,2.78,3.59,3.65,2.37,1.33,4.61,1.92,7,3.26"/><path class="cls-8" d="M112.71,176.79c.9-.48,2.59-.31,2.62.65a1.59,1.59,0,0,1-2.19,1.27c-.93-.44-1.29-1.39-.43-1.92"/><path class="cls-9" d="M119.33,167.53a3.4,3.4,0,0,0-2,1.07.71.71,0,0,0-.2.49.74.74,0,0,0,.32.46,6.69,6.69,0,0,0,3.23,1.53c.1-1.33-.77-2.38-1.4-3.55"/><path class="cls-10" d="M117.5,168.53a1.37,1.37,0,0,0-.25.29.37.37,0,0,0,0,.37.48.48,0,0,0,.26.12,1.29,1.29,0,0,0,.95-.06,1,1,0,0,0,.31-.35,1.89,1.89,0,0,0,.26-.72,1,1,0,0,0,0-.42c0-.12-.09-.09-.23-.06A3.81,3.81,0,0,0,117.5,168.53Z"/><path class="cls-11" d="M119.33,166.53a5.66,5.66,0,0,1,3.42,1.67,2.22,2.22,0,0,1,.23,2.69"/><path class="cls-12" d="M123.38,176.07a.9.9,0,0,1,.73-.15,1.24,1.24,0,0,1,.63.4.7.7,0,0,1,.22.55.89.89,0,0,1-.25.44,11.85,11.85,0,0,1-2,1.83c-.2.15-.48.3-.68.16s-.17-.53-.36-.74"/><path class="cls-10" d="M121,162.1a2,2,0,0,1,1.06-.16,15.15,15.15,0,0,1,5.8,1,5.36,5.36,0,0,1,1.45.93,6.73,6.73,0,0,1,1.13,1.41,20.33,20.33,0,0,1,2.18,4.62,7,7,0,0,1,.45,2.82,7.12,7.12,0,0,1-.86,2.56,12.9,12.9,0,0,1-3.06,4c-.69.58-1.47,1.06-2.13,1.67s-1.15,1.3-1.8,1.88a6.16,6.16,0,0,1-3.06,1.49c-.33.06-1.65,1.49-1.86,1.22s.87-.87,1-1a6.16,6.16,0,0,0,2-5c.1-1,1.27-1.41,2-2.18,1.33-1.47,1.37-3.67,1.17-5.65a6.83,6.83,0,0,0-1.56-4.26,11.71,11.71,0,0,0-2.64-1.68c-.72-.41-1.75-1-1.86-1.94A1.67,1.67,0,0,1,121,162.1Z"/><path class="cls-6" d="M116,307.77a19.39,19.39,0,0,0,7.64-.52,8.61,8.61,0,0,0,2.57-1.42"/><path class="cls-6" d="M107.71,235.3c5.21.76,10.51,1.51,15.71.68"/><path class="cls-5" d="M109.72,190a74.23,74.23,0,0,0,7.46-.13,5.16,5.16,0,0,0,2.55-.63"/><circle class="cls-7" cx="45.33" cy="128.53" r="2.5"/><circle class="cls-7" cx="58.83" cy="144.03" r="3"/><circle class="cls-7" cx="49.33" cy="197.53" r="1.5"/><circle class="cls-7" cx="70.83" cy="277.03" r="3"/><path class="cls-13" d="M25.2,227.78a95.57,95.57,0,0,0,1.8-12.6,46.43,46.43,0,0,1,6.06,15.92,2.24,2.24,0,0,0,.39,1.08c.75.92,2.34.14,3.34.76,2.66-7.8-1.19-16.53,1-24.48-1.24-.8-3.16-1.45-3.93-.16a3,3,0,0,0-.24,1.67l.44,8.37c-2.46-3.93-5.07-8-9-10.29a1.5,1.5,0,0,0-1.07-.28c-.8.19-.85,1.34-.74,2.17.71,5.42-.58,9.9-1.39,15.16-.21,1.38-1.41,3.06-.09,4.25C23.31,230.78,24.83,229.52,25.2,227.78Z"/><path class="cls-7" d="M62.14,214.51l-.34.34C52,224.62,47.16,238.7,36.49,247.47l1.85,2.41a177,177,0,0,0,26.87-31.77,3.07,3.07,0,0,0,.41-.78C66.08,215.78,63.72,214.88,62.14,214.51Z"/><path class="cls-7" d="M69.06,233.88a8.44,8.44,0,0,0-.53,9.09c.69.18,1.33-.4,1.81-.94,1.41-1.58,7.4-7.21,7-9.51C76.56,228.35,70.46,232,69.06,233.88Z"/><path class="cls-7" d="M71.41,246.36a6.69,6.69,0,0,0,4,.64,8.9,8.9,0,0,0,7.13-4.8c1.08-2.35.65-8.24-2.71-7C77.31,236.15,73.28,244.11,71.41,246.36Z"/><path class="cls-7" d="M84.26,226.22l2,2.67-3.48,3.23a10,10,0,0,1-3.22,17.23,17.6,17.6,0,0,1-7.85.26,6.9,6.9,0,0,0-3.1,0A2.25,2.25,0,0,0,67,252l-2.72-1.58a.92.92,0,0,1-.49-.5,1,1,0,0,1,.26-.72l1.71-2.29a1.24,1.24,0,0,0,.35-1,1.41,1.41,0,0,0-.54-.6,6.58,6.58,0,0,1-2.27-5.69,13.62,13.62,0,0,1,2.17-6c1.44-2.41,3.32-4.71,5.91-5.79C76.86,225.53,79.26,231.35,84.26,226.22Z"/></svg>